<?xml version="1.0" encoding="utf-8"?>
<!-- Generator: Adobe Illustrator 16.0.0, SVG Export Plug-In . SVG Version: 6.00 Build 0)  -->
<!DOCTYPE svg PUBLIC "-//W3C//DTD SVG 1.1//EN" "http://www.w3.org/Graphics/SVG/1.1/DTD/svg11.dtd">
<svg version="1.1" id="Layer_1" xmlns="http://www.w3.org/2000/svg" xmlns:xlink="http://www.w3.org/1999/xlink" x="0px" y="0px"
	 width="18px" height="18px" viewBox="0 0 18 18" enable-background="new 0 0 18 18" xml:space="preserve">
<circle fill="#FFFFFF" cx="8.941" cy="8.979" r="8.755"/>
<path fill="none" d="M8.808,16.955c0.343,0.146,0.696,0.27,1.054,0.368c0-0.009,0.002-0.018,0.007-0.026
	c0.006-0.009,0.02-0.021,0.032-0.022c0.079-0.014,0.159-0.026,0.239-0.041c0.003-0.001,0.006-0.003,0.01-0.005
	c0.007-0.006,0.016-0.011,0.024-0.012c0.611-0.117,1.212-0.295,1.788-0.536c-0.001,0.001-0.004,0.001-0.004,0.001
	c0.001,0,0.003-0.001,0.004-0.001c0.005-0.002,0.01-0.004,0.014-0.007c-0.003,0.002-0.007,0.003-0.011,0.005
	c0.127-0.055,0.253-0.11,0.378-0.171c0.409-0.198,0.802-0.427,1.176-0.685c0.003-0.009,0.007-0.018,0.01-0.027
	c0.032-0.099,0.063-0.196,0.093-0.296c0.024-0.088,0.051-0.176,0.076-0.267c0.014-0.05,0.028-0.101,0.042-0.153
	c0.014-0.051,0.026-0.104,0.038-0.154c0.022-0.09,0.039-0.179,0.057-0.269c0.021-0.1,0.04-0.201,0.063-0.302
	c0.013-0.053,0.023-0.105,0.035-0.158c0.009-0.046,0.017-0.092,0.024-0.137c0.005-0.032,0.008-0.062,0.012-0.093
	c0.004-0.034,0.006-0.068,0.009-0.102c0.005-0.066,0.011-0.131,0.018-0.198c0.004-0.05,0.01-0.102,0.014-0.15
	c0.001-0.025,0.002-0.05,0.005-0.072c0-0.01,0-0.019,0-0.028c0,0-0.002,0-0.004-0.001c-0.028-0.014-0.057-0.031-0.083-0.048
	c-0.027-0.016-0.055-0.036-0.081-0.054c-0.057-0.041-0.111-0.084-0.165-0.128c-0.051-0.043-0.103-0.088-0.155-0.132
	c-0.024-0.021-0.049-0.043-0.074-0.063s-0.05-0.041-0.077-0.06c-0.048-0.036-0.099-0.073-0.148-0.108
	c-0.021-0.016-0.044-0.029-0.066-0.045c-0.025-0.018-0.053-0.037-0.08-0.054c-0.122-0.076-0.243-0.148-0.365-0.221
	c-0.063-0.038-0.123-0.073-0.187-0.11c-0.022-0.014-0.045-0.023-0.068-0.037c-0.03-0.015-0.062-0.032-0.092-0.047
	c-0.1-0.048-0.2-0.094-0.301-0.141c-0.001,0-0.003-0.002-0.003-0.002c-0.024-0.011-0.048-0.021-0.069-0.032
	c-0.067-0.03-0.135-0.062-0.201-0.093c-0.057-0.026-0.114-0.05-0.172-0.075c-0.035-0.014-0.07-0.029-0.105-0.04
	c-0.004-0.001-0.007-0.001-0.009-0.003c0.002,0.017,0.002,0.034,0.004,0.05c0.002,0.021-0.018,0.036-0.034,0.036
	c-0.01,0-0.02-0.005-0.026-0.01c-0.008-0.008-0.009-0.017-0.011-0.026c-0.001-0.015-0.002-0.028-0.004-0.044
	c-0.342,0.239-0.703,0.455-1.075,0.645c-0.29,0.147-0.589,0.28-0.894,0.394c-0.302,0.112-0.609,0.208-0.921,0.285
	c-0.274,0.069-0.549,0.126-0.828,0.168c0.026,0.015,0.052,0.03,0.078,0.047c0.001,0,0.001,0,0.003,0c0.005,0,0.008,0,0.012,0.003
	c0.004,0.003,0.007,0.006,0.01,0.01c0,0,0.001,0.001,0.002,0.003c0.021,0.012,0.041,0.024,0.063,0.039
	c0.032,0.021,0.065,0.039,0.093,0.065c0.028,0.027,0.027,0.075,0,0.103c-0.014,0.013-0.032,0.021-0.051,0.021
	c-0.013,0-0.025-0.005-0.037-0.01c-0.007-0.005-0.014-0.01-0.022-0.014c-0.004,0.026-0.008,0.055-0.013,0.083
	c-0.011,0.064-0.021,0.129-0.039,0.193c-0.017,0.062-0.033,0.124-0.052,0.185c-0.039,0.126-0.085,0.248-0.126,0.373
	c-0.04,0.125-0.078,0.252-0.111,0.38c-0.034,0.129-0.061,0.261-0.085,0.392c-0.024,0.125-0.045,0.251-0.071,0.376
	c-0.013,0.063-0.027,0.124-0.04,0.186C7.32,15.916,7.309,15.977,7.3,16.038c-0.002,0.017-0.004,0.036-0.005,0.052
	c0.009,0.002,0.019,0.002,0.028,0.002c0.019,0.002,0.036,0.002,0.055,0.005c0.018,0.004,0.035,0.011,0.051,0.021
	c0.019,0.012,0.031,0.027,0.043,0.047c0.009,0.017,0.013,0.034,0.013,0.052c0.006,0.008,0.01,0.015,0.013,0.022
	c0.002,0.008,0.002,0.017,0.001,0.024C7.916,16.53,8.354,16.764,8.808,16.955z"/>
<path fill="none" d="M15.749,3.702c-0.053-0.068-0.108-0.136-0.162-0.203C15.641,3.565,15.695,3.632,15.749,3.702L15.749,3.702z"/>
<path fill="none" d="M15.046,3.856c0.023-0.015,0.047-0.029,0.073-0.04c-0.037-0.044-0.075-0.086-0.112-0.129
	c0.011,0.044,0.021,0.087,0.03,0.132C15.039,3.832,15.042,3.843,15.046,3.856z"/>
<path fill="none" d="M14.936,3.386c-0.007-0.008-0.014-0.015-0.021-0.022c0,0,0.001,0,0.001,0.001
	C14.923,3.371,14.929,3.378,14.936,3.386z"/>
<path fill="none" d="M10.9,1.817c-0.215,0.03-0.431,0.067-0.644,0.112C9.983,1.987,9.713,2.058,9.446,2.143
	C9.314,2.185,9.182,2.229,9.051,2.278C8.999,2.297,8.947,2.316,8.896,2.337c0.021,0.011,0.032,0.036,0.025,0.06
	C8.908,2.448,8.894,2.5,8.882,2.552C8.871,2.594,8.861,2.636,8.851,2.678c-0.004,0.017-0.008,0.033-0.013,0.05
	c-0.005,0.05-0.009,0.099-0.013,0.148C8.817,2.982,8.809,3.088,8.796,3.193C8.794,3.206,8.792,3.218,8.791,3.231
	C8.789,3.273,8.787,3.316,8.784,3.358c-0.009,0.137-0.02,0.276-0.032,0.414C8.741,3.904,8.728,4.034,8.718,4.166
	C8.711,4.248,8.706,4.329,8.702,4.412c0.003,0.033,0.004,0.066,0.009,0.1c0.004,0.031,0.008,0.062,0.012,0.091
	c0.008,0.061,0.019,0.121,0.029,0.18c0.01,0.06,0.017,0.12,0.025,0.181c0.017,0.13,0.024,0.26,0.031,0.389
	C8.811,5.416,8.812,5.478,8.81,5.54c0,0.028-0.002,0.056-0.002,0.084C8.807,5.639,8.807,5.655,8.805,5.67
	C8.802,5.697,8.8,5.726,8.786,5.75c0,0,0,0.001,0,0.001C8.89,5.798,8.994,5.847,9.097,5.897C9.351,6.022,9.599,6.162,9.84,6.312
	c0.246,0.154,0.485,0.321,0.716,0.499c0.042,0.033,0.084,0.067,0.127,0.101c0.163,0.131,0.322,0.268,0.478,0.411
	c0.141,0.131,0.277,0.266,0.409,0.405c0.083,0.088,0.166,0.179,0.245,0.271c0,0,0,0,0,0c0.001-0.008,0.002-0.018,0.002-0.026
	c0.001-0.029,0.002-0.059,0.007-0.088c0.002-0.012,0.004-0.024,0.007-0.037c0.001-0.005,0.002-0.011,0.004-0.017
	c0.005-0.016,0.011-0.031,0.019-0.045c0.008-0.016,0.025-0.024,0.042-0.024c0.009,0,0.017,0.001,0.024,0.006
	c0.02,0.011,0.027,0.034,0.023,0.055c-0.003,0.008-0.005,0.016-0.006,0.023c0,0.007-0.001,0.013-0.002,0.02
	c0.036-0.012,0.071-0.024,0.107-0.037c0.129-0.043,0.256-0.087,0.386-0.127c0.063-0.02,0.127-0.041,0.191-0.06
	c0.077-0.022,0.153-0.045,0.229-0.068c0.064-0.019,0.126-0.037,0.188-0.055c0.065-0.019,0.129-0.041,0.191-0.061
	c0.06-0.02,0.116-0.04,0.174-0.062c0.059-0.021,0.117-0.042,0.176-0.065c0.063-0.023,0.128-0.048,0.191-0.072
	c0.031-0.012,0.061-0.024,0.091-0.034c0.038-0.013,0.074-0.026,0.111-0.039c0.125-0.042,0.251-0.077,0.378-0.112
	c0.063-0.016,0.123-0.034,0.186-0.052c0.059-0.018,0.118-0.038,0.179-0.055c0.061-0.02,0.122-0.036,0.185-0.051
	c0.03-0.007,0.059-0.014,0.089-0.021c0.033-0.008,0.063-0.019,0.095-0.029c0.029-0.229,0.051-0.46,0.06-0.692
	c0.025-0.523,0.002-1.049-0.066-1.57c0-0.002-0.001-0.004-0.001-0.006l0,0l0,0c0-0.001-0.001-0.003-0.001-0.005
	c-0.027-0.204-0.062-0.406-0.103-0.606c-0.021-0.104-0.045-0.208-0.07-0.311c-0.013-0.049-0.024-0.099-0.038-0.148
	c0-0.003,0-0.006-0.001-0.009c-0.017-0.019-0.032-0.038-0.05-0.055c-0.048-0.051-0.094-0.099-0.145-0.147
	c-0.092-0.089-0.188-0.173-0.287-0.253c-0.035-0.027-0.071-0.054-0.107-0.081c-0.104-0.077-0.212-0.149-0.316-0.224
	c-0.051-0.038-0.101-0.076-0.152-0.113c-0.061-0.043-0.12-0.086-0.181-0.127c-0.052-0.036-0.103-0.069-0.154-0.105
	c-0.051-0.037-0.104-0.073-0.154-0.109c-0.026-0.019-0.054-0.038-0.081-0.055c-0.029-0.02-0.059-0.041-0.09-0.058
	c-0.059-0.036-0.118-0.071-0.178-0.105c-0.053-0.03-0.104-0.058-0.155-0.088c-0.029-0.017-0.06-0.034-0.088-0.052
	c-0.033-0.022-0.066-0.042-0.099-0.064c-0.023-0.015-0.046-0.031-0.069-0.047C12.531,1.817,12.504,1.8,12.48,1.782
	c-0.018-0.012-0.032-0.023-0.049-0.035c-0.008,0-0.014,0-0.021,0c-0.017,0-0.03,0-0.048-0.001c-0.016,0-0.033-0.001-0.05-0.001
	c-0.067-0.002-0.135-0.003-0.203-0.003c-0.135-0.001-0.271,0.001-0.404,0.007C11.436,1.76,11.168,1.782,10.9,1.817z"/>
<polygon fill="none" points="16.416,10.182 16.414,10.175 16.416,10.182 "/>
<path fill="none" d="M15.11,7.259C15.11,7.259,15.11,7.259,15.11,7.259c-0.001,0.01-0.005,0.019-0.006,0.03
	C15.105,7.278,15.109,7.269,15.11,7.259z"/>
<polygon fill="none" points="14.284,13.353 14.276,13.362 14.276,13.362 "/>
<path fill="none" d="M17.269,6.718c-0.1-0.361-0.222-0.715-0.366-1.061c-0.144-0.335-0.307-0.664-0.49-0.979
	c-0.167-0.286-0.35-0.562-0.548-0.827c-0.039,0.003-0.081,0.006-0.121,0.009c-0.085,0.005-0.17,0.011-0.254,0.019
	c-0.102,0.015-0.205,0.03-0.303,0.068c-0.032,0.014-0.063,0.034-0.092,0.053c-0.005,0.004-0.012,0.007-0.018,0.008
	c0.019,0.092,0.035,0.185,0.052,0.278c0.087,0.524,0.125,1.056,0.116,1.587c-0.005,0.262-0.021,0.525-0.051,0.785
	c-0.008,0.073-0.016,0.146-0.025,0.218c0.003,0,0.004,0.001,0.006,0.002c0.009,0.007,0.015,0.016,0.019,0.027
	c0.007,0.015,0.014,0.029,0.021,0.045c0.021,0.05,0.041,0.099,0.063,0.15c0.004,0.011,0.011,0.021,0.015,0.033
	c0.018,0.021,0.033,0.042,0.049,0.063c0.032,0.043,0.063,0.087,0.094,0.131c0.029,0.042,0.058,0.085,0.086,0.129
	c0.027,0.041,0.052,0.085,0.078,0.127c0.012,0.019,0.023,0.039,0.034,0.058c0.012,0.021,0.024,0.041,0.036,0.062
	c0.023,0.044,0.049,0.088,0.072,0.134c0.003,0.005,0.006,0.011,0.009,0.017c0.023,0.04,0.046,0.081,0.069,0.123
	c0.027,0.046,0.05,0.094,0.076,0.142c0.009,0.018,0.017,0.036,0.026,0.055c0.016,0.031,0.03,0.062,0.046,0.093
	c0.022,0.048,0.044,0.099,0.068,0.148c0.045,0.094,0.087,0.19,0.127,0.287c0.022,0.053,0.045,0.106,0.066,0.159
	c0.021,0.052,0.04,0.106,0.06,0.159c0.02,0.051,0.036,0.102,0.054,0.154c0.014,0.047,0.027,0.095,0.04,0.142
	c0.006,0.027,0.013,0.055,0.02,0.082c0.007,0.03,0.014,0.06,0.021,0.089c0.006,0.028,0.011,0.055,0.016,0.084
	c0.005,0.026,0.011,0.054,0.016,0.08c0.018,0.103,0.035,0.206,0.057,0.309c0.008,0.03,0.015,0.059,0.021,0.085
	c0.003,0.006,0.005,0.015,0.007,0.021c0.001,0.006,0.001,0.01,0.001,0.015c0.002,0.011,0.005,0.021,0.007,0.029
	c0.007,0.026,0.014,0.052,0.02,0.078c0.01,0.002,0.021,0.002,0.03,0.002c0,0,0.001,0,0.001,0.002
	c0.003-0.002,0.005-0.002,0.008-0.002c0.006,0,0.011,0.002,0.018,0.002c0.021,0.002,0.042,0.003,0.063,0.003
	c0.062,0.003,0.123,0.006,0.185,0.01c0.11,0.001,0.221,0.003,0.332,0.003c0.008,0,0.016,0,0.023,0l0,0c0.022,0,0.042,0,0.063,0
	c0.038-0.002,0.078-0.002,0.115-0.002c0.013,0,0.025,0.006,0.033,0.016c0.015,0,0.028,0,0.044-0.002
	c0.003-0.025,0.007-0.054,0.011-0.082c0.026-0.196,0.047-0.393,0.061-0.591c0.005-0.101,0.011-0.203,0.013-0.304
	c0.003-0.094,0.008-0.189,0.007-0.284c-0.002-0.382-0.027-0.764-0.078-1.143C17.443,7.446,17.368,7.079,17.269,6.718z"/>
<path fill="none" d="M17.404,10.295c-0.04,0.003-0.082,0.003-0.122,0.003c-0.019,0-0.036,0-0.055,0c0,0-0.001,0-0.002,0
	c-0.007,0-0.014,0-0.022,0c-0.113,0-0.227-0.001-0.34-0.008c-0.061-0.002-0.121-0.006-0.182-0.01c-0.002,0.01-0.006,0.02-0.01,0.028
	c-0.056,0.074-0.105,0.148-0.16,0.225c-0.063,0.092-0.128,0.182-0.194,0.269c-0.063,0.086-0.127,0.168-0.191,0.251
	c-0.062,0.081-0.124,0.161-0.185,0.241c-0.068,0.092-0.137,0.182-0.203,0.272c-0.133,0.175-0.268,0.348-0.401,0.52
	c0.001-0.001,0.003-0.003,0.003-0.006c0,0.002,0,0.002,0,0.002c0,0.001-0.002,0.003-0.003,0.003c0.001,0,0.001,0,0.001,0
	c-0.037,0.047-0.072,0.093-0.109,0.14c0.003-0.002,0.005-0.005,0.007-0.006l0,0l0,0l0,0l0,0c-0.001,0-0.001,0-0.001,0
	c0,0.001-0.001,0.001-0.001,0.001l0,0c-0.001,0.002-0.001,0.002-0.002,0.003c-0.036,0.045-0.07,0.092-0.104,0.136
	c-0.002,0.001-0.004,0.003-0.004,0.005l0,0c-0.001,0.001-0.002,0.001-0.003,0.003l0,0c0,0-0.001,0-0.001,0.002c0,0,0,0,0.001-0.002
	c-0.036,0.047-0.071,0.091-0.105,0.138l0,0c0,0-0.001,0.001-0.002,0.001h-0.001l0,0c0,0,0,0,0,0.003l0,0l0,0
	c-0.001,0.001-0.001,0.001-0.001,0.001l0,0l0,0l0,0c-0.001,0-0.001,0-0.001,0l0,0v0.002l0,0l0,0l0,0h-0.001l0,0l0,0l0,0l0,0
	c0,0.001,0,0.001,0,0.001l0,0l0,0l0,0l0,0l0,0l0,0l0,0l0,0l0,0l0,0l0,0l0,0c-0.001,0-0.001,0.002-0.002,0.002l0,0l0,0v0.001l0,0l0,0
	l0,0l0,0l0,0l0,0c-0.038,0.048-0.074,0.094-0.112,0.142l0,0c0,0.002,0,0.002,0,0.002l0,0l0,0l0,0c0,0.001-0.002,0.001-0.003,0.003
	c0.001,0,0.001,0,0.001-0.002c0,0.002,0,0.002-0.001,0.002c0,0.001-0.002,0.003-0.003,0.003c0,0-0.001,0-0.001,0.002
	c0.001-0.002,0.001-0.002,0.001-0.002c-0.057,0.075-0.115,0.152-0.172,0.229c-0.071,0.094-0.144,0.188-0.215,0.282
	c-0.033,0.044-0.069,0.085-0.104,0.129c-0.002,0.003-0.004,0.007-0.006,0.008c0.005,0.008,0.005,0.018-0.003,0.024
	c-0.018,0.017-0.035,0.031-0.054,0.049c-0.008,0.008-0.016,0.015-0.023,0.021c-0.004,0.007-0.009,0.012-0.014,0.017
	c-0.007,0.006-0.014,0.012-0.021,0.015c-0.003,0.003-0.006,0.005-0.01,0.005c-0.033,0.278-0.079,0.556-0.141,0.828
	c-0.012,0.065-0.027,0.128-0.044,0.191c-0.027,0.112-0.054,0.226-0.084,0.338c-0.042,0.146-0.086,0.29-0.135,0.433
	c-0.04,0.122-0.084,0.24-0.13,0.358c-0.006,0.022-0.011,0.045-0.017,0.069c-0.004,0.011-0.008,0.022-0.011,0.035
	c0.007-0.002,0.016-0.003,0.024-0.003c0.008,0,0.015,0.001,0.022,0.003c0.021,0.005,0.038,0.018,0.049,0.038
	c0.012,0.019,0.015,0.042,0.008,0.062c-0.001,0.005-0.002,0.008-0.004,0.011c0.041,0.01,0.08,0.021,0.121,0.031
	c0.029,0.007,0.06,0.015,0.091,0.021c0.026,0.006,0.057,0.01,0.082,0.021c0.037-0.028,0.073-0.055,0.11-0.084
	c0.293-0.227,0.572-0.472,0.835-0.734c0.256-0.26,0.497-0.53,0.721-0.817c0.231-0.301,0.445-0.614,0.635-0.941
	c0.188-0.321,0.354-0.654,0.499-0.995c0.146-0.349,0.271-0.706,0.369-1.071c0.086-0.316,0.152-0.637,0.203-0.96
	c-0.011,0-0.021,0.001-0.033,0.001C17.431,10.288,17.419,10.295,17.404,10.295z"/>
<rect x="15.009" y="12.51" fill="none" width="0" height="0.001"/>
<path fill="none" d="M14.11,13.452c-0.001,0.019-0.002,0.037-0.003,0.056c-0.003,0.036-0.007,0.073-0.011,0.107
	c0.003-0.011,0.006-0.02,0.009-0.028c0.014-0.047,0.027-0.09,0.042-0.135C14.136,13.456,14.122,13.456,14.11,13.452z"/>
<line fill="none" stroke="#161616" stroke-width="0" stroke-linecap="round" stroke-linejoin="round" x1="15.075" y1="4.598" x2="15.075" y2="4.598"/>
<polyline fill="none" stroke="#161616" stroke-width="0" stroke-linecap="round" stroke-linejoin="round" points="15.01,12.511 
	15.009,12.511 15.009,12.511 "/>
<line fill="none" stroke="#161616" stroke-width="0" stroke-linecap="round" stroke-linejoin="round" x1="14.895" y1="12.658" x2="14.895" y2="12.658"/>
<line fill="none" stroke="#161616" stroke-width="0" stroke-linecap="round" stroke-linejoin="round" x1="15.007" y1="12.514" x2="15.007" y2="12.514"/>
<line fill="none" stroke="#161616" stroke-width="0" stroke-linecap="round" stroke-linejoin="round" x1="15.009" y1="12.512" x2="15.009" y2="12.512"/>
<line fill="none" stroke="#161616" stroke-width="0" stroke-linecap="round" stroke-linejoin="round" x1="15.009" y1="12.512" x2="15.009" y2="12.512"/>
<path fill="#161616" d="M17.79,8.659c-0.005-0.144-0.014-0.288-0.026-0.432C17.75,8.069,17.73,7.91,17.709,7.753
	c-0.032-0.215-0.07-0.428-0.114-0.64c-0.06-0.272-0.132-0.54-0.216-0.804c-0.085-0.266-0.185-0.527-0.292-0.786
	c-0.213-0.499-0.476-0.977-0.776-1.428c-0.078-0.118-0.159-0.233-0.244-0.348c-0.002-0.02-0.01-0.038-0.023-0.052
	c-0.008-0.009-0.02-0.015-0.031-0.02c-0.226-0.3-0.469-0.584-0.729-0.852c-0.38-0.391-0.798-0.743-1.242-1.059
	c-0.885-0.625-1.889-1.082-2.938-1.345c-0.535-0.134-1.086-0.214-1.637-0.247c-0.167-0.01-0.335-0.015-0.5-0.015
	c-0.39,0-0.778,0.027-1.164,0.077C7.528,0.272,7.258,0.32,6.99,0.381C6.724,0.441,6.46,0.517,6.2,0.602
	C5.68,0.775,5.177,0.998,4.698,1.262c-0.489,0.271-0.95,0.591-1.379,0.947C2.889,2.566,2.496,2.966,2.142,3.396
	C1.794,3.821,1.485,4.277,1.22,4.758C0.956,5.238,0.74,5.744,0.569,6.265C0.481,6.531,0.408,6.803,0.347,7.078
	C0.34,7.108,0.333,7.14,0.327,7.171C0.323,7.176,0.32,7.181,0.316,7.186c-0.011,0.07-0.028,0.138-0.045,0.207
	C0.267,7.408,0.263,7.424,0.259,7.439c0.006-0.01,0.014-0.018,0.021-0.028C0.251,7.573,0.227,7.736,0.206,7.899
	c-0.035,0.275-0.055,0.552-0.065,0.83C0.132,9.004,0.138,9.28,0.153,9.555c0.032,0.551,0.119,1.1,0.254,1.635
	c0.134,0.533,0.322,1.051,0.553,1.549c0.463,1,1.124,1.909,1.921,2.67c0.207,0.196,0.423,0.384,0.648,0.56
	c-0.002,0.003-0.005,0.008-0.008,0.011c0,0.002,0,0.003-0.001,0.003c0.035,0.018,0.068,0.037,0.1,0.059V16.04
	c0.006,0.004,0.011,0.007,0.017,0.012c0.073,0.05,0.143,0.105,0.212,0.154c0.001,0.002,0.001,0.002,0.002,0.004
	c0.101,0.07,0.202,0.14,0.305,0.208c0.233,0.152,0.474,0.291,0.72,0.422c0.246,0.131,0.499,0.244,0.755,0.351
	c1.015,0.418,2.109,0.635,3.204,0.649c0.56,0.01,1.12-0.038,1.669-0.133c0.546-0.094,1.081-0.243,1.598-0.439
	c0.51-0.192,1.002-0.435,1.467-0.719c0.465-0.282,0.9-0.611,1.306-0.972c0.801-0.719,1.468-1.588,1.96-2.544
	c0.246-0.483,0.448-0.989,0.604-1.511c0.158-0.533,0.264-1.084,0.32-1.638c0.026-0.276,0.041-0.552,0.04-0.829
	C17.797,8.924,17.796,8.792,17.79,8.659z M15.749,3.702L15.749,3.702c-0.054-0.069-0.108-0.136-0.162-0.203
	C15.641,3.566,15.696,3.633,15.749,3.702z M15.119,3.817c-0.026,0.011-0.05,0.024-0.073,0.04c-0.004-0.013-0.007-0.024-0.009-0.037
	c-0.009-0.044-0.02-0.087-0.03-0.132C15.044,3.73,15.082,3.772,15.119,3.817z M12.313,1.745c0.017,0,0.034,0.001,0.05,0.001
	c0.018,0.001,0.031,0.001,0.048,0.001c0.008,0,0.014,0,0.021,0c0.017,0.012,0.031,0.023,0.049,0.035
	c0.023,0.019,0.051,0.035,0.075,0.053c0.023,0.016,0.046,0.032,0.069,0.047c0.032,0.021,0.065,0.042,0.099,0.064
	c0.028,0.019,0.059,0.035,0.088,0.052c0.051,0.031,0.103,0.059,0.155,0.088c0.06,0.034,0.119,0.069,0.178,0.105
	c0.031,0.018,0.061,0.039,0.09,0.058c0.027,0.018,0.055,0.037,0.081,0.055c0.051,0.036,0.104,0.072,0.154,0.109
	c0.052,0.036,0.103,0.069,0.154,0.105c0.061,0.042,0.12,0.084,0.181,0.127c0.052,0.037,0.102,0.075,0.152,0.113
	c0.104,0.075,0.212,0.146,0.316,0.224c0.036,0.026,0.072,0.054,0.107,0.081c0.1,0.08,0.195,0.164,0.287,0.253
	c0.051,0.048,0.097,0.097,0.145,0.147c0.018,0.018,0.033,0.037,0.05,0.055c0.001,0.003,0.001,0.006,0.001,0.009
	c0.014,0.049,0.025,0.099,0.038,0.148c0.025,0.103,0.049,0.206,0.07,0.311c0.041,0.201,0.075,0.403,0.103,0.606
	c0,0.001,0.001,0.003,0.001,0.005c0,0.002,0.001,0.004,0.001,0.006c0.068,0.521,0.092,1.046,0.066,1.57
	c-0.009,0.232-0.03,0.463-0.06,0.692c-0.031,0.011-0.062,0.021-0.095,0.029c-0.03,0.007-0.059,0.014-0.089,0.021
	c-0.063,0.016-0.124,0.032-0.185,0.051c-0.061,0.018-0.12,0.038-0.179,0.055c-0.063,0.018-0.122,0.036-0.186,0.052
	c-0.127,0.035-0.253,0.069-0.378,0.112c-0.037,0.013-0.073,0.026-0.111,0.039c-0.03,0.01-0.06,0.022-0.091,0.034
	c-0.063,0.024-0.129,0.048-0.191,0.072c-0.059,0.023-0.117,0.044-0.176,0.065c-0.058,0.021-0.114,0.042-0.174,0.062
	c-0.063,0.02-0.126,0.042-0.191,0.061c-0.063,0.018-0.124,0.036-0.188,0.055c-0.076,0.022-0.152,0.045-0.229,0.068
	c-0.064,0.019-0.128,0.04-0.191,0.06c-0.13,0.041-0.257,0.084-0.386,0.127c-0.036,0.012-0.071,0.025-0.107,0.037
	c0.001-0.007,0.002-0.013,0.002-0.02c0.001-0.007,0.003-0.016,0.006-0.023c0-0.003,0-0.008,0-0.012
	c-0.038,0.034-0.079,0.064-0.121,0.093c-0.003,0.022-0.004,0.046-0.005,0.069c0,0.009-0.001,0.018-0.002,0.026c0,0,0,0,0,0
	c-0.018-0.021-0.036-0.041-0.054-0.062c-0.007-0.001-0.012-0.007-0.015-0.014c-0.058-0.066-0.117-0.131-0.177-0.195
	c-0.132-0.139-0.269-0.274-0.409-0.405c-0.155-0.143-0.314-0.28-0.478-0.411c-0.043-0.034-0.085-0.068-0.127-0.101
	c-0.231-0.178-0.471-0.345-0.716-0.499c-0.242-0.15-0.489-0.289-0.744-0.415C8.994,5.847,8.89,5.798,8.785,5.751
	c0,0,0-0.001,0-0.001C8.8,5.726,8.802,5.697,8.805,5.67c0.002-0.016,0.002-0.031,0.003-0.046c0-0.028,0.001-0.057,0.002-0.084
	c0.002-0.062,0.001-0.124-0.001-0.186C8.802,5.225,8.794,5.095,8.777,4.965C8.769,4.904,8.762,4.844,8.752,4.784
	c-0.01-0.06-0.021-0.119-0.029-0.18c-0.004-0.03-0.008-0.061-0.012-0.091c-0.004-0.034-0.006-0.067-0.009-0.1
	c0.004-0.083,0.009-0.164,0.016-0.247c0.01-0.131,0.023-0.261,0.034-0.393c0.012-0.138,0.022-0.277,0.032-0.414
	c0.003-0.042,0.005-0.085,0.007-0.127c0.001-0.013,0.003-0.026,0.005-0.038c0.013-0.105,0.021-0.211,0.029-0.317
	c0.004-0.049,0.008-0.099,0.013-0.148c0.005-0.017,0.008-0.033,0.013-0.05c0.01-0.042,0.02-0.084,0.031-0.126
	C8.894,2.5,8.908,2.448,8.921,2.397c0.007-0.024-0.004-0.049-0.025-0.06c0.051-0.021,0.103-0.04,0.155-0.059
	c0.13-0.049,0.263-0.093,0.395-0.135c0.267-0.084,0.537-0.155,0.811-0.213c0.213-0.045,0.429-0.082,0.644-0.112
	c0.268-0.035,0.535-0.058,0.805-0.069c0.134-0.006,0.27-0.008,0.404-0.007C12.178,1.741,12.245,1.742,12.313,1.745z M14.147,13.452
	c-0.015,0.045-0.028,0.088-0.042,0.135c-0.003,0.009-0.006,0.018-0.009,0.028c0.004-0.034,0.008-0.071,0.011-0.107
	c0.001-0.019,0.002-0.037,0.003-0.056C14.122,13.456,14.136,13.456,14.147,13.452z M7.598,13.306L7.598,13.306L7.598,13.306
	c0,0-0.001,0-0.002,0H7.598c-0.007,0-0.012,0.002-0.018,0.003c0.003-0.001,0.007-0.001,0.011-0.003
	c-0.018,0.003-0.035,0.007-0.052,0.009c-0.006-0.003-0.011-0.007-0.017-0.01c-0.052-0.028-0.104-0.057-0.157-0.084
	c-0.104-0.053-0.204-0.111-0.303-0.171c-0.093-0.058-0.185-0.115-0.277-0.174c-0.103-0.063-0.207-0.123-0.309-0.189
	c-0.044-0.027-0.088-0.058-0.131-0.088c-0.047-0.031-0.092-0.066-0.138-0.102C6.054,12.381,5.9,12.268,5.749,12.15
	c-0.177-0.139-0.351-0.282-0.521-0.43c-0.046-0.042-0.094-0.083-0.141-0.126c-0.041-0.037-0.082-0.077-0.123-0.116
	c-0.041-0.036-0.078-0.076-0.117-0.116c-0.044-0.045-0.09-0.091-0.136-0.138c-0.016-0.016-0.032-0.03-0.048-0.045
	c-0.01-0.011-0.019-0.02-0.029-0.029c-0.001,0-0.001,0-0.001-0.002C4.631,11.14,4.629,11.13,4.628,11.12
	c0.004-0.005,0.007-0.011,0.008-0.019c0.006-0.016,0.003-0.034-0.005-0.049c-0.003-0.006-0.007-0.009-0.011-0.014
	c-0.001-0.006-0.001-0.011-0.001-0.017c-0.004-0.048-0.008-0.094-0.012-0.142c0-0.007,0-0.014,0-0.019c0-0.009,0-0.018-0.001-0.026
	c0-0.009-0.001-0.018-0.002-0.026c-0.003-0.039-0.005-0.077-0.007-0.115c-0.005-0.077-0.009-0.154-0.012-0.231
	c0-0.023-0.001-0.047-0.001-0.07c-0.006-0.243-0.002-0.489,0.013-0.733C4.609,9.445,4.63,9.23,4.658,9.017
	c0.041-0.295,0.096-0.59,0.166-0.88C4.891,7.864,4.97,7.595,5.063,7.331C5.074,7.338,5.087,7.346,5.1,7.353
	c0.005,0.003,0.01,0.005,0.016,0.007C5.124,7.334,5.13,7.31,5.122,7.284c-0.007-0.019,0.019-0.03,0.033-0.019
	C5.157,7.268,5.159,7.27,5.162,7.271C5.175,7.254,5.19,7.238,5.206,7.224c0,0,0,0,0.001-0.001C5.208,7.222,5.21,7.221,5.211,7.22
	C5.229,7.204,5.25,7.19,5.271,7.178c0.017-0.01,0.033-0.021,0.048-0.032c0.022-0.015,0.046-0.03,0.069-0.044
	c0.096-0.063,0.191-0.126,0.286-0.19c0.104-0.07,0.208-0.14,0.314-0.208c0.002,0,0.002-0.001,0.004-0.002
	c0.004-0.002,0.01-0.005,0.016-0.007C6.049,6.675,6.09,6.656,6.132,6.637c0.188-0.084,0.373-0.174,0.561-0.258
	c0.143-0.058,0.285-0.116,0.424-0.181c0.066-0.031,0.131-0.063,0.198-0.096c0.031-0.015,0.063-0.031,0.094-0.045
	c0.073-0.03,0.147-0.061,0.22-0.094c0.002,0,0.005-0.002,0.006-0.003C7.677,5.946,7.718,5.931,7.76,5.917
	C7.842,5.892,7.924,5.864,8.007,5.84c0.086-0.025,0.172-0.046,0.259-0.067c0.069-0.016,0.139-0.031,0.208-0.043
	c0.02,0.008,0.037,0.015,0.056,0.023c0.522,0.221,1.022,0.495,1.491,0.813c0.153,0.104,0.304,0.212,0.452,0.326
	c0.034,0.026,0.067,0.053,0.102,0.081c0.179,0.142,0.349,0.291,0.515,0.446c0.082,0.077,0.162,0.155,0.239,0.234
	c0.002,0.001,0.003,0.002,0.004,0.004c0.005,0.003,0.009,0.008,0.012,0.011s0.008,0.006,0.01,0.01
	c0.002,0.002,0.004,0.003,0.007,0.006c0.124,0.127,0.245,0.259,0.362,0.395c0.031,0.036,0.062,0.07,0.091,0.106
	c0,0.079,0,0.159,0,0.239c0,0.097-0.002,0.193-0.005,0.29c-0.002,0.095-0.008,0.19-0.017,0.285
	c-0.003,0.026-0.006,0.052-0.009,0.078c-0.005,0.042-0.01,0.083-0.017,0.123c-0.009,0.049-0.017,0.098-0.026,0.147
	c-0.019,0.098-0.038,0.197-0.056,0.295c-0.011,0.05-0.02,0.1-0.027,0.149c-0.009,0.049-0.02,0.099-0.026,0.148
	c-0.007,0.055-0.015,0.107-0.022,0.163c-0.008,0.057-0.015,0.115-0.021,0.173c-0.012,0.092-0.021,0.186-0.029,0.28
	c-0.009,0.094-0.02,0.187-0.03,0.28c-0.012,0.1-0.022,0.199-0.035,0.299c-0.013,0.104-0.025,0.206-0.036,0.31
	c-0.005,0.039-0.009,0.08-0.013,0.12c-0.004,0.028-0.006,0.057-0.008,0.084c-0.003,0.019-0.006,0.038-0.006,0.058
	c-0.001,0.023-0.002,0.048-0.004,0.07c0,0.005,0,0.009,0,0.013c-0.018,0.014-0.037,0.026-0.056,0.041
	c-0.014,0-0.028,0.001-0.043,0.003c-0.021,0.003-0.042,0.019-0.055,0.037c-0.006,0.011-0.012,0.021-0.014,0.031
	c0,0.003,0,0.004,0,0.004c-0.052,0.035-0.104,0.07-0.156,0.105c-0.106,0.068-0.214,0.136-0.323,0.199
	c-0.018,0.011-0.033,0.02-0.052,0.029c-0.28,0.163-0.572,0.309-0.869,0.438c-0.018,0.008-0.035,0.016-0.051,0.021
	c-0.595,0.25-1.214,0.44-1.849,0.552C7.84,13.271,7.719,13.288,7.598,13.306C7.599,13.306,7.599,13.306,7.598,13.306L7.598,13.306z
	 M5.622,1.075c0.354-0.147,0.716-0.272,1.085-0.374c0.365-0.1,0.737-0.173,1.112-0.225C8.201,0.426,8.584,0.4,8.97,0.4
	c0.39,0,0.78,0.025,1.166,0.076c0.379,0.053,0.755,0.13,1.124,0.231c0.201,0.055,0.401,0.118,0.597,0.188
	c-0.002,0.005-0.004,0.011-0.007,0.016c-0.003,0.01-0.004,0.019-0.005,0.029c-0.003,0.02-0.002,0.039,0,0.059
	c0.003,0.042,0.011,0.083,0.021,0.126c0.004,0.015,0.009,0.03,0.013,0.045c0.003,0.013,0.007,0.027,0.013,0.041
	c0.018,0.056,0.037,0.111,0.058,0.166c0.013,0.028,0.024,0.056,0.036,0.082c0.014,0.025,0.025,0.049,0.041,0.072
	c0.023,0.036,0.053,0.07,0.081,0.103h-0.015c-0.141,0-0.281,0.004-0.421,0.01c-0.284,0.013-0.566,0.041-0.848,0.082
	C10.27,1.803,9.725,1.938,9.199,2.123C9.052,2.174,8.907,2.23,8.765,2.289c-0.009-0.006-0.02-0.009-0.032-0.009
	c-0.014,0-0.028,0.005-0.038,0.016c-0.004,0.006-0.01,0.012-0.016,0.02c0,0.002-0.002,0.005-0.004,0.008
	C8.631,2.313,8.586,2.305,8.541,2.295C8.473,2.279,8.405,2.264,8.338,2.249C8.324,2.246,8.312,2.243,8.299,2.24
	C8.253,2.227,8.208,2.212,8.162,2.198C8.099,2.18,8.033,2.162,7.968,2.145C7.9,2.128,7.832,2.11,7.763,2.095
	c-0.065-0.014-0.13-0.027-0.197-0.038C7.489,2.044,7.41,2.034,7.33,2.025C7.261,2.018,7.192,2.013,7.124,2.007
	C6.985,1.996,6.847,1.984,6.708,1.976C6.573,1.97,6.439,1.966,6.306,1.961C6.256,1.959,6.207,1.958,6.157,1.958h-0.01
	c-0.042,0-0.083,0.002-0.126,0.004C6.002,1.963,5.982,1.966,5.963,1.967c-0.015,0-0.03,0.001-0.045,0.003
	c-0.05-0.004-0.101-0.009-0.151-0.014C5.663,1.947,5.558,1.939,5.452,1.932C5.449,1.931,5.446,1.929,5.443,1.928
	c0,0-0.002-0.001-0.003-0.001C5.435,1.888,5.43,1.848,5.426,1.809c-0.01-0.087-0.018-0.174-0.025-0.262
	C5.392,1.426,5.383,1.304,5.379,1.182C5.459,1.145,5.541,1.109,5.622,1.075z M1.043,5.654c0.142-0.335,0.306-0.661,0.488-0.976
	c0.187-0.322,0.396-0.632,0.622-0.927c0.222-0.285,0.46-0.556,0.714-0.812C3.13,2.673,3.412,2.424,3.708,2.195
	c0.298-0.229,0.609-0.438,0.933-0.629c0.217-0.126,0.439-0.243,0.667-0.35C5.313,1.326,5.32,1.437,5.329,1.547
	c0.008,0.088,0.018,0.175,0.028,0.262c0.004,0.039,0.009,0.078,0.015,0.118c-0.027,0-0.049,0.027-0.049,0.053
	c0,0.005,0.001,0.01,0.001,0.014C5.319,1.999,5.314,2.003,5.31,2.006c-0.004,0.003-0.007,0.006-0.01,0.009
	C5.288,2.02,5.275,2.025,5.265,2.034C5.25,2.042,5.236,2.053,5.222,2.063C5.201,2.081,5.18,2.099,5.159,2.116
	C5.115,2.151,5.072,2.189,5.031,2.227C4.948,2.304,4.87,2.386,4.794,2.471c-0.154,0.172-0.296,0.353-0.44,0.535
	c-0.071,0.09-0.142,0.18-0.211,0.272C4.077,3.364,4.012,3.452,3.946,3.539c-0.07,0.092-0.141,0.185-0.211,0.278
	C3.702,3.859,3.669,3.902,3.637,3.945C3.599,3.998,3.561,4.05,3.523,4.103c-0.011,0.014-0.02,0.028-0.029,0.042
	C3.474,4.177,3.453,4.209,3.432,4.239c-0.017,0.027-0.035,0.053-0.052,0.08C3.374,4.327,3.369,4.336,3.363,4.345
	C3.33,4.403,3.296,4.462,3.263,4.52C3.241,4.556,3.222,4.592,3.201,4.628C3.215,4.622,3.229,4.616,3.242,4.61
	c0.024-0.009,0.034,0.028,0.011,0.037C3.225,4.659,3.197,4.671,3.17,4.684C3.162,4.7,3.151,4.715,3.143,4.731
	C3.134,4.748,3.135,4.769,3.144,4.784C3.133,4.791,3.122,4.796,3.111,4.803C3.108,4.804,3.105,4.805,3.103,4.806l0,0
	C3.102,4.804,3.101,4.802,3.1,4.8C3.09,4.788,3.081,4.775,3.072,4.763C3.051,4.768,3.03,4.768,3.01,4.765
	c-0.002,0.005-0.006,0.01-0.011,0.013C2.995,4.781,2.99,4.783,2.986,4.784c0.013,0.02,0.028,0.04,0.042,0.059
	C3.013,4.851,2.997,4.858,2.981,4.866C2.973,4.871,2.965,4.875,2.956,4.879c-0.008-0.007-0.019-0.011-0.03-0.011
	c-0.008,0-0.018,0.002-0.026,0.007C2.875,4.888,2.848,4.902,2.822,4.918C2.794,4.935,2.767,4.951,2.738,4.969
	C2.686,5.001,2.633,5.035,2.581,5.068C2.475,5.137,2.37,5.208,2.267,5.282c-0.21,0.149-0.413,0.307-0.61,0.474
	C1.462,5.92,1.275,6.092,1.096,6.272C1.008,6.361,0.92,6.452,0.837,6.544c-0.042,0.046-0.083,0.092-0.124,0.14
	C0.699,6.701,0.685,6.718,0.671,6.735C0.77,6.366,0.896,6.006,1.043,5.654z M0.417,9.874c-0.01-0.096-0.019-0.191-0.025-0.285
	c-0.014-0.198-0.02-0.396-0.021-0.594c0-0.385,0.024-0.771,0.074-1.154c0.041-0.285,0.093-0.567,0.16-0.846
	C0.629,6.964,0.654,6.934,0.68,6.905c0.04-0.049,0.081-0.095,0.122-0.142c0.042-0.046,0.083-0.093,0.124-0.14
	C1.01,6.531,1.097,6.439,1.184,6.349c0.088-0.089,0.177-0.177,0.269-0.263C1.65,5.9,1.857,5.725,2.071,5.56
	C2.211,5.451,2.354,5.348,2.5,5.249c0.07-0.049,0.141-0.095,0.213-0.14C2.71,5.113,2.707,5.118,2.704,5.123
	c-0.003,0.007-0.004,0.014,0,0.021c0.002,0.002,0.004,0.005,0.008,0.007c0.004,0.001,0.011,0.003,0.016,0.001
	c0.013-0.005,0.025-0.01,0.039-0.016C2.778,5.13,2.79,5.122,2.802,5.114C2.811,5.11,2.818,5.104,2.825,5.1
	c0.018-0.012,0.036-0.023,0.053-0.035C2.911,5.043,2.944,5.022,2.976,5C3.007,4.977,3.04,4.956,3.072,4.934
	c0.005-0.004,0.01-0.006,0.015-0.01C3.09,4.928,3.093,4.931,3.096,4.936c0.041,0.056,0.082,0.112,0.123,0.168
	C3.251,5.15,3.284,5.197,3.317,5.243C3.358,5.3,3.4,5.358,3.442,5.415c0.071,0.097,0.145,0.191,0.217,0.287
	c0.037,0.05,0.076,0.099,0.111,0.149c0.038,0.052,0.075,0.104,0.113,0.157C3.96,6.12,4.038,6.231,4.117,6.339
	C4.158,6.395,4.2,6.449,4.241,6.503c0.019,0.025,0.04,0.051,0.06,0.075C4.317,6.6,4.335,6.622,4.353,6.643
	c0.087,0.102,0.175,0.202,0.264,0.302c0.086,0.096,0.177,0.189,0.279,0.267c0.029,0.023,0.06,0.044,0.089,0.066
	C4.981,7.289,4.978,7.301,4.974,7.312c-0.051,0.143-0.097,0.287-0.14,0.432c-0.085,0.29-0.156,0.585-0.21,0.882
	c-0.106,0.578-0.154,1.166-0.143,1.753c0.001,0.086,0.004,0.173,0.008,0.26c0.002,0.048,0.004,0.095,0.007,0.146
	c0.001,0.023,0.002,0.05,0.005,0.075c0.001,0.008,0.002,0.016,0.004,0.025c0.002,0.024,0.004,0.05,0.006,0.074
	c0.003,0.031,0.005,0.06,0.009,0.09c-0.035,0.025-0.069,0.051-0.104,0.078c-0.007,0.001-0.013,0.003-0.02,0.007
	c-0.049,0.034-0.099,0.067-0.146,0.101c-0.052,0.038-0.103,0.079-0.153,0.118l0,0c-0.039,0.029-0.076,0.059-0.116,0.085
	c-0.024,0.019-0.049,0.034-0.074,0.053c-0.024,0.018-0.051,0.03-0.076,0.048c-0.042,0.025-0.085,0.054-0.126,0.082
	c-0.052,0.034-0.102,0.068-0.151,0.102c-0.047,0.032-0.091,0.065-0.136,0.099c-0.019,0.014-0.037,0.027-0.056,0.041
	c-0.021,0.016-0.042,0.031-0.063,0.045c-0.028,0.021-0.055,0.039-0.082,0.059c-0.016,0.011-0.033,0.021-0.049,0.033
	c-0.047,0.029-0.094,0.06-0.143,0.087c-0.048,0.027-0.097,0.057-0.147,0.082c-0.05,0.027-0.1,0.056-0.15,0.084
	c-0.032,0.017-0.063,0.035-0.094,0.053c-0.002-0.009-0.005-0.017-0.011-0.021c-0.009-0.007-0.02-0.012-0.031-0.012
	c-0.012,0-0.023,0.005-0.031,0.012c-0.028,0.03-0.055,0.06-0.084,0.088c-0.013,0.01-0.023,0.023-0.037,0.034
	c-0.008,0.008-0.015,0.013-0.023,0.018c-0.018,0.011-0.036,0.021-0.053,0.031c-0.01,0.002-0.015,0.013-0.017,0.022
	c-0.005,0.004-0.009,0.007-0.014,0.01c-0.002,0.001-0.004,0.005-0.007,0.006c-0.011-0.023-0.021-0.047-0.033-0.071
	c-0.006-0.013-0.022-0.025-0.038-0.029c-0.004-0.002-0.011-0.002-0.017-0.002c-0.011,0-0.022,0.002-0.032,0.008
	c-0.002,0.002-0.004,0.004-0.006,0.006c-0.018-0.018-0.034-0.032-0.051-0.05c-0.007-0.007-0.015-0.011-0.022-0.014
	c-0.168-0.173-0.331-0.353-0.484-0.54c-0.047-0.058-0.092-0.114-0.138-0.173c0,0,0,0,0.001,0c-0.001,0-0.001-0.002-0.001-0.002l0,0
	c0,0-0.001-0.001-0.001-0.001l0,0h0c0,0,0,0,0,0c0,0,0,0,0,0l0,0c0-0.001,0-0.001,0-0.001l0,0l0,0c0,0,0,0-0.001,0l0,0l0,0l0,0l0,0
	c-0.354-0.46-0.663-0.953-0.919-1.473c-0.014-0.028-0.027-0.056-0.041-0.083c-0.005-0.01-0.015-0.018-0.024-0.021
	C0.494,9.994,0.469,9.94,0.445,9.889C0.44,9.878,0.429,9.874,0.417,9.874L0.417,9.874z M3.692,15.766
	c-0.278-0.219-0.542-0.452-0.792-0.701c-0.265-0.263-0.512-0.544-0.741-0.841c-0.223-0.29-0.427-0.592-0.612-0.908
	c-0.19-0.321-0.357-0.656-0.503-1c-0.145-0.348-0.267-0.701-0.367-1.063c-0.101-0.366-0.175-0.738-0.228-1.115
	c-0.005-0.041-0.011-0.084-0.016-0.125c0.009,0.021,0.019,0.04,0.028,0.062c0,0.001-0.001,0.002-0.001,0.003
	c-0.004,0.014-0.001,0.024,0.004,0.035c0.252,0.523,0.554,1.022,0.904,1.485c0.062,0.083,0.127,0.165,0.192,0.245
	c0.01,0.011,0.019,0.022,0.028,0.033c0.006,0.008,0.011,0.014,0.017,0.021c0.078,0.098,0.159,0.189,0.241,0.283
	c0.069,0.077,0.139,0.155,0.21,0.229c0.003,0.008,0.008,0.018,0.014,0.023c0.025,0.027,0.05,0.054,0.075,0.081
	c0.019,0.018,0.038,0.036,0.056,0.054c0,0.003,0,0.005,0.001,0.009c0.002,0.016,0.005,0.03,0.009,0.045
	c0.004,0.017,0.009,0.032,0.014,0.049c0.006,0.017,0.013,0.036,0.02,0.053c0.012,0.03,0.022,0.059,0.033,0.087
	c0.015,0.039,0.031,0.078,0.047,0.117c0.041,0.099,0.082,0.197,0.124,0.296c0.015,0.032,0.029,0.065,0.043,0.1
	c0.026,0.058,0.052,0.114,0.078,0.175c0.013,0.031,0.027,0.062,0.042,0.091c0.027,0.056,0.055,0.113,0.082,0.169
	c0.016,0.03,0.03,0.063,0.047,0.094c0.03,0.054,0.06,0.11,0.09,0.164c0.02,0.036,0.041,0.07,0.062,0.105
	c0.022,0.037,0.043,0.072,0.063,0.108c0.102,0.163,0.202,0.329,0.301,0.495c0.052,0.088,0.103,0.176,0.155,0.264
	c0.05,0.084,0.102,0.165,0.157,0.245c0.044,0.063,0.089,0.127,0.134,0.19c0.021,0.029,0.042,0.059,0.063,0.088
	c0.011,0.017,0.022,0.031,0.034,0.048c0.011,0.017,0.022,0.03,0.034,0.046c-0.002,0.003-0.005,0.005-0.007,0.006
	c-0.026,0.027-0.051,0.056-0.075,0.084C3.73,15.717,3.71,15.741,3.692,15.766z M8.97,17.578H8.955c-0.378,0-0.754-0.026-1.128-0.074
	c-0.374-0.053-0.744-0.128-1.109-0.225c-0.369-0.1-0.729-0.227-1.081-0.372c-0.347-0.148-0.685-0.318-1.01-0.51
	c-0.293-0.171-0.576-0.36-0.846-0.564c0.017-0.021,0.032-0.04,0.048-0.059c0.013-0.015,0.027-0.032,0.04-0.046
	c0.024-0.027,0.05-0.053,0.077-0.075c0.014-0.01,0.027-0.02,0.042-0.028c0.034,0.026,0.069,0.047,0.107,0.068
	c0.044,0.021,0.089,0.042,0.136,0.063c0.048,0.028,0.1,0.053,0.149,0.081c0.019,0.01,0.038,0.021,0.058,0.031
	c0.035,0.017,0.069,0.031,0.104,0.05c0.023,0.011,0.045,0.021,0.07,0.033c0.037,0.015,0.074,0.029,0.11,0.043
	c0.02,0.009,0.039,0.017,0.059,0.022c0.04,0.015,0.079,0.027,0.118,0.042c0.058,0.021,0.117,0.034,0.175,0.052
	c0.023,0.006,0.046,0.01,0.067,0.016c0.033,0.007,0.065,0.015,0.099,0.022c0.059,0.014,0.12,0.028,0.179,0.042
	c0.118,0.029,0.236,0.06,0.355,0.089c0.014,0.003,0.03,0.007,0.043,0.01c0.014,0.003,0.028,0.006,0.044,0.008
	c0.032,0.006,0.065,0.012,0.098,0.017c0.062,0.011,0.124,0.019,0.184,0.028c0.121,0.015,0.243,0.025,0.365,0.028
	c0.125,0.002,0.25,0.004,0.375,0.009c0.082,0.002,0.164,0.007,0.246,0.009c0.028,0.001,0.054-0.021,0.061-0.046
	c0.011,0,0.021-0.002,0.033-0.002c0.003,0.006,0.008,0.012,0.015,0.015c0.01,0.007,0.022,0.009,0.033,0.006
	c0.012-0.004,0.023-0.014,0.029-0.025c0.019-0.002,0.039-0.003,0.058-0.005c0.261,0.171,0.53,0.328,0.806,0.473
	c0.447,0.229,0.915,0.424,1.396,0.576c0.158,0.05,0.317,0.095,0.479,0.135C9.681,17.556,9.326,17.578,8.97,17.578z M10.033,17.369
	c-0.007-0.002-0.015-0.004-0.021-0.007c0.01,0,0.018,0,0.028-0.002C10.037,17.362,10.035,17.365,10.033,17.369z M11.508,17.055
	c-0.011,0-0.021,0-0.031,0c-0.023,0-0.045,0.002-0.066,0.003c-0.006-0.003-0.013-0.005-0.02-0.006
	c0.031-0.011,0.063-0.021,0.094-0.03c0.008-0.004,0.015-0.005,0.024-0.008C11.504,17.026,11.504,17.041,11.508,17.055z M13.621,15.5
	c-0.029,0.1-0.061,0.197-0.093,0.296c-0.003,0.01-0.007,0.019-0.01,0.027c-0.374,0.258-0.767,0.486-1.176,0.685
	c-0.125,0.061-0.251,0.116-0.378,0.171c0.004-0.002,0.008-0.003,0.011-0.005c-0.004,0.003-0.009,0.005-0.014,0.007
	c-0.001,0-0.003,0.001-0.004,0.001c0,0,0.003,0,0.004-0.001c-0.576,0.241-1.177,0.419-1.788,0.536
	c-0.009,0.001-0.018,0.006-0.024,0.012c-0.004,0.002-0.007,0.004-0.01,0.005c-0.08,0.015-0.16,0.027-0.239,0.041
	c-0.012,0.002-0.026,0.014-0.032,0.022c-0.005,0.009-0.007,0.018-0.007,0.026c-0.358-0.099-0.711-0.222-1.054-0.368
	C8.354,16.764,7.916,16.53,7.5,16.263c0.001-0.008,0.001-0.017-0.001-0.024c-0.002-0.008-0.006-0.015-0.013-0.022
	c0-0.018-0.004-0.035-0.013-0.052c-0.012-0.02-0.025-0.035-0.043-0.047c-0.017-0.01-0.033-0.017-0.051-0.021
	c-0.019-0.003-0.037-0.003-0.055-0.005c-0.01,0-0.019,0-0.028-0.002c0.001-0.016,0.003-0.035,0.005-0.052
	c0.009-0.062,0.02-0.122,0.031-0.184c0.013-0.062,0.027-0.122,0.04-0.186c0.026-0.125,0.047-0.251,0.071-0.376
	c0.025-0.131,0.051-0.263,0.085-0.392c0.033-0.128,0.071-0.255,0.111-0.38c0.041-0.125,0.087-0.247,0.126-0.373
	c0.02-0.061,0.036-0.123,0.052-0.185c0-0.002,0-0.003,0.002-0.005c0-0.156,0.002-0.31,0.021-0.465
	c-0.006-0.003-0.013-0.007-0.018-0.011c-0.001-0.002-0.001-0.003-0.002-0.003c-0.003-0.004-0.006-0.007-0.01-0.01
	c-0.003-0.003-0.007-0.003-0.012-0.003c-0.001,0-0.002,0-0.003,0c-0.026-0.017-0.052-0.032-0.078-0.047
	c0.278-0.042,0.554-0.099,0.828-0.168c0.312-0.077,0.619-0.173,0.921-0.285c0.304-0.113,0.604-0.246,0.894-0.394
	c0.372-0.189,0.733-0.405,1.075-0.645c0.002,0.016,0.003,0.029,0.004,0.044c0,0.002,0.002,0.003,0.002,0.005
	c0.022-0.008,0.045-0.015,0.067-0.023c0-0.01-0.001-0.021-0.002-0.031c0.002,0.002,0.005,0.002,0.009,0.003
	c0.011,0.003,0.021,0.008,0.033,0.012c0.016-0.006,0.032-0.012,0.046-0.016c0.024-0.009,0.034,0.028,0.011,0.036
	c-0.001,0-0.002,0-0.002,0.002c0.006,0.002,0.012,0.004,0.018,0.006c0.058,0.025,0.115,0.049,0.172,0.075
	c0.066,0.031,0.134,0.063,0.201,0.093c0.021,0.011,0.045,0.021,0.069,0.032c0,0,0.002,0.002,0.003,0.002
	c0.101,0.047,0.201,0.093,0.301,0.141c0.03,0.015,0.062,0.032,0.092,0.047c0.023,0.014,0.046,0.023,0.068,0.037
	c0.063,0.037,0.124,0.072,0.187,0.11c0.122,0.072,0.243,0.145,0.365,0.221c0.027,0.017,0.055,0.036,0.08,0.054
	c0.022,0.016,0.046,0.029,0.066,0.045c0.05,0.035,0.101,0.072,0.148,0.108c0.027,0.019,0.052,0.039,0.077,0.06
	s0.05,0.043,0.074,0.063c0.053,0.044,0.104,0.089,0.155,0.132c0.054,0.044,0.108,0.087,0.165,0.128
	c0.026,0.018,0.054,0.038,0.081,0.054c0.026,0.017,0.055,0.034,0.083,0.048c0.002,0.001,0.004,0.001,0.004,0.001
	c0,0.01,0,0.019,0,0.028c-0.003,0.022-0.004,0.047-0.005,0.072c-0.004,0.049-0.01,0.101-0.014,0.15
	c-0.007,0.067-0.013,0.132-0.018,0.198c-0.003,0.033-0.005,0.067-0.009,0.102c-0.004,0.031-0.007,0.061-0.012,0.093
	c-0.008,0.045-0.016,0.091-0.024,0.137c-0.012,0.053-0.022,0.105-0.035,0.158c-0.023,0.101-0.042,0.202-0.063,0.302
	c-0.018,0.09-0.034,0.179-0.057,0.269c-0.012,0.051-0.024,0.104-0.038,0.154c-0.014,0.053-0.028,0.104-0.042,0.153
	C13.672,15.324,13.646,15.412,13.621,15.5z M17.27,11.236c-0.098,0.365-0.223,0.723-0.369,1.071
	c-0.146,0.341-0.312,0.674-0.499,0.995c-0.189,0.327-0.403,0.641-0.635,0.941c-0.224,0.287-0.465,0.558-0.721,0.817
	c-0.263,0.263-0.542,0.508-0.835,0.734c-0.037,0.029-0.073,0.056-0.11,0.084c-0.025-0.011-0.056-0.015-0.082-0.021
	c-0.031-0.007-0.062-0.015-0.091-0.021c-0.041-0.01-0.08-0.021-0.121-0.031c0.002-0.003,0.003-0.006,0.004-0.011
	c0.007-0.02,0.004-0.043-0.008-0.062c-0.011-0.021-0.028-0.033-0.049-0.038c-0.008-0.002-0.015-0.003-0.022-0.003
	c-0.009,0-0.018,0.001-0.024,0.003c0.003-0.013,0.007-0.024,0.011-0.035c0.006-0.024,0.011-0.047,0.017-0.069
	c0.046-0.118,0.09-0.236,0.13-0.358c0.049-0.143,0.093-0.286,0.135-0.433c0.03-0.112,0.057-0.226,0.084-0.338
	c0.017-0.063,0.032-0.126,0.044-0.191c0.062-0.272,0.107-0.55,0.141-0.828c0.004,0,0.007-0.002,0.01-0.005
	c0.007-0.003,0.014-0.009,0.021-0.015c0.005-0.005,0.01-0.01,0.014-0.017c0.008-0.007,0.016-0.014,0.023-0.021
	c0.019-0.018,0.036-0.032,0.054-0.049c0.008-0.007,0.008-0.017,0.003-0.024c0.002-0.001,0.004-0.005,0.006-0.008
	c0.035-0.044,0.071-0.085,0.104-0.129c0.071-0.094,0.144-0.188,0.215-0.282c0.057-0.077,0.115-0.154,0.172-0.229
	c0,0,0,0-0.001,0.002c0-0.002,0.001-0.002,0.001-0.002c0.001,0,0.003-0.002,0.003-0.003c0.001,0,0.001,0,0.001-0.002
	c0,0.002,0,0.002-0.001,0.002c0.001-0.002,0.003-0.002,0.003-0.003l0,0v-0.002l0,0c0.038-0.048,0.074-0.094,0.112-0.142l0,0l0,0l0,0
	l0,0l0,0l0,0v-0.001c0.001,0,0.001-0.002,0.002-0.002l0,0l0,0l0,0l0,0l0,0l0,0l0,0l0,0v-0.001l0,0l0,0l0,0h0.001l0,0l0,0l0,0l0,0
	v-0.002l0,0c0,0,0,0,0.001,0l0,0l0,0l0,0c0,0,0,0,0.001-0.001l0,0l0,0c0-0.003,0-0.003,0-0.003l0,0h0.001
	c0.001,0,0.002-0.001,0.002-0.001l0,0c0.034-0.047,0.069-0.091,0.105-0.138c-0.001,0.002-0.001,0.002-0.001,0.002
	c0-0.002,0.001-0.002,0.001-0.002l0,0c0.001-0.002,0.002-0.002,0.003-0.003l0,0c0-0.002,0.002-0.004,0.004-0.005
	c0.034-0.044,0.068-0.091,0.104-0.136c0.001-0.001,0.001-0.001,0.002-0.003l0,0c0,0,0.001,0,0.001-0.001c0,0,0,0,0.001,0l0,0l0,0
	l0,0l0,0c-0.002,0.001-0.004,0.004-0.007,0.006c0.037-0.047,0.072-0.093,0.109-0.14c0,0,0,0-0.001,0
	c0.001,0,0.003-0.002,0.003-0.003c0,0,0,0,0-0.002c0,0.003-0.002,0.005-0.003,0.006c0.134-0.172,0.269-0.345,0.401-0.52
	c0.066-0.091,0.135-0.181,0.203-0.272c0.061-0.08,0.123-0.16,0.185-0.241c0.064-0.083,0.128-0.165,0.191-0.251
	c0.066-0.087,0.132-0.177,0.194-0.269c0.055-0.076,0.104-0.15,0.16-0.225c0.004-0.009,0.008-0.019,0.01-0.028
	c0.061,0.004,0.121,0.008,0.182,0.01c0.113,0.007,0.227,0.008,0.34,0.008h0.022c0.001,0,0.002,0,0.002,0c0.019,0,0.036,0,0.055,0
	c0.04,0,0.082,0,0.122-0.003c0.015,0,0.026-0.007,0.035-0.018c0.012,0,0.022-0.001,0.033-0.001
	C17.422,10.6,17.355,10.92,17.27,11.236z M17.565,9.245c-0.002,0.101-0.008,0.203-0.013,0.304c-0.014,0.198-0.034,0.395-0.061,0.591
	c-0.004,0.028-0.008,0.057-0.011,0.082c-0.016,0.002-0.029,0.002-0.044,0.002c-0.008-0.01-0.021-0.016-0.033-0.016
	c-0.037,0-0.077,0-0.115,0.002c-0.021,0-0.041,0-0.063,0l0,0c-0.008,0-0.016,0-0.023,0c-0.111,0-0.222-0.002-0.332-0.003
	c-0.062-0.004-0.123-0.007-0.185-0.01c-0.021,0-0.041-0.001-0.063-0.003c-0.007,0-0.012-0.002-0.018-0.002
	c-0.003,0-0.005,0-0.008,0.002c0-0.002-0.001-0.002-0.001-0.002c-0.01,0-0.021,0-0.03-0.002c-0.006-0.026-0.013-0.052-0.02-0.078
	c-0.002-0.009-0.005-0.019-0.007-0.029c0-0.005,0-0.009-0.001-0.015c-0.002-0.007-0.004-0.016-0.007-0.021
	c-0.007-0.026-0.014-0.056-0.021-0.085c-0.021-0.103-0.039-0.206-0.057-0.309c-0.005-0.026-0.011-0.054-0.016-0.08
	c-0.005-0.029-0.01-0.056-0.016-0.084C16.416,9.459,16.409,9.43,16.402,9.4c-0.007-0.027-0.014-0.054-0.02-0.082
	c-0.013-0.047-0.026-0.095-0.04-0.142c-0.018-0.052-0.034-0.104-0.054-0.154c-0.02-0.053-0.038-0.107-0.06-0.159
	c-0.021-0.053-0.044-0.106-0.066-0.159c-0.04-0.097-0.082-0.193-0.127-0.287c-0.024-0.05-0.046-0.1-0.068-0.148
	c-0.016-0.032-0.03-0.063-0.046-0.093c-0.01-0.019-0.018-0.037-0.026-0.055c-0.026-0.048-0.049-0.096-0.076-0.142
	c-0.023-0.042-0.046-0.083-0.069-0.123c-0.003-0.006-0.006-0.012-0.009-0.017c-0.023-0.045-0.049-0.09-0.072-0.134
	c-0.012-0.021-0.024-0.041-0.036-0.062c-0.011-0.02-0.022-0.039-0.034-0.058c-0.026-0.042-0.051-0.086-0.078-0.127
	c-0.028-0.043-0.057-0.087-0.086-0.129c-0.031-0.044-0.062-0.088-0.094-0.131c-0.016-0.021-0.031-0.042-0.049-0.063
	c-0.004-0.012-0.011-0.022-0.015-0.033c-0.022-0.051-0.043-0.1-0.063-0.15c-0.007-0.016-0.014-0.031-0.021-0.045
	c-0.004-0.012-0.01-0.021-0.019-0.027c-0.002,0-0.003-0.001-0.006-0.002c0.01-0.072,0.018-0.145,0.025-0.218
	c0.029-0.26,0.046-0.523,0.051-0.785c0.009-0.531-0.029-1.063-0.116-1.587c-0.017-0.093-0.033-0.187-0.052-0.278
	c0.006-0.001,0.013-0.004,0.018-0.008c0.029-0.02,0.06-0.039,0.092-0.053c0.098-0.038,0.201-0.054,0.303-0.068
	c0.084-0.008,0.169-0.014,0.254-0.019c0.04-0.003,0.082-0.006,0.121-0.009c0.198,0.265,0.381,0.541,0.548,0.827
	c0.184,0.315,0.347,0.643,0.49,0.979c0.145,0.346,0.267,0.7,0.366,1.061c0.1,0.361,0.175,0.728,0.226,1.1
	c0.051,0.379,0.076,0.761,0.078,1.143C17.573,9.056,17.568,9.15,17.565,9.245z"/>
<path fill="#161616" d="M14.936,3.386c-0.007-0.007-0.013-0.015-0.02-0.021c0,0-0.001,0-0.001-0.001
	C14.922,3.371,14.929,3.377,14.936,3.386z"/>
<polygon fill="#161616" points="16.416,10.182 16.416,10.182 16.414,10.175 "/>
<path fill="#161616" d="M15.11,7.259c-0.001,0.01-0.005,0.019-0.006,0.03C15.105,7.278,15.109,7.269,15.11,7.259
	C15.11,7.259,15.11,7.259,15.11,7.259z"/>
<polygon fill="#161616" points="14.284,13.353 14.276,13.362 14.276,13.362 "/>
</svg>
