<?xml version="1.0" encoding="utf-8"?>
<!-- Generator: Adobe Illustrator 16.0.0, SVG Export Plug-In . SVG Version: 6.00 Build 0)  -->
<!DOCTYPE svg PUBLIC "-//W3C//DTD SVG 1.1//EN" "http://www.w3.org/Graphics/SVG/1.1/DTD/svg11.dtd">
<svg version="1.1" id="Layer_1" xmlns="http://www.w3.org/2000/svg" xmlns:xlink="http://www.w3.org/1999/xlink" x="0px" y="0px"
	 width="23px" height="21px" viewBox="0 0 23 21" enable-background="new 0 0 23 21" xml:space="preserve">
<path fill="#FFFFFF" d="M22,0.083H1c-0.6,0-1,0.438-1,1.097v18.64c0,0.657,0.4,1.097,1,1.097h21c0.6,0,1-0.439,1-1.097V1.18
	C23,0.521,22.6,0.083,22,0.083z M2,7.868C3.1,8.087,4,9.184,4,10.5s-0.9,2.413-2,2.631V7.868z M2,18.723v-4.495
	c1.7-0.22,3-1.863,3-3.728c0-1.864-1.3-3.509-3-3.728V2.276h9v4.496c-1.7,0.219-3,1.863-3,3.728c0,1.865,1.3,3.508,3,3.728v4.495H2z
	 M11,13.131c-1.1-0.219-2-1.315-2-2.631s0.9-2.413,2-2.631V13.131z M12,7.868c1.1,0.219,2,1.315,2,2.631s-0.9,2.413-2,2.631V7.868z
	 M21,13.131c-1.1-0.219-2-1.315-2-2.631s0.9-2.413,2-2.631V13.131z M21,6.772c-1.701,0.219-3,1.863-3,3.728
	c0,1.865,1.299,3.508,3,3.728v4.495h-9v-4.495c1.7-0.22,3-1.863,3-3.728c0-1.864-1.301-3.509-3-3.728V2.276h9V6.772z"/>
</svg>
