<?xml version="1.0" encoding="utf-8"?>
<!-- Generator: Adobe Illustrator 16.0.0, SVG Export Plug-In . SVG Version: 6.00 Build 0)  -->
<!DOCTYPE svg PUBLIC "-//W3C//DTD SVG 1.1//EN" "http://www.w3.org/Graphics/SVG/1.1/DTD/svg11.dtd">
<svg version="1.1" id="Layer_1" xmlns="http://www.w3.org/2000/svg" xmlns:xlink="http://www.w3.org/1999/xlink" x="0px" y="0px"
	 width="23px" height="22.918px" viewBox="0 0 23 22.918" enable-background="new 0 0 23 22.918" xml:space="preserve">
<path fill="#B2D6F2" d="M-13.208,15.752c-6.166,0-11.163,4.997-11.163,11.163c0,6.164,4.998,11.162,11.163,11.162
	c6.164,0,11.162-4.998,11.162-11.162C-2.045,20.749-7.043,15.752-13.208,15.752z M-13.227,34.603c-4.26,0-7.714-3.453-7.714-7.715
	c0-4.26,3.454-7.713,7.714-7.713c4.26,0,7.713,3.453,7.713,7.713C-5.514,31.149-8.967,34.603-13.227,34.603z"/>
<path fill="#0078D7" d="M-13.208,17.54c-5.178,0-9.375,4.197-9.375,9.375s4.197,9.373,9.375,9.373c5.178,0,9.373-4.195,9.373-9.373
	S-8.03,17.54-13.208,17.54z M-13.208,34.526c-4.205,0-7.612-3.408-7.612-7.611c0-4.205,3.408-7.612,7.612-7.612
	c4.203,0,7.611,3.407,7.611,7.612C-5.596,31.118-9.004,34.526-13.208,34.526z"/>
<g>
	<path fill="#3489C9" d="M43.932,27.782H38.93c-0.408,0-0.74,0.333-0.74,0.742c0,0.408,0.332,0.739,0.74,0.739h5.002
		c0.406,0,0.556,0.149,0.556,0.556v5.002c0,0.408,0.333,0.741,0.741,0.741c0.409,0,0.742-0.333,0.742-0.741v-5.002
		C45.971,28.595,45.158,27.782,43.932,27.782L43.932,27.782z M43.932,27.782"/>
	<path fill="#3489C9" d="M23.742,35.563c0.408,0,0.74-0.333,0.74-0.741v-5.002c0-0.406,0.186-0.556,0.592-0.556h4.594
		c0.409,0,0.742-0.331,0.742-0.739c0-0.409-0.333-0.742-0.742-0.742h-4.594c-1.225,0-2.074,0.813-2.074,2.037v5.002
		C23,35.229,23.333,35.563,23.742,35.563L23.742,35.563z M23.742,35.563"/>
	<path fill="#3489C9" d="M45.229,42.601c-0.408,0-0.741,0.334-0.741,0.742v4.592c0,0.408-0.149,0.595-0.556,0.595H38.93
		c-0.408,0-0.74,0.331-0.74,0.739c0,0.41,0.332,0.742,0.74,0.742h5.002c1.227,0,2.039-0.848,2.039-2.076v-4.592
		C45.971,42.935,45.638,42.601,45.229,42.601L45.229,42.601z M45.229,42.601"/>
	<path fill="#3489C9" d="M29.668,48.529h-4.594c-0.406,0-0.592-0.187-0.592-0.595v-4.592c0-0.408-0.332-0.742-0.74-0.742
		c-0.409,0-0.742,0.334-0.742,0.742v4.592c0,1.229,0.85,2.076,2.074,2.076h4.594c0.409,0,0.742-0.332,0.742-0.742
		C30.41,48.86,30.077,48.529,29.668,48.529L29.668,48.529z M29.668,48.529"/>
	<path fill="#ABD037" d="M40.042,42.009v-5.52c0-1.227-0.812-2.039-2.038-2.039h-7.001c-1.226,0-2.075,0.813-2.075,2.039v5.52
		c0,1.226,0.85,2.073,2.075,2.073h7.001C39.23,44.082,40.042,43.234,40.042,42.009L40.042,42.009z M38.561,42.009
		c0,0.408-0.147,0.592-0.557,0.592h-7.001c-0.408,0-0.593-0.184-0.593-0.592v-5.52c0-0.407,0.185-0.556,0.593-0.556h7.001
		c0.409,0,0.557,0.148,0.557,0.556V42.009z M38.561,42.009"/>
</g>
<path fill="#EBF0F3" d="M72.084,19.45v-4.867h-4.867v2.03H54.701v-2.03h-4.867v4.867h2.002v12.516h-2.002v4.867h4.867v-2.03h12.516
	v2.03h4.867v-4.867h-2.058V19.45H72.084z M68.023,15.39h3.254v3.254h-3.254V15.39z M50.641,15.39h3.254v3.254h-3.254V15.39z
	 M53.895,36.026h-3.254v-3.254h3.254V36.026L53.895,36.026z M71.277,36.026h-3.254v-3.254h3.254V36.026z M69.22,31.966h-2.003v2.03
	H54.701v-2.03h-2.059V19.45h2.059v-2.03h12.516v2.03h2.003V31.966z"/>
<path fill="#E56353" d="M59.734,22.397h-2.863v-2.029h8.177v2.029h-2.893v8.623h-2.392v-8.623H59.734z"/>
<path fill="#2394BC" d="M16.32,33.333L2.145,47.317c0,0-7.253,2.162-7.584,1.828c-0.332-0.328,1.656-7.758,1.656-7.758
	l14.175-13.982c0.681-0.697,1.779-0.697,2.459,0l3.47,3.486C17.001,31.555,17.001,32.653,16.32,33.333z"/>
<path fill="#44A4C6" d="M-2.545,43.134l15.571-15.572l-0.174-0.174c-0.681-0.68-1.779-0.68-2.459,0.018L-3.766,41.406
	c0,0-0.035,0.139-0.105,0.385L-2.545,43.134L-2.545,43.134z"/>
<path fill="#1F85A9" d="M16.722,32.758c0.243-0.628,0.122-1.378-0.385-1.883l-0.348-0.349l-15.57,15.57l1.36,1.34
	c0.192-0.049,0.314-0.086,0.366-0.103L16.722,32.758z"/>
<path fill="#FFCABA" d="M-5.457,49.097l0.104,0.104c0.82,0.122,7.114-1.742,7.498-1.866l0.018-0.017c0,0-0.401-1.883-0.75-2.216
	c-0.349-0.348-1.866-0.399-2.214-0.732c-0.349-0.348-0.384-1.864-0.75-2.212c-0.349-0.35-2.127-0.716-2.214-0.732
	C-3.766,41.406-5.596,48.224-5.457,49.097L-5.457,49.097z"/>
<path fill="#FFDCD2" d="M-5.475,49.008c0.122-0.209,0.733-1.291,3.906-6.851c-0.349-0.35-2.127-0.716-2.214-0.732
	C-3.766,41.406-5.492,47.857-5.475,49.008z"/>
<path fill="#E5B5A7" d="M-5.475,49.026v0.052l0.105,0.105c0.819,0.12,7.114-1.747,7.498-1.866l0.017-0.017
	c0,0-0.384-1.866-0.732-2.216C-4.358,48.397-5.317,48.939-5.475,49.026z"/>
<path fill="#2394BC" d="M-4.271,47.824c-0.227-0.228-0.593-0.403-0.959-0.437c-0.192,0.977-0.313,1.69-0.209,1.796
	c0.087,0.087,0.75-0.017,1.622-0.211C-3.818,48.538-4.01,48.085-4.271,47.824z"/>
<path fill="#CFD8DC" d="M-32.573,40.926l-2.489,2.521c-0.484,0.489-1.143,0.763-1.828,0.76h-2.417
	c-0.686,0.003-1.343-0.271-1.828-0.76l-3.098-3.125c-1.002-1.021-1.002-2.664,0-3.686l3.708-3.729L-32.573,40.926z"/>
<path fill="#2196F3" d="M-24.313,32.595l-8.261,8.331l-7.952-8.019l8.262-8.332c0.189-0.202,0.505-0.21,0.705-0.02
	c0.007,0.006,0.013,0.014,0.017,0.02l7.229,7.29c0.2,0.191,0.209,0.509,0.02,0.711C-24.3,32.583-24.306,32.589-24.313,32.595z"/>
<path fill="#455A64" d="M-29,46.707h-17.25c-0.265,0-0.479-0.217-0.479-0.482c0-0.268,0.214-0.484,0.479-0.484H-29
	c0.264,0,0.479,0.217,0.479,0.484C-28.521,46.49-28.736,46.707-29,46.707z"/>
<path fill="#FFC61B" d="M-53.628,51.748l-12.832-9.599c-0.389-0.291-0.612-0.737-0.612-1.223c0-0.486,0.224-0.933,0.612-1.225
	l12.832-9.598c0.466-0.35,1.078-0.403,1.599-0.143c0.521,0.26,0.844,0.783,0.844,1.365v2.484c0,0.332-0.269,0.602-0.602,0.602
	c-0.332,0-0.601-0.27-0.601-0.602v-2.484c0-0.181-0.126-0.263-0.18-0.289c-0.055-0.028-0.195-0.08-0.341,0.029l-12.831,9.599
	c-0.113,0.085-0.131,0.199-0.131,0.261c0,0.061,0.018,0.176,0.131,0.26l12.831,9.599c0.146,0.108,0.286,0.058,0.341,0.03
	c0.054-0.028,0.18-0.108,0.18-0.29V38.457c0-0.332,0.27-0.602,0.601-0.602c0.333,0,0.602,0.27,0.602,0.602v12.068
	c0,0.581-0.322,1.104-0.843,1.366c-0.219,0.108-0.453,0.162-0.687,0.162C-53.038,52.054-53.358,51.951-53.628,51.748z"/>
<polygon fill="#FEE187" points="-62.455,40.927 -54.565,46.827 -54.565,35.024 "/>
<path fill="#FFC61B" d="M-54.925,47.309l-7.89-5.9c-0.15-0.114-0.241-0.292-0.241-0.481s0.091-0.369,0.241-0.482l7.891-5.901
	c0.182-0.136,0.425-0.157,0.629-0.057c0.203,0.103,0.332,0.311,0.332,0.538v11.805c0,0.226-0.129,0.435-0.332,0.535
	c-0.085,0.043-0.178,0.064-0.27,0.064C-54.693,47.429-54.819,47.39-54.925,47.309z M-61.451,40.927l6.284,4.699v-9.4L-61.451,40.927
	z"/>
<g>
	<polygon fill="#96AFFF" points="14.311,-21.954 15.9,-18.604 16.545,-19.941 18.875,-21.323 23.468,-11.647 22.334,-9.542 
		28.324,-13.098 26.13,-13.227 21.537,-22.904 23.867,-24.287 25.219,-24.135 23.629,-27.484 	"/>
	<polygon fill="#55D3FA" points="23.911,-24.282 25.219,-24.135 24.916,-24.773 24.768,-24.79 	"/>
</g>
<polygon fill="#96AFFF" points="24.118,-10.602 24.612,-11.519 19.297,-22.575 15.932,-20.583 15.441,-19.569 15.9,-18.604 
	16.545,-19.941 18.875,-21.323 23.468,-11.647 22.334,-9.542 "/>
<path fill="#FFFFFF" d="M36.934-9.483c-0.008-0.036-0.195-0.884-0.768-1.733c-0.536-0.797-1.52-1.745-3.161-1.745
	c-2.968,0-5.292,1.635-7.54,3.217c-2.252,1.585-4.58,3.226-7.583,3.226c-0.949,0-1.79-0.366-2.499-1.09
	c-0.539-0.551-0.798-1.114-0.801-1.118c-0.083-0.186-0.285-0.263-0.452-0.168c-0.167,0.092-0.234,0.319-0.151,0.507
	c0.049,0.106,1.205,2.624,3.903,2.624c3.196,0,5.61-1.698,7.943-3.34c2.266-1.597,4.405-3.103,7.18-3.103
	c1.086,0,1.964,0.478,2.607,1.423c0.495,0.727,0.664,1.471,0.665,1.479c0.045,0.203,0.227,0.327,0.408,0.277
	C36.867-9.077,36.978-9.281,36.934-9.483z"/>
<path d="M15.602-18.427c0.125,0.261,0.471,0.263,0.596,0.002l0.597-1.236l1.941-1.153l4.345,9.155l-1.035,1.92
	c-0.074,0.137-0.063,0.316,0.029,0.438c0.102,0.136,0.278,0.172,0.418,0.09l5.99-3.556c0.137-0.081,0.207-0.261,0.168-0.429
	c-0.037-0.157-0.164-0.272-0.309-0.282l-2.004-0.116l-2.595-5.468c-0.087-0.185-0.292-0.254-0.456-0.157
	c-0.165,0.098-0.228,0.326-0.141,0.511l2.686,5.656c0.055,0.118,0.162,0.193,0.28,0.2l0.978,0.059l-3.838,2.277l0.505-0.937
	c0.062-0.114,0.064-0.256,0.009-0.372L19.174-21.5c-0.088-0.185-0.293-0.254-0.457-0.157l-2.33,1.383
	c-0.059,0.035-0.107,0.088-0.139,0.154l-0.346,0.716l-1.135-2.393l8.722-5.177l1.136,2.393L23.9-24.662
	c-0.066-0.008-0.133,0.007-0.191,0.042l-2.33,1.383c-0.162,0.096-0.227,0.329-0.14,0.511l1.083,2.282
	c0.088,0.185,0.292,0.254,0.457,0.157c0.164-0.098,0.227-0.326,0.14-0.51l-0.925-1.949l1.941-1.153l1.25,0.141
	c0.263,0.029,0.455-0.291,0.332-0.552l-1.59-3.35c-0.088-0.184-0.293-0.254-0.457-0.157l-9.318,5.531
	c-0.165,0.099-0.228,0.327-0.141,0.51L15.602-18.427z"/>
<path fill="#00B76C" d="M-28.937-16.548l-3.738-3.738c-2.013,2.013-3.258,4.794-3.258,7.867h5.286
	C-30.647-14.032-29.994-15.492-28.937-16.548z"/>
<path fill="#00A05B" d="M-31.711-12.419h1.063c0-1.613,0.654-3.072,1.71-4.128l-0.482-0.483
	C-30.812-15.975-31.711-14.302-31.711-12.419z"/>
<path fill="#546F7A" d="M-30.647-12.419h-5.286c0,3.072,1.245,5.854,3.258,7.866l3.738-3.738
	C-29.994-9.347-30.647-10.808-30.647-12.419z"/>
<path fill="#475D63" d="M-31.711-12.419L-31.711-12.419c0,1.882,0.899,3.554,2.292,4.61l0.482-0.482
	c-1.057-1.056-1.71-2.517-1.71-4.128H-31.711L-31.711-12.419z"/>
<path fill="#3D4FF9" d="M-28.937-8.292l-3.738,3.738c2.013,2.014,4.794,3.259,7.867,3.259v-5.287
	C-26.421-6.582-27.881-7.235-28.937-8.292z"/>
<path fill="#3046C1" d="M-25.927-6.636c0.091,0,0.181-0.002,0.271-0.006c-1.273-0.186-2.413-0.781-3.28-1.649l-0.482,0.482
	C-28.449-7.073-27.239-6.636-25.927-6.636z"/>
<path fill="#39A4FA" d="M-24.809-6.582v5.287c3.072,0,5.854-1.245,7.866-3.259l-3.737-3.738
	C-21.736-7.235-23.197-6.582-24.809-6.582z"/>
<path fill="#0091E2" d="M-24.809-1.35v0.056c3.072,0,5.854-1.245,7.866-3.259l-0.579-0.579C-19.331-3.046-21.906-1.64-24.809-1.35z"
	/>
<path fill="#8B41F7" d="M-18.971-12.419c0,1.611-0.653,3.072-1.709,4.128l3.737,3.738c2.014-2.013,3.259-4.794,3.259-7.866H-18.971
	L-18.971-12.419z"/>
<path fill="#7539D3" d="M-14.802-12.419L-14.802-12.419c0,2.787-1.026,5.336-2.72,7.287l0.579,0.579
	c2.014-2.013,3.259-4.794,3.259-7.866H-14.802L-14.802-12.419z"/>
<path fill="#FF434D" d="M-18.971-12.419h5.287c0-3.072-1.245-5.854-3.259-7.867l-3.737,3.738
	C-19.624-15.492-18.971-14.032-18.971-12.419z"/>
<path fill="#DD3646" d="M-14.802-12.419h1.118c0-3.072-1.245-5.854-3.259-7.867l-0.579,0.579
	C-15.828-17.754-14.802-15.208-14.802-12.419z"/>
<path fill="#FF6137" d="M-20.68-16.548l3.737-3.738c-2.013-2.013-4.794-3.258-7.866-3.258v5.286
	C-23.197-18.259-21.736-17.605-20.68-16.548z"/>
<path fill="#E04F32" d="M-17.521-19.707l0.579-0.579c-2.013-2.013-4.794-3.258-7.866-3.258v0.056
	C-21.906-23.199-19.331-21.793-17.521-19.707z"/>
<path fill="#FFD039" d="M-24.809-18.259v-5.286c-3.072,0-5.854,1.245-7.867,3.258l3.738,3.738
	C-27.881-17.605-26.421-18.259-24.809-18.259z"/>
<path fill="#FFAE47" d="M-25.927-18.203c-1.312,0-2.521,0.438-3.492,1.172l0.482,0.483c0.868-0.868,2.007-1.463,3.28-1.648
	C-25.747-18.2-25.836-18.203-25.927-18.203z"/>
<polygon fill="#235C81" points="65.465,-14.999 63.715,-19.154 59.02,-19.154 59.676,-10.844 63.715,-10.844 "/>
<polygon fill="#174461" points="70.813,-14.999 69.064,-19.154 63.715,-19.154 63.715,-10.844 69.064,-10.844 "/>
<rect x="69.066" y="-19.154" fill="#092A40" width="4.693" height="8.311"/>
<polygon fill="#FFF5D9" points="60.066,-17.624 56.474,-20.347 52.949,-18.312 57.104,-11.116 60.629,-13.151 "/>
<polygon fill="#AD396B" points="64.131,-19.97 60.539,-22.694 56.474,-20.347 60.629,-13.151 64.693,-15.497 "/>
<polygon fill="#5B3256" points="68.766,-22.646 65.174,-25.37 60.539,-22.694 64.693,-15.497 69.328,-18.173 "/>
<rect x="65.128" y="-25.292" transform="matrix(0.4999 0.8661 -0.8661 0.4999 14.7747 -71.4778)" fill="#3A2F4D" width="8.31" height="4.694"/>
<polygon fill="#FFF5D9" points="58.145,-19.544 53.672,-20.107 51.637,-16.583 58.834,-12.429 60.868,-15.952 "/>
<polygon fill="#FF755C" points="60.492,-23.61 56.02,-24.173 53.672,-20.107 60.868,-15.952 63.217,-20.018 "/>
<polygon fill="#FF4181" points="63.166,-28.244 58.695,-28.806 56.02,-24.173 63.217,-20.018 65.893,-24.651 "/>
<rect x="59.312" y="-31.108" transform="matrix(0.8661 0.4999 -0.4999 0.8661 -5.8781 -35.5826)" fill="#D63D76" width="8.31" height="4.693"/>
<polygon fill="#FFE290" points="54.209,-20.248 55.521,-10.844 59.676,-10.844 59.676,-18.498 "/>
<polygon fill="#FFF5D9" points="51.365,-18.498 51.365,-10.844 55.521,-10.844 55.521,-20.248 "/>
<polygon fill="#FFB14E" points="59.676,-23.193 54.209,-24.942 55.521,-18.498 59.676,-18.498 "/>
<polygon fill="#FFCE47" points="51.365,-23.193 51.365,-18.498 55.521,-18.498 55.521,-24.942 "/>
<polygon fill="#FF9356" points="59.676,-28.543 54.209,-30.292 55.521,-23.193 59.676,-23.193 "/>
<polygon fill="#FFB14E" points="51.365,-28.543 51.365,-23.193 55.521,-23.193 55.521,-30.292 "/>
<polygon fill="#FF755C" points="55.521,-33.238 54.209,-30.891 55.521,-28.543 59.676,-28.543 59.676,-33.238 "/>
<rect x="51.365" y="-33.238" fill="#FF9356" width="4.156" height="4.694"/>
<path fill="#8697CB" d="M-67.614-14.8l-0.008,0.004l-4.393,1.82c-1.113-2.676-1.17-5.674-0.158-8.39
	c0.047-0.139,0.103-0.277,0.158-0.412l4.393,1.82c-0.059,0.146-0.115,0.297-0.166,0.447C-68.303-17.971-68.241-16.296-67.614-14.8z"
	/>
<path fill="#4482C3" d="M-63.974-11.147l-1.82,4.393c-2.817-1.165-5.055-3.403-6.221-6.221l4.393-1.82l0.008-0.004
	C-66.937-13.146-65.626-11.83-63.974-11.147z"/>
<path fill="#F0C419" d="M20.295,16.389c0,0.014-0.007,0.027-0.013,0.034c-0.037,0.106-0.079,0.212-0.122,0.317
	c-0.039,0.091-0.078,0.182-0.124,0.272l-3.627-1.501c0.043-0.09,0.083-0.183,0.122-0.277c0.025-0.061,0.05-0.121,0.072-0.182
	c0.021-0.057,0.041-0.113,0.059-0.172c0.882-2.64-0.315-5.527-2.809-6.77c-0.108-0.056-0.222-0.108-0.337-0.154l0.004-0.006
	l1.5-3.623c0.147,0.063,0.294,0.127,0.439,0.197C19.9,6.63,21.999,11.778,20.295,16.389z"/>
<path fill="#F29C1F" d="M20.295,16.389c-0.04,0.117-0.086,0.236-0.135,0.352l-3.629-1.506c0.05-0.117,0.092-0.234,0.13-0.354
	c0.433-1.275,0.385-2.665-0.137-3.907l0.007-0.002l3.629-1.503C21.078,11.674,21.125,14.147,20.295,16.389z"/>
<path fill="#CC4B4C" d="M15.46,4.524l-1.606,3.586c-0.108-0.056-0.222-0.108-0.337-0.154c-0.153-0.063-0.308-0.118-0.461-0.167
	c-2.574-0.8-5.352,0.351-6.607,2.736c-0.079,0.144-0.149,0.292-0.21,0.446c-0.048,0.12-0.095,0.245-0.137,0.37L2.479,9.807
	C2.517,9.693,2.563,9.578,2.61,9.468c0.065-0.162,0.137-0.318,0.212-0.473c2.117-4.417,7.249-6.499,11.844-4.805
	c0.119,0.042,0.235,0.088,0.354,0.137C15.168,4.39,15.314,4.455,15.46,4.524z"/>
<circle fill="#CC4B4C" cx="11.384" cy="13.103" r="2.216"/>
<path fill="#802D40" d="M9.256,7.963c-1.367,0.56-2.453,1.643-3.018,3.008L2.61,9.468C3.572,7.14,5.421,5.29,7.749,4.327
	l1.504,3.629L9.256,7.963z"/>
<path fill="#67B9CC" d="M16.531,15.234c-1.184,2.837-4.438,4.177-7.273,3.001c-2.837-1.177-4.188-4.426-3.02-7.264L2.61,9.468
	c-2.008,4.848,0.292,10.404,5.139,12.41c4.846,2.009,10.404-0.291,12.412-5.138L16.531,15.234z"/>
<path fill="#8697CB" d="M6.245,15.23l-0.007,0.004L2.61,16.74c-0.92-2.213-0.968-4.688-0.131-6.933
	C2.517,9.693,2.563,9.578,2.61,9.468l3.628,1.503c-0.048,0.12-0.095,0.245-0.137,0.37C5.676,12.612,5.727,13.996,6.245,15.23z"/>
<path fill="#4482C3" d="M9.252,18.249l-1.504,3.629c-2.328-0.962-4.176-2.813-5.139-5.138l3.628-1.506l0.007-0.004
	C6.805,16.599,7.887,17.686,9.252,18.249z"/>
<path fill="#71C285" d="M20.16,16.74c-0.039,0.091-0.078,0.182-0.124,0.272c-0.989,2.204-2.784,3.944-5.016,4.865l-1.504-3.629
	l-0.002-0.006c1.269-0.52,2.301-1.493,2.895-2.731c0.043-0.09,0.083-0.183,0.122-0.277L20.16,16.74z"/>
<polygon fill="#AFB6BB" points="17.969,0.313 17.969,3.39 13.186,3.39 13.186,13.643 9.766,13.643 9.766,3.39 4.98,3.39 4.98,0.313 
	"/>
<polygon fill="#A1A8AD" points="4.98,0.313 4.98,3.39 9.766,3.39 9.766,13.643 11.475,13.643 11.475,0.313 "/>
<g>
	<polygon fill="#FFFFFF" points="6.434,2.364 5.92,2.364 5.92,1.253 10.791,1.253 10.791,1.766 6.434,1.766 	"/>
	<rect x="11.304" y="1.253" fill="#FFFFFF" width="0.854" height="0.513"/>
</g>
</svg>
