<?xml version="1.0" encoding="utf-8"?>
<!-- Generator: Adobe Illustrator 16.0.0, SVG Export Plug-In . SVG Version: 6.00 Build 0)  -->
<!DOCTYPE svg PUBLIC "-//W3C//DTD SVG 1.1//EN" "http://www.w3.org/Graphics/SVG/1.1/DTD/svg11.dtd">
<svg version="1.1" id="Layer_1" xmlns="http://www.w3.org/2000/svg" xmlns:xlink="http://www.w3.org/1999/xlink" x="0px" y="0px"
	 width="23px" height="21px" viewBox="0 0 23 21" enable-background="new 0 0 23 21" xml:space="preserve">
<g>
	<g>
		<path fill="#FFFFFF" d="M16.754,20.85L4.999,9.25C4.943,9.195,4.848,9.235,4.848,9.313v0.521c0,0.023,0.01,0.046,0.026,0.063
			l11.078,11.078c0.017,0.016,0.039,0.023,0.062,0.023h0.678C16.769,20.998,16.81,20.905,16.754,20.85z"/>
	</g>
</g>
<g>
	<g>
		<path fill="#FFFFFF" d="M14.049,20.85L5,11.8c-0.056-0.055-0.152-0.014-0.152,0.063l-0.001,7.702c0,0.392,0.157,0.758,0.438,1.031
			c0.274,0.264,0.645,0.401,1.025,0.401h7.676C14.063,20.998,14.104,20.905,14.049,20.85z"/>
	</g>
</g>
<g>
	<g>
		<path fill="#FFFFFF" d="M14.889,0.051L14.82,0.037c-0.535-0.116-1.094,0.052-1.479,0.443L12.33,1.515
			c-0.211,0.214-0.492,0.334-0.792,0.336H11.53c-0.297,0-0.579-0.117-0.79-0.325L9.68,0.474c-0.39-0.387-0.965-0.548-1.499-0.42
			C8.125,0.067,8.09,0.124,8.103,0.18c0.028,0.122,0.057,0.245,0.08,0.346c0.072,0.309,0.091,0.39,0.096,0.417
			c0.317,1.538,1.689,2.654,3.263,2.654c0.771,0,1.495-0.255,2.093-0.74c0.583-0.471,0.993-1.13,1.157-1.855
			c0.012-0.059,0.097-0.451,0.175-0.826C14.979,0.119,14.942,0.063,14.889,0.051z"/>
	</g>
</g>
<g>
	<g>
		<path fill="#FFFFFF" d="M14.16,7.768c-0.276,0-0.5,0.224-0.5,0.5c0,0.276,0.224,0.501,0.5,0.501s0.501-0.225,0.501-0.501
			C14.661,7.992,14.437,7.768,14.16,7.768z"/>
	</g>
</g>
<g>
	<g>
		<path fill="#FFFFFF" d="M21.108,2.678c-0.809-1.002-1.947-1.704-3.205-1.975l-1.581-0.342c-0.059-0.012-0.113,0.024-0.125,0.081
			c-0.088,0.41-0.179,0.828-0.18,0.834c-0.226,1-0.789,1.909-1.591,2.558c-0.813,0.658-1.838,1.021-2.885,1.021
			c-2.167,0-4.058-1.539-4.495-3.659C7.042,1.172,6.999,0.988,6.958,0.81C6.928,0.681,6.902,0.57,6.88,0.477
			c-0.013-0.057-0.07-0.091-0.127-0.078L5.314,0.745C4.079,1.044,2.966,1.759,2.181,2.759c-0.784,1-1.213,2.252-1.209,3.522
			l0.002,0.521c0.003,0.854,0.44,1.63,1.17,2.074c0.73,0.443,1.62,0.476,2.38,0.085c0.078-0.04,0.128-0.121,0.133-0.208l0.08-1.511
			L18.159,20.47c0.037,0.036,0.099,0.032,0.132-0.006c0.203-0.255,0.314-0.569,0.314-0.9L18.593,8.869l0.105,0.064
			c0.754,0.457,1.666,0.47,2.436,0.037c0.77-0.435,1.229-1.221,1.229-2.105V6.228C22.362,4.94,21.915,3.679,21.108,2.678z
			 M14.16,10.027c-0.97,0-1.76-0.789-1.76-1.759c0-0.97,0.79-1.758,1.76-1.758s1.758,0.789,1.758,1.758
			C15.918,9.238,15.13,10.027,14.16,10.027z"/>
	</g>
</g>
</svg>
