<?xml version="1.0" encoding="utf-8"?>
<!-- Generator: Adobe Illustrator 16.0.0, SVG Export Plug-In . SVG Version: 6.00 Build 0)  -->
<!DOCTYPE svg PUBLIC "-//W3C//DTD SVG 1.1//EN" "http://www.w3.org/Graphics/SVG/1.1/DTD/svg11.dtd">
<svg version="1.1" id="Layer_1" xmlns="http://www.w3.org/2000/svg" xmlns:xlink="http://www.w3.org/1999/xlink" x="0px" y="0px"
	 width="23px" height="22.918px" viewBox="0 0 23 22.918" enable-background="new 0 0 23 22.918" xml:space="preserve">
<path fill="#B2D6F2" d="M-13.208,15.752c-6.166,0-11.163,4.997-11.163,11.163c0,6.164,4.998,11.162,11.163,11.162
	c6.164,0,11.162-4.998,11.162-11.162C-2.045,20.749-7.043,15.752-13.208,15.752z M-13.227,34.603c-4.26,0-7.714-3.453-7.714-7.715
	c0-4.26,3.454-7.713,7.714-7.713c4.26,0,7.713,3.453,7.713,7.713C-5.514,31.149-8.967,34.603-13.227,34.603z"/>
<path fill="#0078D7" d="M-13.208,17.54c-5.178,0-9.375,4.197-9.375,9.375s4.197,9.373,9.375,9.373c5.178,0,9.373-4.195,9.373-9.373
	S-8.03,17.54-13.208,17.54z M-13.208,34.526c-4.205,0-7.612-3.408-7.612-7.611c0-4.205,3.408-7.612,7.612-7.612
	c4.203,0,7.611,3.407,7.611,7.612C-5.596,31.118-9.004,34.526-13.208,34.526z"/>
<g>
	<path fill="#3489C9" d="M20.945,0.345h-5.002c-0.408,0-0.74,0.333-0.74,0.742s0.332,0.74,0.74,0.74h5.002
		c0.406,0,0.556,0.149,0.556,0.555v5.002c0,0.409,0.333,0.742,0.741,0.742c0.409,0,0.742-0.333,0.742-0.742V2.381
		C22.984,1.157,22.172,0.345,20.945,0.345L20.945,0.345z M20.945,0.345"/>
	<path fill="#3489C9" d="M0.756,8.125c0.409,0,0.74-0.333,0.74-0.742V2.381c0-0.406,0.187-0.555,0.593-0.555h4.594
		c0.409,0,0.741-0.331,0.741-0.74S7.091,0.345,6.682,0.345H2.088c-1.226,0-2.074,0.813-2.074,2.037v5.002
		C0.014,7.792,0.347,8.125,0.756,8.125L0.756,8.125z M0.756,8.125"/>
	<path fill="#3489C9" d="M22.242,15.163c-0.408,0-0.741,0.334-0.741,0.742v4.592c0,0.408-0.149,0.595-0.556,0.595h-5.002
		c-0.408,0-0.74,0.331-0.74,0.739c0,0.41,0.332,0.742,0.74,0.742h5.002c1.227,0,2.039-0.848,2.039-2.076v-4.592
		C22.984,15.497,22.651,15.163,22.242,15.163L22.242,15.163z M22.242,15.163"/>
	<path fill="#3489C9" d="M6.682,21.092H2.088c-0.406,0-0.593-0.187-0.593-0.595v-4.592c0-0.408-0.331-0.742-0.74-0.742
		c-0.409,0-0.742,0.334-0.742,0.742v4.592c0,1.229,0.849,2.076,2.074,2.076h4.594c0.409,0,0.741-0.332,0.741-0.742
		C7.423,21.423,7.091,21.092,6.682,21.092L6.682,21.092z M6.682,21.092"/>
	<path fill="#ABD037" d="M17.056,14.571v-5.52c0-1.227-0.812-2.04-2.038-2.04H8.017c-1.226,0-2.075,0.813-2.075,2.04v5.52
		c0,1.226,0.849,2.073,2.075,2.073h7.001C16.244,16.645,17.056,15.797,17.056,14.571L17.056,14.571z M15.574,14.571
		c0,0.408-0.147,0.592-0.557,0.592H8.017c-0.408,0-0.593-0.184-0.593-0.592v-5.52c0-0.407,0.185-0.556,0.593-0.556h7.001
		c0.409,0,0.557,0.148,0.557,0.556V14.571z M15.574,14.571"/>
</g>
</svg>
