<?xml version="1.0" encoding="utf-8"?>
<!-- Generator: Adobe Illustrator 16.0.0, SVG Export Plug-In . SVG Version: 6.00 Build 0)  -->
<!DOCTYPE svg PUBLIC "-//W3C//DTD SVG 1.1//EN" "http://www.w3.org/Graphics/SVG/1.1/DTD/svg11.dtd">
<svg version="1.1" id="Layer_1" xmlns="http://www.w3.org/2000/svg" xmlns:xlink="http://www.w3.org/1999/xlink" x="0px" y="0px"
	 width="23px" height="22.918px" viewBox="0 0 23 22.918" enable-background="new 0 0 23 22.918" xml:space="preserve">
<path fill="#B2D6F2" d="M-13.208,15.752c-6.166,0-11.163,4.997-11.163,11.163c0,6.164,4.998,11.162,11.163,11.162
	c6.164,0,11.162-4.998,11.162-11.162C-2.045,20.749-7.043,15.752-13.208,15.752z M-13.227,34.603c-4.26,0-7.714-3.453-7.714-7.715
	c0-4.26,3.454-7.713,7.714-7.713c4.26,0,7.713,3.453,7.713,7.713C-5.514,31.149-8.967,34.603-13.227,34.603z"/>
<path fill="#0078D7" d="M-13.208,17.54c-5.178,0-9.375,4.197-9.375,9.375s4.197,9.373,9.375,9.373c5.178,0,9.373-4.195,9.373-9.373
	S-8.03,17.54-13.208,17.54z M-13.208,34.526c-4.205,0-7.612-3.408-7.612-7.611c0-4.205,3.408-7.612,7.612-7.612
	c4.203,0,7.611,3.407,7.611,7.612C-5.596,31.118-9.004,34.526-13.208,34.526z"/>
<g>
	<path fill="#3489C9" d="M43.932,27.782H38.93c-0.408,0-0.74,0.333-0.74,0.742c0,0.408,0.332,0.739,0.74,0.739h5.002
		c0.406,0,0.556,0.149,0.556,0.556v5.002c0,0.408,0.333,0.741,0.741,0.741c0.409,0,0.742-0.333,0.742-0.741v-5.002
		C45.971,28.595,45.158,27.782,43.932,27.782L43.932,27.782z M43.932,27.782"/>
	<path fill="#3489C9" d="M23.742,35.563c0.408,0,0.74-0.333,0.74-0.741v-5.002c0-0.406,0.186-0.556,0.592-0.556h4.594
		c0.409,0,0.742-0.331,0.742-0.739c0-0.409-0.333-0.742-0.742-0.742h-4.594c-1.225,0-2.074,0.813-2.074,2.037v5.002
		C23,35.229,23.333,35.563,23.742,35.563L23.742,35.563z M23.742,35.563"/>
	<path fill="#3489C9" d="M45.229,42.601c-0.408,0-0.741,0.334-0.741,0.742v4.592c0,0.408-0.149,0.595-0.556,0.595H38.93
		c-0.408,0-0.74,0.331-0.74,0.739c0,0.41,0.332,0.742,0.74,0.742h5.002c1.227,0,2.039-0.848,2.039-2.076v-4.592
		C45.971,42.935,45.638,42.601,45.229,42.601L45.229,42.601z M45.229,42.601"/>
	<path fill="#3489C9" d="M29.668,48.529h-4.594c-0.406,0-0.592-0.187-0.592-0.595v-4.592c0-0.408-0.332-0.742-0.74-0.742
		c-0.409,0-0.742,0.334-0.742,0.742v4.592c0,1.229,0.85,2.076,2.074,2.076h4.594c0.409,0,0.742-0.332,0.742-0.742
		C30.41,48.86,30.077,48.529,29.668,48.529L29.668,48.529z M29.668,48.529"/>
	<path fill="#ABD037" d="M40.042,42.009v-5.52c0-1.227-0.812-2.039-2.038-2.039h-7.001c-1.226,0-2.075,0.813-2.075,2.039v5.52
		c0,1.226,0.85,2.073,2.075,2.073h7.001C39.23,44.082,40.042,43.234,40.042,42.009L40.042,42.009z M38.561,42.009
		c0,0.408-0.147,0.592-0.557,0.592h-7.001c-0.408,0-0.593-0.184-0.593-0.592v-5.52c0-0.407,0.185-0.556,0.593-0.556h7.001
		c0.409,0,0.557,0.148,0.557,0.556V42.009z M38.561,42.009"/>
</g>
<path fill="#EBF0F3" d="M22.625,5.201V0.334h-4.867v2.03H5.242v-2.03H0.375v4.867h2.002v12.516H0.375v4.867h4.867v-2.03h12.516v2.03
	h4.867v-4.867h-2.058V5.201H22.625z M18.564,1.141h3.254v3.254h-3.254V1.141z M1.182,1.141h3.254v3.254H1.182V1.141z M4.436,21.777
	H1.182v-3.254h3.254L4.436,21.777L4.436,21.777z M21.818,21.777h-3.254v-3.254h3.254V21.777z M19.761,17.717h-2.003v2.03H5.242
	v-2.03H3.184V5.201h2.058v-2.03h12.516v2.03h2.003V17.717z"/>
<path fill="#E56353" d="M10.276,8.149H7.412v-2.03h8.177v2.03h-2.893v8.623h-2.392V8.149H10.276z"/>
</svg>
