<?xml version="1.0" encoding="utf-8"?>
<!-- Generator: Adobe Illustrator 16.0.0, SVG Export Plug-In . SVG Version: 6.00 Build 0)  -->
<!DOCTYPE svg PUBLIC "-//W3C//DTD SVG 1.1//EN" "http://www.w3.org/Graphics/SVG/1.1/DTD/svg11.dtd">
<svg version="1.1" id="Layer_1" xmlns="http://www.w3.org/2000/svg" xmlns:xlink="http://www.w3.org/1999/xlink" x="0px" y="0px"
	 width="23px" height="21px" viewBox="0 0 23 21" enable-background="new 0 0 23 21" xml:space="preserve">
<path fill="#FFFFFF" d="M20.814,4.911l-4.423-4.422c-0.334-0.334-0.772-0.5-1.208-0.5c-0.439,0-0.876,0.167-1.21,0.5L1.501,12.961
	c-0.334,0.334-0.637,0.828-0.855,1.354c-0.218,0.528-0.354,1.093-0.354,1.564v5.132h5.131c0.472,0,1.035-0.136,1.563-0.354
	c0.528-0.22,1.022-0.521,1.356-0.855L20.814,7.33c0.334-0.334,0.501-0.773,0.501-1.209C21.315,5.682,21.148,5.245,20.814,4.911z
	 M3.448,14.239l9.455-9.454l1.405,1.404l-9.456,9.454L3.448,14.239z M5.422,18.73h-1.71l-1.14-1.14V15.88
	c0-0.088,0.038-0.346,0.181-0.69c0.011-0.021,3.382,3.352,3.382,3.352C5.768,18.693,5.51,18.73,5.422,18.73z M7.063,17.856
	L5.658,16.45l9.457-9.455L16.519,8.4L7.063,17.856z M17.325,7.594l-3.616-3.616l1.475-1.474l3.613,3.616L17.325,7.594z"/>
</svg>
