<?xml version="1.0" encoding="utf-8"?>
<!-- Generator: Adobe Illustrator 16.0.0, SVG Export Plug-In . SVG Version: 6.00 Build 0)  -->
<!DOCTYPE svg PUBLIC "-//W3C//DTD SVG 1.1//EN" "http://www.w3.org/Graphics/SVG/1.1/DTD/svg11.dtd">
<svg version="1.1" id="Layer_1" xmlns="http://www.w3.org/2000/svg" xmlns:xlink="http://www.w3.org/1999/xlink" x="0px" y="0px"
	 width="50px" height="50px" viewBox="0 0 50 50" enable-background="new 0 0 50 50" xml:space="preserve">
<g>
	<defs>
		<circle id="SVGID_1_" cx="-63.979" cy="15.167" r="24.667"/>
	</defs>
	<use xlink:href="#SVGID_1_"  overflow="visible" fill="#2099F3"/>
	<clipPath id="SVGID_2_">
		<use xlink:href="#SVGID_1_"  overflow="visible"/>
	</clipPath>
	<path clip-path="url(#SVGID_2_)" fill="#FFC084" d="M-58.889,22.863c-0.904-0.18-1.557-1.23-1.557-2.152v-4.112h-4.283l0,0h-4.284
		v4.112c0,0.922-0.65,1.973-1.555,2.152l-1.043,0.297v6.925h6.883l0,0h6.884V23.16L-58.889,22.863z"/>
	<path clip-path="url(#SVGID_2_)" fill="#F7B076" d="M-64.359,16.599v6.144c0,0.925,0.652,1.976,1.556,2.157l0.871,0.248
		l4.088,1.274V23.16l-1.045-0.297c-0.904-0.18-1.557-1.23-1.557-2.152v-4.112H-64.359L-64.359,16.599z"/>
	<path clip-path="url(#SVGID_2_)" fill="#B8092A" d="M-51.19,24.781l-6.172-1.924c-0.34-0.106-0.713,0.035-0.887,0.346
		c-0.85,1.511-3.43,2.973-6.48,2.973c-3.051,0-5.631-1.462-6.479-2.973c-0.175-0.311-0.547-0.452-0.887-0.346l-6.173,1.924
		c-2.598,0.766-4.591,2.734-5.443,5.191c-0.294,0.849-0.453,1.756-0.453,2.691v5.545c0,0.897,0.728,1.625,1.625,1.625h35.62
		c0.898,0,1.623-0.728,1.623-1.625v-5.545C-45.295,29.02-47.694,25.812-51.19,24.781z"/>
	<path clip-path="url(#SVGID_2_)" fill="#7F0522" d="M-51.19,24.781l-6.172-1.924c-0.34-0.106-0.713,0.035-0.887,0.346
		c-0.469,0.836-1.471,1.658-2.789,2.226l5.938,1.85c3.492,1.028,5.895,4.236,5.895,7.881v4.675h2.287
		c0.898,0,1.623-0.728,1.623-1.625v-5.545C-45.295,29.02-47.694,25.812-51.19,24.781z"/>
	<path clip-path="url(#SVGID_2_)" fill="#FFC084" d="M-56.137,7.38h-0.547V6.737V5.198c0-2.174-0.893-4.28-2.539-5.698
		c-1.293-1.111-3.106-2.083-5.505-2.109c-2.397,0.026-4.212,0.998-5.504,2.109c-1.646,1.417-2.54,3.523-2.54,5.698v1.539V7.38
		h-0.547c-0.804,0-1.457,0.653-1.457,1.456v1.613c0,0.805,0.652,1.456,1.457,1.456h0.551c0.045,2.112,0.933,4.146,2.537,5.527
		c1.291,1.112,3.106,2.081,5.503,2.108c2.399-0.027,4.212-0.996,5.505-2.108c1.604-1.381,2.492-3.416,2.537-5.527h0.549
		c0.805,0,1.455-0.651,1.455-1.456V8.836C-54.682,8.033-55.333,7.38-56.137,7.38z"/>
	<path clip-path="url(#SVGID_2_)" fill="#F7B076" d="M-56.137,7.38h-0.547V6.737V5.198c0-2.174-0.893-4.28-2.539-5.698
		c-1.293-1.111-3.106-2.083-5.505-2.109c-0.701,0.006-1.352,0.097-1.955,0.245c1.458,0.362,2.635,1.078,3.548,1.864
		c1.646,1.417,2.539,3.523,2.539,5.698v1.539l-0.002,5.168c-0.045,2.112-0.932,4.146-2.537,5.527
		c-0.913,0.787-2.09,1.504-3.548,1.864c0.603,0.149,1.254,0.235,1.955,0.244c2.399-0.024,4.212-0.996,5.505-2.108
		c1.604-1.381,2.492-3.416,2.537-5.527h0.549c0.805,0,1.455-0.651,1.455-1.456V8.836C-54.682,8.033-55.333,7.38-56.137,7.38z"/>
	<path clip-path="url(#SVGID_2_)" fill="#F9A058" d="M-59.932-3.087h-4.796h-4.794c-2.469,0-4.469,2-4.469,4.467v6.165
		c0,0,1.231-0.028,2.021,0.755c0.165,0.163,0.444,0.044,0.444-0.188V3.28c0-1.09,0.883-1.974,1.976-1.974h1.794
		c0.47,0,0.925,0.162,1.291,0.46l0.176,0.144c0.44,0.361,0.991,0.557,1.561,0.557s1.121-0.196,1.561-0.557l0.177-0.144
		c0.363-0.298,0.82-0.46,1.291-0.46h1.795c1.088,0,1.973,0.884,1.973,1.974v4.833c0,0.231,0.281,0.35,0.445,0.187
		c0.791-0.783,2.021-0.755,2.021-0.755V1.379C-55.465-1.088-57.465-3.087-59.932-3.087z"/>
	<path clip-path="url(#SVGID_2_)" fill="#EF8F48" d="M-59.932-3.087h-3.916c2.466,0,4.466,1.997,4.468,4.465
		c0.836,0.23,1.447,0.994,1.447,1.902v4.833c0,0.231,0.281,0.35,0.445,0.187c0.791-0.783,2.021-0.755,2.021-0.755V1.379
		C-55.465-1.088-57.465-3.087-59.932-3.087z"/>
	<g clip-path="url(#SVGID_2_)">
		<path fill="#E1EFFB" d="M-78.639,36.847h-5.525v1.362c0,0.897,0.728,1.625,1.625,1.625h3.9V36.847L-78.639,36.847z"/>
		<path fill="#E1EFFB" d="M-69.929,35.65c0.084,0,0.197-0.043,0.296-0.155l0.522-0.774v5.105h1.184v-6.46
			c0-0.268-0.268-0.422-0.521-0.422c-0.169,0-0.269,0.084-0.367,0.185l-1.297,1.536c-0.126,0.099-0.254,0.324-0.254,0.492
			C-70.366,35.411-70.183,35.65-69.929,35.65z"/>
		<path fill="#E1EFFB" d="M-65.039,39.826v-3.797c0-1.364,0.691-1.999,1.846-1.999c1.155,0,1.86,0.635,1.86,1.999v3.797h1.184
			v-3.797c0-2.238-1.34-3.07-3.044-3.07c-1.705,0-3.029,0.832-3.029,3.07v3.797H-65.039z"/>
	</g>
	<path clip-path="url(#SVGID_2_)" fill="#7F0522" d="M-77.976,39.826v-6.854c0-0.367-0.298-0.662-0.663-0.662
		c-0.368,0-0.664,0.295-0.664,0.662v6.854c0,0.004,0.001,0.004,0.001,0.008h1.326C-77.976,39.83-77.976,39.826-77.976,39.826z"/>
</g>
<circle fill="#2ECCA6" cx="-49.529" cy="30.566" r="8.249"/>
<path fill="#2CA888" d="M-49.529,22.317c-0.68,0-1.341,0.084-1.97,0.237c3.603,0.886,6.275,4.136,6.275,8.011
	c0,3.877-2.673,7.126-6.275,8.012c0.629,0.154,1.29,0.237,1.97,0.237c4.554,0,8.249-3.694,8.249-8.249S-44.975,22.317-49.529,22.317
	z"/>
<path fill="#FFFFFF" d="M-44.901,29.212h-3.06c-0.119,0-0.214-0.096-0.214-0.214v-3.06c0-0.118-0.094-0.215-0.213-0.215h-2.284
	c-0.118,0-0.212,0.097-0.212,0.215v3.06c0,0.118-0.096,0.214-0.214,0.214h-3.062c-0.116,0-0.212,0.093-0.212,0.213v2.283
	c0,0.116,0.096,0.213,0.212,0.213h3.062c0.118,0,0.214,0.097,0.214,0.213v3.06c0,0.118,0.094,0.213,0.212,0.213h2.284
	c0.119,0,0.213-0.095,0.213-0.213v-3.06c0-0.116,0.095-0.213,0.214-0.213h3.06c0.117,0,0.214-0.097,0.214-0.213v-2.283
	C-44.687,29.305-44.784,29.212-44.901,29.212z"/>
<circle fill="#FF9500" cx="24.958" cy="25" r="24.834"/>
<path fill="#FE8205" d="M49.792,25c0-0.037-0.002-0.073-0.002-0.108l-6.303-6.305H13.31l-2.395,7.694l12.242,12.243l-9.206,2.988
	l8.156,8.157c0.936,0.107,1.886,0.164,2.85,0.164C38.673,49.834,49.792,38.715,49.792,25z"/>
<polygon fill="#3F6199" points="13.952,11.203 6.43,18.587 10.916,26.281 13.979,23.392 "/>
<polygon fill="#355382" points="35.965,11.203 43.487,18.587 39.001,26.281 35.937,23.392 "/>
<rect x="13.952" y="11.204" fill="#3D7ED9" width="22.013" height="30.31"/>
<rect x="24.917" y="11.204" fill="#466EB2" width="11.048" height="30.31"/>
<g>
	<polygon fill="#E4F2F6" points="22.283,34.261 19.179,34.261 19.179,25.469 18.273,26.427 16.02,24.291 19.604,20.507 
		22.283,21.575 	"/>
	<path fill="#E4F2F6" d="M30.537,34.261h-5.009l-1.552-1.553V22.157l1.552-1.552h5.009l1.553,1.552v10.551L30.537,34.261z
		 M27.08,31.156h1.906V23.71H27.08V31.156z"/>
</g>
<path fill="#D5ECF2" d="M30.537,20.605h-5.009l-0.612,0.613v12.429l0.612,0.613h5.009l1.553-1.553V22.157L30.537,20.605z
	 M28.986,31.156H27.08V23.71h1.906V31.156z"/>
<path fill="#3F6199" d="M29.719,11.203c0,2.63-2.131,4.761-4.761,4.761s-4.762-2.131-4.762-4.761H29.719z"/>
<path fill="#355382" d="M24.917,11.203v4.76c0.014,0,0.028,0.001,0.042,0.001c2.63,0,4.761-2.131,4.761-4.761H24.917z"/>
<circle fill="#FFFFFF" cx="40.712" cy="40.513" r="8.249"/>
<path fill="#FE8205" d="M45.34,39.159h-3.06c-0.119,0-0.214-0.096-0.214-0.214v-3.06c0-0.118-0.094-0.215-0.213-0.215h-2.284
	c-0.118,0-0.212,0.097-0.212,0.215v3.06c0,0.118-0.096,0.214-0.214,0.214h-3.062c-0.116,0-0.212,0.093-0.212,0.213v2.283
	c0,0.116,0.096,0.213,0.212,0.213h3.062c0.118,0,0.214,0.097,0.214,0.213v3.06c0,0.118,0.094,0.213,0.212,0.213h2.284
	c0.119,0,0.213-0.095,0.213-0.213v-3.06c0-0.116,0.095-0.213,0.214-0.213h3.06c0.117,0,0.214-0.097,0.214-0.213v-2.283
	C45.554,39.252,45.457,39.159,45.34,39.159z"/>
</svg>
