<?xml version="1.0" encoding="utf-8"?>
<!-- Generator: Adobe Illustrator 16.0.0, SVG Export Plug-In . SVG Version: 6.00 Build 0)  -->
<!DOCTYPE svg PUBLIC "-//W3C//DTD SVG 1.1//EN" "http://www.w3.org/Graphics/SVG/1.1/DTD/svg11.dtd">
<svg version="1.1" id="Layer_1" xmlns="http://www.w3.org/2000/svg" xmlns:xlink="http://www.w3.org/1999/xlink" x="0px" y="0px"
	 width="23px" height="22.918px" viewBox="0 0 23 22.918" enable-background="new 0 0 23 22.918" xml:space="preserve">
<g>
	<polygon fill="#A4C2F7" points="10.692,12.54 0.465,10.825 22.535,0.696 11.864,22.224 	"/>
	<path fill="#E3E7F2" d="M20.27,1.487c-0.034,0.111-0.114,0.204-0.221,0.255c-1.15,0.606-2.35,1.117-3.584,1.526
		c-1.495,0.582-2.949,1.258-4.357,2.024C10.75,6.045,9.334,6.688,7.872,7.214C6.303,7.808,4.987,8.842,3.408,9.386
		C3.33,9.416,3.246,9.42,3.164,9.403l-2.699,1.421l9.246,1.433l0.024,0.185c0.056-0.023,0.118-0.036,0.179-0.037
		c0.15,0,0.292,0.073,0.38,0.195c0.087,0.123,0.111,0.28,0.062,0.423c0.5,0.703,0.377,1.661,0.393,2.488
		c0.077,1.499,0.342,2.983,0.786,4.414l9.228-18.615C20.604,1.385,20.44,1.444,20.27,1.487L20.27,1.487z"/>
	<path fill="#428DFF" d="M11.864,22.669c-0.225,0-0.413-0.169-0.441-0.392l-1.133-9.355l-9.898-1.659
		c-0.192-0.032-0.341-0.187-0.367-0.38c-0.026-0.193,0.078-0.381,0.255-0.462L22.35,0.292c0.173-0.079,0.373-0.041,0.506,0.094
		c0.13,0.136,0.161,0.339,0.076,0.507L12.263,22.421C12.187,22.574,12.033,22.669,11.864,22.669L11.864,22.669z M1.965,10.625
		l8.801,1.477c0.194,0.032,0.344,0.189,0.369,0.384l0.993,8.207l9.451-19.067L1.965,10.625z"/>
</g>
</svg>
