<?xml version="1.0" encoding="utf-8"?>
<!-- Generator: Adobe Illustrator 16.0.0, SVG Export Plug-In . SVG Version: 6.00 Build 0)  -->
<!DOCTYPE svg PUBLIC "-//W3C//DTD SVG 1.1//EN" "http://www.w3.org/Graphics/SVG/1.1/DTD/svg11.dtd">
<svg version="1.1" id="Layer_1" xmlns="http://www.w3.org/2000/svg" xmlns:xlink="http://www.w3.org/1999/xlink" x="0px" y="0px"
	 width="23px" height="22.918px" viewBox="0 0 23 22.918" enable-background="new 0 0 23 22.918" xml:space="preserve">
<path fill="#B2D6F2" d="M11.501,0.251c-6.166,0-11.163,4.998-11.163,11.163s4.998,11.162,11.163,11.162
	c6.164,0,11.162-4.997,11.162-11.162S17.665,0.251,11.501,0.251z M11.481,19.103c-4.26,0-7.714-3.453-7.714-7.715
	c0-4.26,3.454-7.713,7.714-7.713c4.26,0,7.713,3.454,7.713,7.713C19.194,15.649,15.741,19.103,11.481,19.103z"/>
<path fill="#0078D7" d="M11.501,2.04c-5.178,0-9.375,4.197-9.375,9.375c0,5.178,4.197,9.373,9.375,9.373
	c5.178,0,9.373-4.195,9.373-9.373C20.874,6.237,16.679,2.04,11.501,2.04z M11.501,19.025c-4.205,0-7.612-3.407-7.612-7.611
	s3.408-7.612,7.612-7.612c4.203,0,7.611,3.408,7.611,7.612S15.704,19.025,11.501,19.025z"/>
</svg>
