<?xml version="1.0" encoding="utf-8"?>
<!-- Generator: Adobe Illustrator 16.0.0, SVG Export Plug-In . SVG Version: 6.00 Build 0)  -->
<!DOCTYPE svg PUBLIC "-//W3C//DTD SVG 1.1//EN" "http://www.w3.org/Graphics/SVG/1.1/DTD/svg11.dtd">
<svg version="1.1" id="Layer_1" xmlns="http://www.w3.org/2000/svg" xmlns:xlink="http://www.w3.org/1999/xlink" x="0px" y="0px"
	 width="23px" height="23px" viewBox="0 0 23 23" enable-background="new 0 0 23 23" xml:space="preserve">
<circle fill="#FFFFFF" cx="11.434" cy="11.473" r="11.189"/>
<path fill="none" d="M11.263,21.667c0.439,0.187,0.889,0.344,1.347,0.471c0-0.012,0.003-0.022,0.009-0.034
	c0.008-0.012,0.025-0.026,0.041-0.028c0.102-0.018,0.203-0.034,0.306-0.053c0.004-0.002,0.008-0.004,0.013-0.006
	c0.009-0.008,0.02-0.014,0.03-0.016c0.782-0.149,1.55-0.377,2.286-0.686c-0.002,0.002-0.005,0.002-0.006,0.002
	c0.002,0,0.004-0.002,0.006-0.002c0.006-0.002,0.012-0.004,0.018-0.008c-0.005,0.002-0.009,0.004-0.014,0.006
	c0.161-0.069,0.323-0.142,0.482-0.218c0.522-0.254,1.024-0.546,1.503-0.875c0.004-0.012,0.009-0.023,0.013-0.035
	c0.041-0.126,0.08-0.251,0.118-0.379c0.031-0.112,0.064-0.225,0.098-0.34c0.018-0.064,0.036-0.129,0.054-0.196
	c0.018-0.065,0.033-0.132,0.049-0.197c0.028-0.114,0.05-0.229,0.072-0.343c0.026-0.128,0.051-0.258,0.081-0.387
	c0.016-0.066,0.029-0.134,0.045-0.202c0.011-0.058,0.021-0.117,0.03-0.175c0.007-0.04,0.011-0.078,0.016-0.118
	c0.005-0.043,0.007-0.087,0.011-0.13c0.007-0.085,0.015-0.167,0.022-0.253c0.006-0.063,0.013-0.13,0.018-0.192
	c0.002-0.032,0.003-0.063,0.006-0.093c0.001-0.012,0.001-0.023,0.001-0.035c-0.001,0-0.003,0-0.005-0.002
	c-0.037-0.018-0.073-0.04-0.106-0.061c-0.035-0.021-0.07-0.047-0.104-0.069c-0.072-0.052-0.143-0.107-0.211-0.163
	c-0.065-0.055-0.131-0.112-0.198-0.169c-0.031-0.025-0.063-0.055-0.096-0.081c-0.032-0.025-0.063-0.052-0.098-0.076
	c-0.062-0.046-0.126-0.093-0.19-0.138c-0.026-0.021-0.056-0.038-0.084-0.059c-0.033-0.021-0.068-0.047-0.104-0.068
	c-0.155-0.097-0.311-0.189-0.467-0.282c-0.079-0.048-0.157-0.093-0.237-0.141c-0.029-0.018-0.058-0.03-0.088-0.047
	c-0.039-0.02-0.078-0.041-0.117-0.061c-0.127-0.062-0.256-0.12-0.385-0.18c-0.001,0-0.004-0.002-0.004-0.002
	c-0.03-0.015-0.061-0.027-0.088-0.041c-0.087-0.039-0.172-0.079-0.258-0.119c-0.072-0.033-0.146-0.063-0.22-0.097
	c-0.044-0.017-0.09-0.037-0.135-0.051c-0.004-0.001-0.008-0.001-0.011-0.003c0.002,0.021,0.003,0.043,0.005,0.063
	c0.003,0.025-0.022,0.046-0.044,0.046c-0.013,0-0.024-0.006-0.033-0.013c-0.01-0.01-0.012-0.021-0.014-0.033
	c-0.001-0.019-0.003-0.037-0.005-0.057c-0.437,0.306-0.898,0.581-1.374,0.824c-0.371,0.188-0.753,0.357-1.142,0.503
	c-0.386,0.144-0.779,0.266-1.177,0.364c-0.35,0.089-0.702,0.16-1.058,0.214c0.033,0.02,0.066,0.039,0.099,0.061
	c0.001,0,0.002,0,0.004,0c0.006,0,0.011,0,0.015,0.004c0.005,0.003,0.009,0.008,0.013,0.012c0,0,0.001,0.002,0.002,0.004
	c0.027,0.016,0.053,0.031,0.081,0.05c0.042,0.026,0.083,0.051,0.119,0.084c0.037,0.035,0.034,0.096,0,0.131
	c-0.017,0.017-0.041,0.026-0.064,0.026c-0.017,0-0.033-0.006-0.047-0.013c-0.01-0.006-0.019-0.012-0.028-0.018
	c-0.005,0.034-0.01,0.07-0.017,0.106c-0.014,0.083-0.028,0.165-0.05,0.247c-0.021,0.078-0.042,0.158-0.067,0.236
	c-0.049,0.161-0.109,0.316-0.161,0.477c-0.051,0.159-0.1,0.321-0.142,0.485c-0.044,0.165-0.078,0.333-0.109,0.5
	c-0.031,0.16-0.057,0.321-0.091,0.481c-0.016,0.081-0.034,0.158-0.051,0.236c-0.015,0.079-0.029,0.156-0.04,0.235
	c-0.003,0.021-0.005,0.046-0.007,0.066c0.012,0.002,0.023,0.002,0.036,0.002c0.023,0.002,0.046,0.002,0.07,0.006
	c0.023,0.005,0.044,0.015,0.065,0.026c0.024,0.015,0.04,0.035,0.056,0.061c0.012,0.021,0.017,0.043,0.017,0.065
	c0.008,0.01,0.013,0.02,0.016,0.029c0.002,0.01,0.003,0.021,0.001,0.03C10.124,21.124,10.683,21.422,11.263,21.667z"/>
<path fill="none" d="M20.135,4.729c-0.067-0.087-0.139-0.173-0.208-0.259C19.996,4.554,20.066,4.64,20.135,4.729L20.135,4.729z"/>
<path fill="none" d="M19.235,4.927c0.03-0.02,0.061-0.037,0.094-0.051c-0.047-0.057-0.096-0.111-0.143-0.166
	c0.013,0.057,0.026,0.112,0.038,0.168C19.228,4.895,19.231,4.91,19.235,4.927z"/>
<path fill="none" d="M19.095,4.325c-0.009-0.01-0.018-0.019-0.026-0.028c0,0,0.001,0,0.001,0.001
	C19.078,4.306,19.086,4.315,19.095,4.325z"/>
<path fill="none" d="M13.938,2.321c-0.275,0.038-0.551,0.085-0.823,0.144c-0.35,0.073-0.695,0.164-1.036,0.271
	c-0.169,0.054-0.338,0.111-0.505,0.173c-0.067,0.024-0.133,0.049-0.198,0.075c0.026,0.015,0.041,0.045,0.032,0.077
	c-0.017,0.066-0.036,0.132-0.051,0.198c-0.014,0.054-0.026,0.108-0.039,0.162c-0.005,0.021-0.01,0.042-0.016,0.063
	c-0.007,0.063-0.012,0.126-0.017,0.189c-0.011,0.136-0.021,0.271-0.037,0.405c-0.002,0.016-0.004,0.032-0.006,0.048
	c-0.003,0.054-0.006,0.108-0.01,0.163c-0.012,0.175-0.025,0.353-0.041,0.529c-0.014,0.168-0.031,0.334-0.043,0.502
	c-0.008,0.105-0.015,0.209-0.02,0.315c0.004,0.042,0.005,0.085,0.011,0.128c0.005,0.039,0.01,0.079,0.015,0.117
	c0.011,0.078,0.024,0.154,0.037,0.23c0.013,0.077,0.022,0.154,0.033,0.232c0.021,0.166,0.031,0.332,0.04,0.497
	c0.003,0.079,0.004,0.159,0.001,0.237c0,0.035-0.002,0.071-0.002,0.108c-0.001,0.019-0.001,0.039-0.003,0.059
	c-0.004,0.035-0.007,0.071-0.024,0.103c0,0,0,0.001-0.001,0.001c0.134,0.06,0.267,0.122,0.398,0.186
	c0.325,0.161,0.642,0.338,0.95,0.53c0.314,0.197,0.619,0.41,0.915,0.638c0.054,0.042,0.107,0.085,0.162,0.129
	c0.209,0.167,0.413,0.343,0.611,0.525c0.18,0.167,0.354,0.339,0.522,0.517c0.106,0.113,0.212,0.229,0.313,0.346c0,0,0,0,0,0
	c0.001-0.011,0.002-0.022,0.002-0.034c0.002-0.038,0.003-0.076,0.01-0.113c0.002-0.015,0.005-0.032,0.008-0.047
	c0.002-0.007,0.003-0.014,0.006-0.022c0.006-0.02,0.014-0.04,0.023-0.058c0.01-0.02,0.032-0.03,0.054-0.03
	c0.011,0,0.021,0.002,0.031,0.007c0.024,0.015,0.035,0.043,0.029,0.071c-0.003,0.01-0.006,0.02-0.008,0.03
	c0,0.008-0.001,0.016-0.002,0.025c0.046-0.015,0.091-0.031,0.137-0.047c0.165-0.055,0.328-0.111,0.493-0.163
	c0.082-0.025,0.162-0.052,0.245-0.077c0.099-0.029,0.196-0.058,0.293-0.086c0.082-0.024,0.161-0.047,0.241-0.071
	c0.083-0.024,0.164-0.052,0.245-0.078c0.076-0.025,0.148-0.052,0.222-0.079c0.074-0.026,0.149-0.054,0.225-0.083
	c0.08-0.03,0.163-0.062,0.244-0.092c0.04-0.015,0.078-0.03,0.116-0.043c0.049-0.017,0.096-0.033,0.143-0.05
	c0.16-0.054,0.321-0.098,0.482-0.143c0.081-0.021,0.157-0.043,0.237-0.066c0.075-0.022,0.151-0.048,0.229-0.07
	c0.077-0.025,0.156-0.046,0.236-0.065c0.038-0.009,0.075-0.018,0.113-0.027c0.042-0.01,0.081-0.023,0.121-0.037
	c0.038-0.293,0.064-0.589,0.076-0.885c0.032-0.669,0.003-1.341-0.085-2.006c0-0.002-0.001-0.005-0.001-0.008v0v0
	c0-0.002-0.001-0.004-0.001-0.006c-0.035-0.26-0.079-0.519-0.132-0.775c-0.027-0.133-0.058-0.265-0.09-0.396
	c-0.016-0.063-0.031-0.127-0.048-0.189c0-0.003-0.001-0.008-0.002-0.012c-0.021-0.023-0.041-0.048-0.063-0.071
	c-0.061-0.064-0.12-0.126-0.185-0.188c-0.117-0.114-0.24-0.221-0.367-0.323c-0.045-0.035-0.091-0.069-0.138-0.103
	c-0.133-0.099-0.271-0.19-0.403-0.286c-0.065-0.048-0.129-0.097-0.195-0.144c-0.077-0.056-0.153-0.11-0.23-0.163
	c-0.066-0.045-0.132-0.088-0.197-0.134c-0.065-0.047-0.133-0.093-0.197-0.139c-0.033-0.024-0.069-0.048-0.104-0.071
	c-0.037-0.025-0.075-0.051-0.115-0.074c-0.075-0.046-0.151-0.09-0.228-0.134c-0.066-0.038-0.133-0.074-0.198-0.113
	c-0.037-0.022-0.075-0.043-0.111-0.067c-0.043-0.028-0.085-0.054-0.127-0.082c-0.029-0.02-0.059-0.04-0.089-0.06
	c-0.031-0.023-0.065-0.044-0.096-0.068c-0.022-0.015-0.041-0.029-0.063-0.045c-0.01,0-0.018,0-0.027,0c-0.021,0-0.039,0-0.061-0.001
	c-0.021,0-0.043-0.001-0.063-0.001c-0.087-0.003-0.173-0.004-0.26-0.004c-0.173-0.001-0.346,0.001-0.518,0.009
	C14.622,2.247,14.28,2.276,13.938,2.321z"/>
<polygon fill="none" points="20.986,13.011 20.984,13.001 20.986,13.011 "/>
<path fill="none" d="M19.318,9.274C19.318,9.274,19.318,9.274,19.318,9.274c-0.002,0.013-0.006,0.025-0.008,0.038
	C19.313,9.299,19.316,9.287,19.318,9.274z"/>
<polygon fill="none" points="18.263,17.063 18.253,17.075 18.253,17.075 "/>
<path fill="none" d="M22.076,8.583c-0.127-0.461-0.283-0.914-0.468-1.355c-0.184-0.429-0.392-0.849-0.626-1.251
	c-0.214-0.366-0.447-0.718-0.7-1.057c-0.051,0.004-0.104,0.008-0.155,0.012c-0.108,0.007-0.217,0.014-0.324,0.024
	c-0.13,0.019-0.263,0.039-0.387,0.087c-0.042,0.019-0.08,0.043-0.118,0.068c-0.006,0.005-0.015,0.008-0.021,0.01
	c0.023,0.118,0.045,0.237,0.065,0.356c0.111,0.669,0.16,1.349,0.148,2.028c-0.006,0.335-0.027,0.671-0.064,1.003
	c-0.01,0.094-0.021,0.187-0.032,0.279c0.003,0.001,0.005,0.002,0.007,0.003c0.012,0.008,0.02,0.02,0.024,0.035
	c0.008,0.019,0.017,0.038,0.025,0.058c0.026,0.063,0.053,0.126,0.081,0.191c0.006,0.015,0.014,0.027,0.02,0.042
	c0.021,0.027,0.042,0.054,0.063,0.081c0.04,0.055,0.079,0.111,0.119,0.167c0.038,0.053,0.073,0.109,0.11,0.165
	c0.035,0.053,0.066,0.109,0.1,0.163c0.015,0.025,0.03,0.05,0.044,0.074c0.015,0.027,0.031,0.053,0.046,0.079
	c0.03,0.056,0.063,0.113,0.093,0.171c0.003,0.007,0.007,0.014,0.011,0.022c0.03,0.051,0.059,0.103,0.089,0.156
	c0.034,0.059,0.063,0.121,0.097,0.182c0.012,0.023,0.021,0.046,0.034,0.07c0.02,0.039,0.038,0.079,0.059,0.119
	c0.029,0.062,0.057,0.126,0.088,0.19c0.057,0.121,0.11,0.244,0.161,0.367c0.029,0.068,0.058,0.136,0.086,0.203
	c0.026,0.067,0.051,0.135,0.076,0.203c0.024,0.065,0.046,0.131,0.068,0.197c0.018,0.061,0.035,0.122,0.051,0.182
	c0.008,0.035,0.017,0.07,0.025,0.104c0.008,0.038,0.017,0.076,0.026,0.113c0.007,0.036,0.014,0.071,0.02,0.107
	c0.007,0.034,0.014,0.069,0.021,0.103c0.021,0.131,0.044,0.263,0.072,0.394c0.01,0.038,0.019,0.075,0.027,0.109
	c0.003,0.008,0.006,0.019,0.008,0.027c0.002,0.008,0.002,0.013,0.002,0.019c0.003,0.015,0.006,0.026,0.009,0.038
	c0.009,0.033,0.018,0.066,0.024,0.1c0.013,0.003,0.026,0.003,0.039,0.003c0,0,0.001,0,0.001,0.002
	c0.004-0.002,0.007-0.002,0.011-0.002c0.007,0,0.013,0.002,0.021,0.002c0.027,0.002,0.054,0.004,0.08,0.004
	c0.079,0.004,0.157,0.008,0.236,0.012c0.141,0.002,0.282,0.004,0.424,0.004c0.011,0,0.021,0,0.03,0l0,0c0.028,0,0.054,0,0.081,0
	c0.049-0.002,0.1-0.002,0.147-0.002c0.017,0,0.032,0.008,0.043,0.02c0.018,0,0.036,0,0.056-0.002
	c0.004-0.033,0.009-0.069,0.014-0.104c0.034-0.251,0.06-0.502,0.077-0.755c0.007-0.129,0.014-0.26,0.017-0.389
	c0.004-0.12,0.01-0.242,0.009-0.362c-0.003-0.488-0.035-0.977-0.1-1.461C22.3,9.514,22.204,9.044,22.076,8.583z"/>
<path fill="none" d="M22.25,13.154c-0.052,0.005-0.104,0.005-0.156,0.005c-0.023,0-0.046,0-0.069,0c-0.001,0-0.002,0-0.003,0
	c-0.009,0-0.018,0-0.028,0c-0.146,0-0.29-0.002-0.435-0.011c-0.078-0.002-0.155-0.008-0.232-0.012
	c-0.002,0.012-0.007,0.024-0.013,0.035c-0.071,0.095-0.135,0.19-0.204,0.287c-0.08,0.117-0.163,0.232-0.249,0.344
	c-0.08,0.109-0.162,0.215-0.244,0.321c-0.079,0.103-0.158,0.205-0.236,0.308c-0.087,0.117-0.174,0.232-0.26,0.349
	c-0.169,0.223-0.341,0.444-0.513,0.664c0.001-0.002,0.004-0.004,0.004-0.008c0,0.002,0,0.002,0,0.002
	c0,0.002-0.003,0.004-0.004,0.004c0.001,0,0.001,0,0.001,0c-0.047,0.061-0.092,0.119-0.139,0.179
	c0.003-0.002,0.006-0.006,0.008-0.008l0,0l0,0l0,0l0,0c-0.001,0-0.001,0-0.001,0c0,0.002-0.001,0.002-0.001,0.002l0,0
	c-0.001,0.002-0.002,0.002-0.003,0.004c-0.046,0.057-0.09,0.116-0.134,0.173c-0.002,0.002-0.004,0.004-0.005,0.006l0,0
	c-0.001,0.002-0.002,0.002-0.003,0.004l0,0c0,0-0.001,0-0.001,0.003c0,0,0,0,0.001-0.003c-0.046,0.061-0.091,0.116-0.135,0.176l0,0
	c-0.001,0-0.002,0.002-0.003,0.002h-0.001l0,0c0,0,0,0,0,0.003l0,0l0,0c-0.001,0.002-0.002,0.002-0.002,0.002l0,0l0,0l0,0
	c-0.001,0-0.001,0-0.001,0l0,0v0.002l0,0l0,0l0,0h-0.001l0,0l0,0l0,0l0,0c0,0.002,0,0.002,0,0.002l0,0l0,0l0,0l0,0l0,0l0,0l0,0l0,0
	l0,0l0,0l0,0l0,0c-0.001,0-0.001,0.002-0.002,0.002l0,0l0,0c0,0,0,0.002-0.001,0.002l0,0l0,0l0,0l0,0l0,0l0,0
	c-0.049,0.061-0.095,0.119-0.143,0.181l0,0c0,0.002,0,0.002-0.001,0.002l0,0l0,0l0,0c0,0.002-0.002,0.002-0.003,0.004
	c0.001,0,0.001,0,0.001-0.002c0,0.002,0,0.002-0.001,0.002c-0.001,0.002-0.003,0.004-0.004,0.004c0,0-0.001,0-0.001,0.002
	c0.001-0.002,0.001-0.002,0.001-0.002c-0.072,0.097-0.147,0.195-0.22,0.294c-0.091,0.119-0.184,0.24-0.275,0.36
	c-0.042,0.056-0.088,0.108-0.133,0.164c-0.003,0.004-0.005,0.009-0.008,0.011c0.007,0.01,0.007,0.022-0.004,0.031
	c-0.022,0.021-0.045,0.04-0.068,0.063c-0.01,0.01-0.02,0.019-0.029,0.027c-0.006,0.008-0.012,0.015-0.019,0.021
	c-0.008,0.008-0.017,0.016-0.025,0.019c-0.004,0.005-0.008,0.007-0.013,0.007c-0.042,0.355-0.102,0.71-0.18,1.059
	c-0.016,0.083-0.035,0.163-0.056,0.244c-0.035,0.144-0.069,0.288-0.108,0.432c-0.054,0.188-0.109,0.371-0.172,0.554
	c-0.051,0.155-0.107,0.307-0.166,0.458c-0.007,0.028-0.014,0.057-0.021,0.088c-0.005,0.015-0.01,0.029-0.014,0.045
	c0.009-0.002,0.021-0.004,0.031-0.004c0.01,0,0.019,0.002,0.029,0.004c0.025,0.007,0.049,0.022,0.063,0.049
	c0.015,0.024,0.019,0.054,0.01,0.079c-0.001,0.006-0.003,0.01-0.005,0.014c0.052,0.013,0.102,0.027,0.154,0.039
	c0.038,0.01,0.076,0.02,0.116,0.028c0.034,0.008,0.072,0.012,0.105,0.025c0.047-0.035,0.093-0.069,0.141-0.106
	c0.374-0.29,0.731-0.604,1.067-0.938c0.326-0.332,0.635-0.678,0.921-1.045c0.296-0.385,0.568-0.785,0.812-1.203
	c0.239-0.41,0.451-0.836,0.638-1.271c0.187-0.445,0.347-0.903,0.471-1.37c0.11-0.404,0.195-0.813,0.26-1.227
	c-0.014,0-0.027,0.002-0.042,0.002C22.283,13.146,22.269,13.154,22.25,13.154z"/>
<rect x="19.189" y="15.986" fill="none" width="0" height="0.001"/>
<path fill="none" d="M18.04,17.19c-0.001,0.023-0.003,0.047-0.004,0.07c-0.004,0.047-0.009,0.094-0.014,0.138
	c0.004-0.014,0.008-0.025,0.012-0.036c0.018-0.06,0.035-0.115,0.054-0.172C18.072,17.194,18.056,17.194,18.04,17.19z"/>
<line fill="none" stroke="#161616" stroke-width="0" stroke-linecap="round" stroke-linejoin="round" x1="19.273" y1="5.874" x2="19.273" y2="5.874"/>
<polyline fill="none" stroke="#161616" stroke-width="0" stroke-linecap="round" stroke-linejoin="round" points="19.189,15.986 
	19.188,15.986 19.188,15.986 "/>
<line fill="none" stroke="#161616" stroke-width="0" stroke-linecap="round" stroke-linejoin="round" x1="19.042" y1="16.175" x2="19.042" y2="16.175"/>
<line fill="none" stroke="#161616" stroke-width="0" stroke-linecap="round" stroke-linejoin="round" x1="19.187" y1="15.99" x2="19.187" y2="15.99"/>
<line fill="none" stroke="#161616" stroke-width="0" stroke-linecap="round" stroke-linejoin="round" x1="19.188" y1="15.988" x2="19.188" y2="15.988"/>
<line fill="none" stroke="#161616" stroke-width="0" stroke-linecap="round" stroke-linejoin="round" x1="19.188" y1="15.988" x2="19.188" y2="15.988"/>
<path fill="#161616" d="M22.743,11.064c-0.007-0.184-0.018-0.368-0.034-0.552c-0.018-0.202-0.042-0.405-0.07-0.605
	c-0.04-0.275-0.09-0.547-0.146-0.818c-0.076-0.348-0.168-0.689-0.275-1.028c-0.108-0.34-0.236-0.674-0.374-1.004
	c-0.271-0.638-0.607-1.249-0.992-1.826c-0.1-0.151-0.203-0.298-0.312-0.444c-0.003-0.025-0.013-0.048-0.029-0.067
	C20.5,4.709,20.485,4.701,20.47,4.696c-0.288-0.383-0.599-0.747-0.932-1.089c-0.485-0.5-1.021-0.95-1.588-1.353
	c-1.131-0.8-2.414-1.383-3.756-1.719c-0.684-0.171-1.388-0.274-2.091-0.315c-0.213-0.013-0.428-0.019-0.64-0.019
	c-0.498,0-0.994,0.034-1.487,0.098C9.628,0.346,9.283,0.407,8.94,0.485C8.6,0.562,8.263,0.659,7.931,0.768
	c-0.666,0.221-1.308,0.506-1.92,0.843c-0.625,0.346-1.213,0.755-1.763,1.21C3.699,3.277,3.197,3.789,2.745,4.339
	C2.3,4.881,1.905,5.464,1.566,6.079C1.229,6.692,0.952,7.338,0.734,8.004c-0.111,0.34-0.206,0.688-0.283,1.039
	c-0.009,0.039-0.018,0.08-0.025,0.12C0.42,9.169,0.416,9.175,0.411,9.182C0.396,9.271,0.375,9.358,0.353,9.446
	c-0.005,0.02-0.009,0.04-0.014,0.06C0.347,9.493,0.356,9.482,0.365,9.47c-0.037,0.207-0.068,0.415-0.095,0.623
	c-0.044,0.352-0.071,0.706-0.083,1.061c-0.012,0.352-0.004,0.704,0.016,1.056c0.041,0.705,0.152,1.406,0.324,2.09
	c0.171,0.681,0.412,1.343,0.707,1.979c0.592,1.277,1.436,2.439,2.455,3.411c0.264,0.252,0.541,0.491,0.829,0.716
	c-0.003,0.004-0.007,0.01-0.01,0.014c0,0.002,0,0.004-0.001,0.004c0.044,0.022,0.087,0.047,0.128,0.075v-0.002
	c0.008,0.005,0.014,0.009,0.021,0.016c0.094,0.063,0.183,0.134,0.271,0.197c0.001,0.002,0.001,0.002,0.002,0.004
	c0.128,0.091,0.258,0.179,0.39,0.267c0.298,0.194,0.605,0.372,0.92,0.539c0.314,0.167,0.638,0.313,0.965,0.448
	c1.296,0.534,2.695,0.811,4.094,0.83c0.715,0.012,1.431-0.049,2.133-0.17c0.697-0.12,1.381-0.312,2.041-0.562
	c0.652-0.246,1.28-0.556,1.875-0.919c0.594-0.36,1.15-0.781,1.668-1.242c1.024-0.918,1.877-2.029,2.505-3.251
	c0.315-0.617,0.573-1.265,0.772-1.931c0.202-0.682,0.336-1.386,0.408-2.093c0.034-0.353,0.053-0.706,0.052-1.059
	C22.752,11.403,22.75,11.233,22.743,11.064z M20.135,4.729L20.135,4.729c-0.068-0.088-0.139-0.174-0.208-0.259
	C19.996,4.555,20.067,4.641,20.135,4.729z M19.329,4.876c-0.033,0.014-0.063,0.031-0.094,0.051
	c-0.004-0.017-0.008-0.032-0.011-0.048c-0.012-0.057-0.025-0.112-0.038-0.168C19.233,4.765,19.282,4.819,19.329,4.876z
	 M15.743,2.228c0.021,0,0.043,0.001,0.063,0.001c0.021,0.001,0.04,0.001,0.061,0.001c0.01,0,0.018,0,0.027,0
	c0.021,0.016,0.04,0.03,0.063,0.045c0.03,0.024,0.064,0.045,0.096,0.068c0.03,0.02,0.06,0.04,0.089,0.06
	c0.042,0.027,0.084,0.054,0.127,0.082c0.036,0.024,0.074,0.045,0.111,0.067c0.065,0.04,0.132,0.075,0.198,0.113
	c0.076,0.043,0.152,0.088,0.228,0.134c0.04,0.023,0.078,0.049,0.115,0.074c0.034,0.023,0.07,0.047,0.104,0.071
	c0.064,0.046,0.132,0.092,0.197,0.139c0.065,0.045,0.131,0.088,0.197,0.134c0.077,0.053,0.153,0.107,0.23,0.163
	c0.066,0.047,0.13,0.096,0.195,0.144c0.133,0.096,0.271,0.188,0.403,0.286c0.047,0.034,0.093,0.068,0.138,0.103
	c0.127,0.102,0.25,0.209,0.367,0.323c0.064,0.062,0.124,0.124,0.185,0.188c0.022,0.022,0.042,0.047,0.063,0.071
	c0.001,0.003,0.002,0.008,0.002,0.012c0.017,0.063,0.032,0.126,0.048,0.189c0.032,0.131,0.063,0.263,0.09,0.396
	c0.053,0.256,0.097,0.515,0.132,0.775c0,0.002,0.001,0.004,0.001,0.006c0,0.002,0.001,0.005,0.001,0.008
	c0.088,0.665,0.117,1.337,0.085,2.006c-0.012,0.296-0.038,0.592-0.076,0.885c-0.04,0.014-0.079,0.027-0.121,0.037
	c-0.038,0.01-0.075,0.019-0.113,0.027c-0.08,0.02-0.159,0.04-0.236,0.065c-0.077,0.022-0.153,0.048-0.229,0.07
	c-0.08,0.023-0.156,0.045-0.237,0.066c-0.161,0.045-0.322,0.089-0.482,0.143c-0.047,0.017-0.094,0.033-0.143,0.05
	c-0.038,0.013-0.076,0.028-0.116,0.043c-0.081,0.031-0.164,0.062-0.244,0.092c-0.075,0.029-0.15,0.057-0.225,0.083
	c-0.073,0.027-0.146,0.053-0.222,0.079c-0.081,0.025-0.162,0.054-0.245,0.078c-0.08,0.023-0.159,0.046-0.241,0.071
	c-0.097,0.029-0.194,0.058-0.293,0.086c-0.083,0.024-0.163,0.051-0.245,0.077c-0.165,0.052-0.328,0.108-0.493,0.163
	c-0.046,0.016-0.091,0.032-0.137,0.047c0.001-0.009,0.002-0.017,0.002-0.025c0.002-0.01,0.005-0.02,0.008-0.03
	c0-0.004,0-0.01,0-0.016c-0.048,0.042-0.101,0.082-0.154,0.119c-0.004,0.029-0.005,0.059-0.007,0.088
	c0,0.011-0.001,0.023-0.002,0.034c0,0,0,0,0,0c-0.022-0.026-0.046-0.052-0.068-0.079c-0.009-0.001-0.016-0.009-0.019-0.018
	c-0.074-0.085-0.15-0.168-0.227-0.25c-0.169-0.178-0.343-0.35-0.522-0.517c-0.198-0.183-0.402-0.358-0.611-0.525
	c-0.055-0.044-0.108-0.087-0.162-0.129c-0.296-0.228-0.601-0.441-0.915-0.638c-0.309-0.191-0.625-0.369-0.95-0.53
	c-0.132-0.064-0.265-0.126-0.398-0.186c0.001,0,0.001-0.001,0.001-0.001c0.018-0.031,0.021-0.068,0.024-0.103
	c0.002-0.02,0.002-0.04,0.003-0.059c0-0.037,0.002-0.073,0.002-0.108c0.003-0.079,0.002-0.159-0.001-0.237
	c-0.008-0.166-0.018-0.332-0.04-0.497c-0.011-0.078-0.02-0.155-0.033-0.232c-0.013-0.076-0.026-0.152-0.037-0.23
	c-0.005-0.038-0.01-0.078-0.015-0.117c-0.006-0.043-0.007-0.086-0.011-0.128c0.005-0.106,0.012-0.21,0.02-0.315
	c0.013-0.167,0.029-0.334,0.043-0.502c0.015-0.176,0.029-0.354,0.041-0.529c0.004-0.054,0.006-0.109,0.01-0.163
	c0.002-0.017,0.004-0.033,0.006-0.048c0.017-0.134,0.026-0.27,0.037-0.405c0.005-0.063,0.01-0.126,0.017-0.189
	c0.006-0.021,0.011-0.042,0.016-0.063c0.013-0.054,0.025-0.108,0.039-0.162c0.015-0.066,0.034-0.132,0.051-0.198
	c0.009-0.031-0.006-0.062-0.032-0.077c0.065-0.026,0.131-0.051,0.198-0.075c0.167-0.063,0.335-0.119,0.505-0.173
	c0.341-0.107,0.686-0.198,1.036-0.271c0.272-0.059,0.548-0.105,0.823-0.144c0.342-0.045,0.684-0.074,1.027-0.089
	c0.172-0.007,0.345-0.01,0.518-0.009C15.57,2.223,15.656,2.225,15.743,2.228z M18.088,17.19c-0.019,0.057-0.036,0.112-0.054,0.172
	c-0.004,0.011-0.008,0.022-0.012,0.036c0.005-0.044,0.01-0.091,0.014-0.138c0.001-0.023,0.003-0.047,0.004-0.07
	C18.056,17.194,18.072,17.194,18.088,17.19z M9.717,17.003L9.717,17.003L9.717,17.003c0,0-0.001,0-0.002,0H9.717
	c-0.008,0-0.015,0.002-0.022,0.004c0.004-0.002,0.009-0.002,0.014-0.004c-0.023,0.004-0.045,0.009-0.067,0.011
	c-0.007-0.004-0.014-0.009-0.021-0.013c-0.067-0.035-0.134-0.071-0.201-0.106c-0.132-0.068-0.26-0.143-0.388-0.219
	c-0.119-0.073-0.235-0.147-0.354-0.222c-0.132-0.08-0.265-0.158-0.395-0.242c-0.057-0.035-0.113-0.074-0.168-0.112
	c-0.06-0.041-0.118-0.085-0.176-0.131c-0.195-0.147-0.392-0.293-0.586-0.442c-0.226-0.178-0.448-0.361-0.666-0.55
	c-0.06-0.054-0.12-0.105-0.18-0.16c-0.052-0.048-0.105-0.099-0.158-0.148c-0.051-0.047-0.1-0.098-0.149-0.148
	c-0.057-0.058-0.115-0.117-0.173-0.177c-0.02-0.02-0.042-0.038-0.061-0.058c-0.013-0.013-0.025-0.024-0.038-0.037
	c-0.001,0-0.001,0-0.001-0.002c-0.002-0.012-0.004-0.024-0.005-0.037c0.005-0.006,0.009-0.014,0.011-0.023
	c0.007-0.02,0.004-0.044-0.006-0.062c-0.004-0.008-0.009-0.012-0.015-0.018c-0.001-0.008-0.001-0.014-0.002-0.021
	c-0.005-0.062-0.01-0.12-0.015-0.182c0-0.009,0-0.017,0-0.023c0-0.012,0-0.022-0.001-0.034c0-0.011-0.001-0.022-0.002-0.033
	c-0.004-0.05-0.007-0.099-0.01-0.147c-0.006-0.099-0.011-0.197-0.015-0.295c-0.001-0.03-0.002-0.061-0.002-0.09
	c-0.008-0.312-0.002-0.625,0.017-0.938c0.017-0.274,0.043-0.548,0.079-0.821c0.052-0.378,0.123-0.754,0.212-1.125
	c0.085-0.348,0.187-0.691,0.305-1.03c0.015,0.01,0.03,0.02,0.047,0.028c0.006,0.004,0.013,0.007,0.02,0.009
	C6.555,9.371,6.563,9.34,6.553,9.307C6.544,9.283,6.577,9.269,6.595,9.283c0.003,0.003,0.006,0.005,0.01,0.007
	C6.621,9.269,6.64,9.249,6.661,9.229c0,0,0,0,0.001-0.001c0.002-0.001,0.004-0.002,0.006-0.003c0.023-0.02,0.049-0.038,0.076-0.054
	C6.765,9.158,6.785,9.145,6.805,9.13c0.029-0.019,0.059-0.038,0.088-0.056c0.123-0.081,0.245-0.161,0.366-0.243
	c0.133-0.089,0.266-0.179,0.402-0.267c0.002,0,0.003-0.002,0.005-0.003C7.672,8.56,7.68,8.556,7.687,8.553
	C7.738,8.528,7.79,8.504,7.844,8.48c0.24-0.108,0.477-0.223,0.717-0.33c0.182-0.075,0.364-0.148,0.542-0.232
	c0.085-0.04,0.168-0.081,0.253-0.122c0.04-0.019,0.08-0.04,0.121-0.058C9.57,7.7,9.664,7.66,9.757,7.619
	c0.003-0.001,0.006-0.003,0.008-0.004c0.053-0.018,0.105-0.037,0.159-0.054c0.105-0.033,0.21-0.068,0.316-0.099
	c0.11-0.032,0.22-0.059,0.332-0.086c0.088-0.02,0.177-0.039,0.266-0.055c0.024,0.01,0.047,0.019,0.071,0.029
	c0.668,0.283,1.306,0.632,1.906,1.038c0.196,0.133,0.389,0.272,0.578,0.417c0.043,0.034,0.086,0.068,0.13,0.103
	c0.228,0.182,0.445,0.372,0.657,0.57c0.105,0.098,0.207,0.198,0.307,0.299c0.002,0.001,0.003,0.003,0.004,0.006
	c0.007,0.004,0.012,0.01,0.016,0.014s0.01,0.008,0.013,0.012c0.002,0.002,0.005,0.005,0.008,0.008
	c0.159,0.163,0.313,0.332,0.464,0.504c0.039,0.045,0.078,0.09,0.115,0.136c0,0.101,0,0.204,0,0.306c0,0.123-0.002,0.247-0.006,0.37
	c-0.003,0.122-0.01,0.244-0.021,0.364c-0.004,0.033-0.007,0.066-0.011,0.1c-0.007,0.053-0.013,0.106-0.021,0.157
	c-0.011,0.063-0.021,0.125-0.033,0.188c-0.023,0.126-0.049,0.251-0.071,0.377c-0.014,0.064-0.025,0.128-0.035,0.191
	c-0.012,0.063-0.024,0.127-0.033,0.189c-0.01,0.07-0.019,0.138-0.029,0.208c-0.01,0.072-0.019,0.147-0.026,0.221
	c-0.015,0.118-0.026,0.237-0.037,0.358c-0.012,0.12-0.025,0.238-0.039,0.358c-0.015,0.127-0.028,0.255-0.045,0.382
	c-0.016,0.132-0.032,0.264-0.046,0.396c-0.006,0.051-0.012,0.103-0.017,0.153c-0.004,0.036-0.007,0.072-0.01,0.107
	c-0.003,0.024-0.007,0.049-0.008,0.074c-0.001,0.03-0.002,0.062-0.004,0.09c0,0.006,0,0.011,0,0.017
	c-0.023,0.017-0.048,0.033-0.071,0.052c-0.018,0-0.037,0.002-0.055,0.004c-0.027,0.004-0.055,0.023-0.07,0.047
	c-0.008,0.014-0.016,0.026-0.018,0.04c0,0.004,0,0.006,0,0.006c-0.066,0.045-0.133,0.09-0.2,0.134
	c-0.136,0.088-0.273,0.174-0.413,0.255c-0.021,0.014-0.042,0.025-0.065,0.037c-0.358,0.209-0.731,0.395-1.111,0.56
	c-0.022,0.01-0.044,0.02-0.065,0.027c-0.76,0.319-1.551,0.563-2.363,0.706C10.027,16.958,9.872,16.98,9.717,17.003
	C9.718,17.003,9.718,17.003,9.717,17.003L9.717,17.003z M7.192,1.372c0.452-0.188,0.915-0.348,1.387-0.478
	C9.045,0.767,9.521,0.672,10,0.606c0.488-0.064,0.978-0.097,1.471-0.098c0.498,0,0.996,0.033,1.49,0.098
	c0.484,0.068,0.965,0.166,1.437,0.295c0.257,0.07,0.513,0.151,0.762,0.24c-0.002,0.006-0.005,0.014-0.008,0.02
	c-0.004,0.012-0.006,0.024-0.007,0.037c-0.003,0.025-0.002,0.05,0,0.076c0.004,0.054,0.014,0.107,0.026,0.161
	c0.005,0.019,0.011,0.039,0.017,0.058c0.004,0.017,0.009,0.035,0.016,0.052c0.022,0.071,0.048,0.143,0.074,0.212
	c0.016,0.036,0.03,0.072,0.046,0.105c0.018,0.032,0.032,0.063,0.053,0.092c0.029,0.045,0.066,0.09,0.104,0.131h-0.019
	c-0.18,0-0.359,0.005-0.538,0.013c-0.363,0.017-0.725,0.052-1.084,0.104c-0.707,0.101-1.403,0.273-2.076,0.51
	c-0.187,0.065-0.373,0.137-0.555,0.212c-0.011-0.008-0.024-0.012-0.04-0.012c-0.018,0-0.037,0.007-0.049,0.02
	c-0.006,0.008-0.013,0.016-0.021,0.025c-0.001,0.002-0.003,0.006-0.005,0.01c-0.056-0.012-0.113-0.022-0.171-0.035
	c-0.087-0.02-0.174-0.04-0.26-0.059c-0.017-0.003-0.033-0.007-0.049-0.011c-0.058-0.018-0.116-0.036-0.175-0.054
	c-0.082-0.024-0.165-0.046-0.248-0.068c-0.087-0.021-0.174-0.045-0.262-0.064C9.846,2.658,9.763,2.641,9.677,2.627
	c-0.1-0.017-0.2-0.031-0.302-0.042C9.287,2.576,9.199,2.57,9.112,2.563c-0.177-0.015-0.354-0.029-0.533-0.04
	C8.408,2.515,8.236,2.51,8.065,2.504C8.003,2.501,7.939,2.5,7.876,2.5H7.864c-0.054,0-0.107,0.003-0.162,0.005
	C7.678,2.506,7.653,2.51,7.628,2.512c-0.02,0-0.039,0.002-0.058,0.004C7.506,2.51,7.442,2.504,7.377,2.498
	C7.244,2.487,7.109,2.476,6.975,2.467C6.971,2.465,6.967,2.463,6.964,2.462c-0.001,0-0.003-0.001-0.004-0.001
	C6.953,2.411,6.947,2.36,6.942,2.309C6.929,2.198,6.919,2.087,6.91,1.975C6.897,1.82,6.887,1.664,6.882,1.509
	C6.984,1.461,7.088,1.415,7.192,1.372z M1.34,7.224c0.182-0.428,0.391-0.845,0.624-1.247c0.239-0.412,0.505-0.807,0.794-1.185
	C3.042,4.428,3.346,4.081,3.67,3.754c0.336-0.34,0.697-0.658,1.076-0.951c0.38-0.292,0.778-0.56,1.192-0.804
	C6.215,1.837,6.5,1.688,6.79,1.551c0.007,0.142,0.017,0.283,0.028,0.424c0.01,0.112,0.022,0.223,0.035,0.334
	c0.005,0.05,0.012,0.1,0.019,0.151C6.837,2.461,6.81,2.495,6.81,2.528c0,0.007,0.001,0.013,0.002,0.018
	C6.805,2.553,6.799,2.558,6.792,2.562C6.788,2.566,6.784,2.569,6.78,2.573C6.765,2.58,6.749,2.586,6.735,2.597
	C6.716,2.608,6.699,2.621,6.681,2.634C6.654,2.657,6.626,2.68,6.6,2.702C6.543,2.748,6.489,2.796,6.437,2.844
	C6.331,2.942,6.231,3.047,6.134,3.155c-0.196,0.22-0.379,0.451-0.563,0.684c-0.09,0.115-0.181,0.229-0.27,0.348
	C5.217,4.297,5.134,4.41,5.05,4.52C4.96,4.638,4.869,4.756,4.779,4.876C4.738,4.93,4.696,4.984,4.655,5.04
	C4.606,5.107,4.558,5.174,4.51,5.241C4.497,5.259,4.485,5.277,4.473,5.295c-0.026,0.041-0.053,0.082-0.08,0.12
	C4.371,5.451,4.348,5.483,4.326,5.518C4.319,5.528,4.312,5.54,4.305,5.55C4.263,5.625,4.22,5.7,4.177,5.774
	C4.149,5.82,4.124,5.866,4.098,5.913C4.116,5.905,4.134,5.897,4.15,5.89c0.031-0.012,0.043,0.036,0.014,0.047
	c-0.036,0.015-0.071,0.03-0.106,0.046c-0.01,0.02-0.023,0.04-0.034,0.061C4.012,6.065,4.013,6.092,4.025,6.112
	C4.011,6.12,3.997,6.128,3.982,6.136C3.979,6.138,3.976,6.139,3.973,6.14l0,0C3.972,6.138,3.97,6.135,3.968,6.132
	C3.956,6.117,3.944,6.101,3.933,6.085C3.906,6.091,3.88,6.091,3.854,6.088C3.85,6.095,3.846,6.1,3.839,6.104
	C3.834,6.108,3.828,6.11,3.823,6.112c0.017,0.026,0.036,0.051,0.055,0.075c-0.021,0.011-0.041,0.02-0.06,0.03
	C3.807,6.223,3.797,6.228,3.785,6.233C3.774,6.225,3.761,6.22,3.747,6.22c-0.011,0-0.022,0.003-0.033,0.008
	c-0.033,0.017-0.067,0.035-0.1,0.055C3.578,6.305,3.542,6.325,3.506,6.349C3.439,6.39,3.372,6.432,3.306,6.475
	C3.17,6.563,3.036,6.654,2.904,6.748c-0.269,0.191-0.528,0.393-0.78,0.605c-0.248,0.21-0.487,0.43-0.716,0.66
	C1.295,8.127,1.183,8.243,1.077,8.362C1.022,8.421,0.97,8.48,0.918,8.541C0.9,8.562,0.882,8.584,0.864,8.606
	C0.991,8.134,1.153,7.674,1.34,7.224z M0.541,12.616c-0.013-0.122-0.024-0.244-0.032-0.364C0.49,12,0.482,11.747,0.481,11.493
	C0.48,11,0.512,10.508,0.576,10.019C0.627,9.654,0.694,9.294,0.78,8.937c0.031-0.04,0.063-0.078,0.095-0.114
	c0.051-0.062,0.104-0.122,0.156-0.182C1.085,8.582,1.138,8.522,1.19,8.462c0.108-0.118,0.218-0.235,0.33-0.351
	c0.112-0.114,0.226-0.227,0.343-0.336c0.252-0.237,0.517-0.461,0.79-0.672c0.18-0.139,0.363-0.271,0.549-0.397
	c0.09-0.062,0.18-0.121,0.272-0.179C3.47,6.532,3.466,6.539,3.463,6.545c-0.004,0.009-0.005,0.019,0,0.027
	c0.003,0.003,0.005,0.006,0.01,0.009c0.006,0.002,0.014,0.004,0.02,0.002c0.017-0.006,0.033-0.013,0.049-0.021
	c0.016-0.009,0.03-0.019,0.046-0.028c0.01-0.005,0.021-0.013,0.029-0.018C3.64,6.501,3.664,6.487,3.686,6.471
	C3.727,6.443,3.769,6.417,3.81,6.387c0.041-0.028,0.082-0.056,0.124-0.084C3.94,6.298,3.946,6.295,3.953,6.291
	C3.956,6.296,3.96,6.3,3.963,6.306C4.016,6.377,4.068,6.449,4.12,6.521C4.162,6.58,4.204,6.64,4.247,6.698
	c0.052,0.074,0.105,0.147,0.159,0.219c0.091,0.124,0.185,0.244,0.277,0.367C4.73,7.348,4.779,7.411,4.825,7.476
	c0.048,0.067,0.096,0.134,0.144,0.201c0.099,0.143,0.198,0.285,0.3,0.423c0.052,0.071,0.105,0.14,0.158,0.209
	c0.024,0.033,0.051,0.065,0.077,0.096C5.525,8.433,5.547,8.46,5.57,8.487c0.111,0.13,0.223,0.258,0.336,0.385
	c0.11,0.123,0.226,0.242,0.357,0.342C6.301,9.244,6.34,9.271,6.378,9.299c-0.004,0.014-0.01,0.029-0.014,0.043
	C6.299,9.524,6.24,9.708,6.186,9.894c-0.109,0.371-0.199,0.747-0.269,1.127c-0.136,0.739-0.196,1.49-0.183,2.241
	c0.002,0.109,0.005,0.221,0.01,0.331c0.003,0.062,0.005,0.122,0.009,0.187c0.001,0.03,0.002,0.063,0.007,0.096
	c0.002,0.011,0.003,0.021,0.005,0.032c0.003,0.032,0.005,0.064,0.008,0.096c0.003,0.04,0.006,0.076,0.011,0.114
	c-0.044,0.033-0.089,0.065-0.132,0.1c-0.01,0.002-0.017,0.004-0.026,0.009C5.564,14.271,5.5,14.313,5.44,14.355
	c-0.067,0.049-0.131,0.101-0.195,0.151l0,0c-0.05,0.037-0.098,0.075-0.148,0.108c-0.031,0.023-0.063,0.044-0.095,0.067
	c-0.032,0.022-0.065,0.039-0.097,0.061c-0.055,0.033-0.109,0.069-0.162,0.105c-0.066,0.043-0.129,0.087-0.193,0.13
	c-0.06,0.041-0.116,0.084-0.173,0.126c-0.024,0.018-0.047,0.035-0.071,0.053c-0.027,0.02-0.054,0.04-0.081,0.058
	c-0.036,0.025-0.071,0.049-0.105,0.074c-0.021,0.014-0.042,0.027-0.063,0.043c-0.061,0.037-0.12,0.076-0.182,0.11
	c-0.062,0.035-0.125,0.072-0.188,0.105c-0.063,0.034-0.128,0.071-0.192,0.106c-0.041,0.021-0.08,0.045-0.121,0.067
	c-0.002-0.011-0.007-0.021-0.014-0.026c-0.011-0.01-0.025-0.016-0.04-0.016c-0.015,0-0.029,0.006-0.04,0.016
	c-0.036,0.038-0.07,0.075-0.108,0.111c-0.016,0.013-0.03,0.03-0.047,0.044c-0.01,0.01-0.019,0.017-0.029,0.022
	c-0.022,0.014-0.046,0.026-0.067,0.04c-0.013,0.003-0.02,0.017-0.021,0.029c-0.006,0.004-0.012,0.008-0.017,0.012
	c-0.003,0.002-0.006,0.006-0.01,0.008c-0.014-0.03-0.027-0.061-0.042-0.091c-0.008-0.017-0.029-0.032-0.049-0.038
	c-0.006-0.002-0.014-0.002-0.021-0.002c-0.014,0-0.028,0.002-0.041,0.01c-0.003,0.003-0.006,0.005-0.008,0.007
	c-0.022-0.022-0.043-0.041-0.065-0.063c-0.009-0.008-0.019-0.014-0.029-0.017c-0.215-0.222-0.422-0.451-0.619-0.69
	c-0.06-0.074-0.118-0.146-0.177-0.222c0,0,0,0,0.001,0c-0.001,0-0.001-0.002-0.001-0.002l0,0c-0.001,0-0.002-0.001-0.002-0.001l0,0
	H1.929c0,0,0,0,0.001,0c-0.001,0-0.001,0-0.001,0l0,0c0-0.002,0-0.002,0-0.002l0,0l0,0c0,0,0,0-0.001,0l0,0l0,0l0,0l0,0
	c-0.453-0.588-0.848-1.218-1.175-1.882c-0.018-0.036-0.035-0.07-0.052-0.105c-0.006-0.013-0.02-0.023-0.031-0.027
	c-0.031-0.065-0.063-0.134-0.093-0.2C0.57,12.622,0.556,12.616,0.541,12.616L0.541,12.616z M4.725,20.146
	c-0.355-0.279-0.693-0.578-1.012-0.896c-0.339-0.336-0.654-0.696-0.946-1.075c-0.285-0.37-0.546-0.757-0.783-1.16
	c-0.243-0.411-0.456-0.839-0.643-1.278c-0.186-0.444-0.342-0.896-0.47-1.359c-0.129-0.468-0.224-0.943-0.291-1.425
	c-0.007-0.053-0.014-0.107-0.02-0.16c0.012,0.026,0.023,0.051,0.036,0.078c-0.001,0.002-0.001,0.003-0.001,0.005
	C0.59,12.893,0.594,12.906,0.6,12.92c0.322,0.67,0.708,1.307,1.155,1.898c0.08,0.106,0.163,0.211,0.246,0.313
	c0.012,0.014,0.023,0.029,0.036,0.043c0.007,0.01,0.014,0.018,0.021,0.026c0.1,0.125,0.203,0.243,0.308,0.362
	c0.088,0.099,0.178,0.198,0.269,0.293c0.004,0.011,0.01,0.022,0.018,0.03c0.032,0.035,0.063,0.069,0.096,0.104
	c0.024,0.022,0.048,0.047,0.072,0.069c0,0.004,0,0.006,0.001,0.011c0.003,0.02,0.006,0.039,0.011,0.058
	c0.005,0.021,0.012,0.041,0.018,0.063c0.008,0.021,0.016,0.046,0.025,0.067c0.015,0.038,0.028,0.074,0.042,0.11
	c0.02,0.051,0.04,0.101,0.06,0.15c0.053,0.126,0.105,0.252,0.158,0.378c0.019,0.041,0.037,0.084,0.055,0.127
	c0.033,0.074,0.067,0.146,0.1,0.224c0.017,0.04,0.035,0.079,0.054,0.116c0.035,0.071,0.07,0.145,0.105,0.216
	c0.021,0.039,0.039,0.081,0.06,0.12c0.039,0.068,0.077,0.141,0.115,0.21c0.024,0.046,0.052,0.089,0.079,0.134
	c0.028,0.048,0.055,0.093,0.081,0.14c0.13,0.208,0.258,0.42,0.384,0.632c0.066,0.112,0.132,0.226,0.198,0.337
	c0.064,0.107,0.131,0.212,0.201,0.313c0.056,0.081,0.113,0.163,0.17,0.243c0.027,0.038,0.053,0.075,0.08,0.112
	c0.015,0.021,0.028,0.041,0.043,0.062c0.013,0.021,0.028,0.039,0.043,0.059c-0.003,0.004-0.007,0.006-0.009,0.008
	c-0.034,0.035-0.065,0.071-0.096,0.107C4.774,20.084,4.749,20.115,4.725,20.146z M11.471,22.463h-0.02
	c-0.483,0-0.964-0.033-1.442-0.095c-0.478-0.067-0.951-0.164-1.417-0.287c-0.471-0.127-0.931-0.289-1.382-0.476
	c-0.443-0.189-0.875-0.406-1.291-0.651c-0.375-0.219-0.735-0.461-1.081-0.722c0.021-0.025,0.041-0.051,0.061-0.074
	c0.017-0.02,0.034-0.041,0.05-0.06c0.031-0.034,0.064-0.067,0.098-0.096c0.018-0.013,0.035-0.025,0.054-0.036
	c0.043,0.034,0.089,0.061,0.137,0.087c0.057,0.026,0.114,0.055,0.173,0.081c0.062,0.036,0.127,0.068,0.191,0.104
	c0.024,0.014,0.048,0.028,0.074,0.04c0.044,0.021,0.088,0.041,0.134,0.064c0.029,0.014,0.058,0.027,0.089,0.042
	c0.048,0.019,0.094,0.037,0.141,0.056c0.025,0.011,0.05,0.021,0.075,0.028c0.051,0.019,0.101,0.035,0.151,0.054
	c0.074,0.025,0.149,0.043,0.223,0.065c0.029,0.008,0.059,0.013,0.086,0.021c0.042,0.009,0.083,0.019,0.125,0.028
	c0.076,0.018,0.153,0.036,0.229,0.054c0.151,0.037,0.302,0.076,0.454,0.114c0.018,0.004,0.038,0.008,0.055,0.012
	c0.018,0.004,0.036,0.008,0.056,0.01c0.041,0.008,0.083,0.016,0.125,0.021c0.079,0.014,0.158,0.023,0.235,0.036
	c0.155,0.02,0.31,0.033,0.466,0.037c0.16,0.002,0.319,0.005,0.479,0.011c0.104,0.003,0.209,0.009,0.314,0.011
	c0.037,0.002,0.069-0.025,0.077-0.059c0.014,0,0.027-0.002,0.042-0.002c0.004,0.007,0.01,0.015,0.019,0.019
	c0.012,0.009,0.029,0.011,0.042,0.007c0.016-0.004,0.03-0.017,0.037-0.032c0.024-0.002,0.049-0.004,0.074-0.006
	c0.333,0.219,0.677,0.42,1.03,0.604c0.571,0.294,1.169,0.542,1.784,0.736c0.202,0.064,0.406,0.122,0.613,0.173
	C12.379,22.435,11.926,22.463,11.471,22.463z M12.83,22.195c-0.009-0.002-0.02-0.004-0.027-0.008c0.012,0,0.022-0.001,0.035-0.003
	C12.835,22.188,12.832,22.191,12.83,22.195z M14.714,21.794c-0.014,0-0.027,0-0.04,0c-0.029,0-0.058,0.002-0.085,0.004
	c-0.007-0.004-0.016-0.006-0.024-0.008c0.04-0.014,0.08-0.025,0.12-0.039c0.01-0.004,0.019-0.006,0.03-0.01
	C14.709,21.758,14.709,21.776,14.714,21.794z M17.415,19.807c-0.038,0.128-0.077,0.253-0.118,0.379
	c-0.004,0.012-0.009,0.023-0.013,0.035c-0.479,0.329-0.98,0.621-1.503,0.875c-0.159,0.076-0.321,0.148-0.482,0.218
	c0.005-0.002,0.009-0.004,0.014-0.006c-0.006,0.004-0.012,0.006-0.018,0.008c-0.002,0-0.004,0.002-0.006,0.002
	c0.001,0,0.004,0,0.006-0.002c-0.736,0.309-1.504,0.536-2.286,0.686c-0.011,0.002-0.021,0.008-0.03,0.016
	c-0.005,0.002-0.009,0.004-0.013,0.006c-0.103,0.019-0.204,0.035-0.306,0.053c-0.016,0.002-0.033,0.017-0.041,0.028
	c-0.006,0.012-0.009,0.022-0.009,0.034c-0.458-0.127-0.908-0.284-1.347-0.471c-0.581-0.245-1.14-0.543-1.671-0.886
	c0.002-0.01,0.001-0.021-0.001-0.03c-0.003-0.01-0.008-0.02-0.016-0.029c0-0.022-0.005-0.045-0.017-0.065
	c-0.016-0.025-0.032-0.046-0.056-0.061c-0.021-0.012-0.042-0.021-0.065-0.026c-0.024-0.004-0.047-0.004-0.07-0.006
	c-0.013,0-0.024,0-0.036-0.002c0.001-0.021,0.004-0.045,0.007-0.066c0.011-0.079,0.025-0.156,0.04-0.235
	c0.017-0.078,0.035-0.155,0.051-0.236c0.034-0.16,0.061-0.321,0.091-0.481c0.032-0.167,0.065-0.335,0.109-0.5
	c0.042-0.164,0.09-0.326,0.142-0.485c0.052-0.16,0.112-0.315,0.161-0.477c0.025-0.078,0.046-0.158,0.067-0.236
	C9.999,17.842,9.999,17.84,10,17.838c0-0.2,0.003-0.396,0.028-0.595c-0.008-0.004-0.016-0.008-0.023-0.014
	c-0.001-0.002-0.002-0.004-0.002-0.004c-0.003-0.004-0.007-0.009-0.013-0.012C9.985,17.21,9.98,17.21,9.974,17.21
	c-0.002,0-0.003,0-0.004,0c-0.033-0.021-0.066-0.041-0.099-0.061c0.355-0.054,0.708-0.125,1.058-0.214
	c0.398-0.099,0.792-0.221,1.177-0.364c0.389-0.146,0.771-0.315,1.142-0.503c0.476-0.243,0.938-0.519,1.374-0.824
	c0.002,0.02,0.004,0.038,0.005,0.057c0,0.002,0.002,0.004,0.002,0.006c0.029-0.01,0.058-0.019,0.087-0.03
	c-0.001-0.013-0.002-0.026-0.003-0.039c0.003,0.002,0.007,0.002,0.011,0.003c0.014,0.004,0.028,0.01,0.043,0.016
	c0.02-0.008,0.041-0.016,0.059-0.021c0.031-0.011,0.044,0.036,0.014,0.047c-0.001,0-0.002,0-0.003,0.002
	c0.008,0.002,0.016,0.005,0.022,0.007c0.074,0.033,0.147,0.063,0.22,0.097c0.086,0.04,0.171,0.08,0.258,0.119
	c0.027,0.014,0.058,0.026,0.088,0.041c0,0,0.003,0.002,0.004,0.002c0.129,0.06,0.258,0.118,0.385,0.18
	c0.039,0.02,0.078,0.041,0.117,0.061c0.03,0.017,0.059,0.029,0.088,0.047c0.08,0.048,0.158,0.093,0.237,0.141
	c0.156,0.093,0.312,0.186,0.467,0.282c0.035,0.021,0.07,0.047,0.104,0.068c0.028,0.021,0.058,0.038,0.084,0.059
	c0.064,0.045,0.129,0.092,0.19,0.138c0.034,0.024,0.065,0.051,0.098,0.076c0.033,0.026,0.064,0.056,0.096,0.081
	c0.067,0.057,0.133,0.114,0.198,0.169c0.068,0.056,0.139,0.111,0.211,0.163c0.033,0.022,0.068,0.049,0.104,0.069
	c0.033,0.021,0.069,0.043,0.106,0.061c0.002,0.002,0.004,0.002,0.005,0.002c0,0.012,0,0.023-0.001,0.035
	c-0.003,0.029-0.004,0.061-0.006,0.093c-0.005,0.063-0.012,0.129-0.018,0.192c-0.008,0.086-0.016,0.168-0.022,0.253
	c-0.004,0.043-0.006,0.087-0.011,0.13c-0.005,0.04-0.009,0.078-0.016,0.118c-0.01,0.058-0.02,0.117-0.03,0.175
	c-0.016,0.068-0.029,0.136-0.045,0.202c-0.03,0.129-0.055,0.259-0.081,0.387c-0.022,0.114-0.044,0.229-0.072,0.343
	c-0.016,0.065-0.031,0.132-0.049,0.197c-0.018,0.067-0.036,0.132-0.054,0.196C17.479,19.582,17.446,19.694,17.415,19.807z
	 M22.077,14.357c-0.124,0.467-0.284,0.925-0.471,1.37c-0.187,0.436-0.398,0.861-0.638,1.271c-0.243,0.418-0.516,0.818-0.812,1.203
	c-0.286,0.367-0.595,0.713-0.921,1.045c-0.336,0.335-0.693,0.648-1.067,0.938c-0.048,0.037-0.094,0.071-0.141,0.106
	c-0.033-0.014-0.071-0.018-0.105-0.025c-0.04-0.009-0.078-0.019-0.116-0.028c-0.053-0.012-0.103-0.026-0.154-0.039
	c0.002-0.004,0.004-0.008,0.005-0.014c0.009-0.025,0.005-0.055-0.01-0.079c-0.014-0.026-0.037-0.042-0.063-0.049
	c-0.011-0.002-0.02-0.004-0.029-0.004c-0.011,0-0.022,0.002-0.031,0.004c0.004-0.016,0.009-0.03,0.014-0.045
	c0.008-0.031,0.015-0.06,0.021-0.088c0.059-0.151,0.115-0.303,0.166-0.458c0.063-0.183,0.118-0.366,0.172-0.554
	c0.039-0.144,0.073-0.288,0.108-0.432c0.021-0.081,0.04-0.161,0.056-0.244c0.078-0.349,0.138-0.703,0.18-1.059
	c0.005,0,0.009-0.002,0.013-0.007c0.009-0.003,0.018-0.011,0.025-0.019c0.007-0.006,0.013-0.013,0.019-0.021
	c0.01-0.009,0.02-0.018,0.029-0.027c0.023-0.022,0.046-0.041,0.068-0.063c0.011-0.009,0.011-0.021,0.004-0.031
	c0.003-0.002,0.005-0.007,0.008-0.011c0.045-0.056,0.091-0.108,0.133-0.164c0.092-0.12,0.185-0.241,0.275-0.36
	c0.072-0.099,0.147-0.197,0.22-0.294c0,0,0,0-0.001,0.002c0-0.002,0.001-0.002,0.001-0.002c0.001,0,0.003-0.002,0.004-0.004
	c0.001,0,0.001,0,0.001-0.002c0,0.002,0,0.002-0.001,0.002c0.001-0.002,0.003-0.002,0.003-0.004l0,0l0.001-0.002l0,0
	c0.048-0.062,0.094-0.12,0.143-0.181l0,0l0,0l0,0l0,0l0,0l0,0c0.001,0,0.001-0.002,0.001-0.002c0.001,0,0.001-0.002,0.002-0.002l0,0
	l0,0l0,0l0,0l0,0l0,0l0,0l0,0v-0.002l0,0l0,0l0,0h0.001l0,0l0,0l0,0l0,0v-0.002l0,0c0,0,0,0,0.001,0l0,0l0,0l0,0
	c0,0,0.001,0,0.002-0.002l0,0l0,0c0-0.003,0-0.003,0-0.003l0,0h0.001c0.001,0,0.002-0.002,0.003-0.002l0,0
	c0.044-0.06,0.089-0.115,0.135-0.176c-0.001,0.003-0.001,0.003-0.001,0.003c0-0.003,0.001-0.003,0.001-0.003l0,0
	c0.001-0.002,0.002-0.002,0.003-0.004l0,0c0.001-0.002,0.003-0.004,0.005-0.006c0.044-0.057,0.088-0.116,0.134-0.173
	c0.001-0.002,0.002-0.002,0.003-0.004l0,0c0,0,0.001,0,0.001-0.002c0,0,0,0,0.001,0l0,0l0,0l0,0l0,0
	c-0.002,0.002-0.005,0.006-0.008,0.008c0.047-0.06,0.092-0.118,0.139-0.179c0,0,0,0-0.001,0c0.001,0,0.004-0.002,0.004-0.004
	c0,0,0,0,0-0.002c0,0.004-0.003,0.006-0.004,0.008c0.172-0.22,0.344-0.441,0.513-0.664c0.086-0.116,0.173-0.231,0.26-0.349
	c0.078-0.103,0.157-0.205,0.236-0.308c0.082-0.106,0.164-0.212,0.244-0.321c0.086-0.111,0.169-0.227,0.249-0.344
	c0.069-0.097,0.133-0.192,0.204-0.287c0.006-0.011,0.011-0.023,0.013-0.035c0.077,0.004,0.154,0.01,0.232,0.012
	c0.145,0.009,0.289,0.011,0.435,0.011h0.028c0.001,0,0.002,0,0.003,0c0.023,0,0.046,0,0.069,0c0.052,0,0.104,0,0.156-0.005
	c0.019,0,0.033-0.008,0.045-0.021c0.015,0,0.028-0.002,0.042-0.002C22.272,13.545,22.188,13.953,22.077,14.357z M22.456,11.813
	c-0.003,0.129-0.01,0.26-0.017,0.389c-0.018,0.253-0.043,0.504-0.077,0.755c-0.005,0.035-0.01,0.071-0.014,0.104
	c-0.02,0.002-0.038,0.002-0.056,0.002c-0.011-0.012-0.026-0.02-0.043-0.02c-0.048,0-0.099,0-0.147,0.002c-0.027,0-0.053,0-0.081,0
	l0,0c-0.01,0-0.02,0-0.03,0c-0.142,0-0.283-0.002-0.424-0.004c-0.079-0.004-0.157-0.008-0.236-0.012
	c-0.026,0-0.053-0.002-0.08-0.004c-0.009,0-0.015-0.002-0.021-0.002c-0.004,0-0.007,0-0.011,0.002c0-0.002-0.001-0.002-0.001-0.002
	c-0.013,0-0.026,0-0.039-0.003c-0.007-0.033-0.016-0.066-0.024-0.1c-0.003-0.012-0.006-0.023-0.009-0.038
	c0-0.006,0-0.011-0.002-0.019c-0.002-0.009-0.005-0.02-0.008-0.027c-0.009-0.034-0.018-0.071-0.027-0.109
	c-0.028-0.131-0.051-0.263-0.072-0.394c-0.007-0.034-0.014-0.069-0.021-0.103c-0.006-0.037-0.013-0.072-0.02-0.107
	c-0.01-0.037-0.019-0.075-0.026-0.113c-0.009-0.035-0.018-0.069-0.025-0.104c-0.016-0.06-0.033-0.121-0.051-0.182
	c-0.022-0.066-0.044-0.132-0.068-0.197c-0.025-0.068-0.05-0.136-0.076-0.203c-0.028-0.067-0.057-0.135-0.086-0.203
	c-0.051-0.123-0.104-0.246-0.161-0.367c-0.031-0.063-0.059-0.128-0.088-0.19c-0.021-0.04-0.039-0.08-0.059-0.119
	c-0.013-0.024-0.022-0.047-0.034-0.07c-0.033-0.061-0.063-0.123-0.097-0.182c-0.03-0.053-0.059-0.105-0.089-0.156
	c-0.004-0.008-0.008-0.015-0.011-0.022c-0.03-0.058-0.063-0.115-0.093-0.171c-0.015-0.026-0.031-0.052-0.046-0.079
	c-0.014-0.024-0.029-0.049-0.044-0.074c-0.033-0.054-0.064-0.11-0.1-0.163c-0.037-0.056-0.072-0.111-0.11-0.165
	c-0.04-0.056-0.079-0.112-0.119-0.167c-0.021-0.026-0.041-0.054-0.063-0.081c-0.006-0.015-0.014-0.028-0.02-0.042
	c-0.028-0.065-0.055-0.128-0.081-0.191c-0.009-0.021-0.018-0.039-0.025-0.058C19.42,8.81,19.412,8.798,19.4,8.79
	c-0.002-0.001-0.004-0.002-0.007-0.003c0.012-0.092,0.022-0.185,0.032-0.279c0.037-0.333,0.059-0.668,0.064-1.003
	c0.012-0.679-0.037-1.358-0.148-2.028c-0.021-0.119-0.042-0.238-0.065-0.356c0.007-0.001,0.016-0.005,0.021-0.01
	c0.038-0.025,0.076-0.05,0.118-0.068c0.124-0.048,0.257-0.068,0.387-0.087c0.107-0.01,0.216-0.018,0.324-0.024
	c0.051-0.003,0.104-0.007,0.155-0.012c0.253,0.339,0.486,0.691,0.7,1.057c0.234,0.402,0.442,0.822,0.626,1.251
	c0.185,0.441,0.341,0.894,0.468,1.355c0.128,0.461,0.224,0.931,0.289,1.406c0.064,0.484,0.097,0.973,0.1,1.461
	C22.466,11.571,22.46,11.692,22.456,11.813z"/>
<path fill="#161616" d="M19.095,4.325c-0.009-0.009-0.017-0.019-0.025-0.026c0-0.001-0.001-0.001-0.001-0.001
	C19.077,4.306,19.086,4.314,19.095,4.325z"/>
<polygon fill="#161616" points="20.986,13.011 20.986,13.011 20.984,13.001 "/>
<path fill="#161616" d="M19.318,9.274c-0.002,0.013-0.006,0.025-0.008,0.038C19.313,9.299,19.316,9.287,19.318,9.274
	C19.318,9.274,19.318,9.274,19.318,9.274z"/>
<polygon fill="#161616" points="18.263,17.063 18.253,17.075 18.253,17.075 "/>
</svg>
