<?xml version="1.0" encoding="utf-8"?>
<!-- Generator: Adobe Illustrator 16.0.0, SVG Export Plug-In . SVG Version: 6.00 Build 0)  -->
<!DOCTYPE svg PUBLIC "-//W3C//DTD SVG 1.1//EN" "http://www.w3.org/Graphics/SVG/1.1/DTD/svg11.dtd">
<svg version="1.1" id="Layer_1" xmlns="http://www.w3.org/2000/svg" xmlns:xlink="http://www.w3.org/1999/xlink" x="0px" y="0px"
	 width="18px" height="18px" viewBox="0 0 18 18" enable-background="new 0 0 18 18" xml:space="preserve">
<g>
	<circle fill="#F2F2F2" cx="8.999" cy="9" r="8.7"/>
	
		<radialGradient id="SVGID_1_" cx="-1.0615" cy="18.9346" r="13.749" gradientTransform="matrix(0.9827 0.1853 -0.1853 0.9827 10.8568 -15.6073)" gradientUnits="userSpaceOnUse">
		<stop  offset="0" style="stop-color:#FFFFFF"/>
		<stop  offset="1" style="stop-color:#000000"/>
	</radialGradient>
	<circle fill="url(#SVGID_1_)" cx="8.999" cy="9" r="8.7"/>
	
		<radialGradient id="SVGID_2_" cx="-1.0615" cy="18.9346" r="13.749" gradientTransform="matrix(0.9827 0.1853 -0.1853 0.9827 10.8568 -15.6073)" gradientUnits="userSpaceOnUse">
		<stop  offset="0" style="stop-color:#FFFFFF"/>
		<stop  offset="1" style="stop-color:#000000"/>
	</radialGradient>
	<circle fill="url(#SVGID_2_)" cx="8.999" cy="9" r="8.7"/>
	<line fill="none" stroke="#B3B3B3" stroke-miterlimit="10" x1="6.775" y1="10.261" x2="4.533" y2="12.702"/>
	<path fill="none" stroke="#B3B3B3" stroke-miterlimit="10" d="M1.489,7.714c0,0-0.504,1.789,0.352,3.689"/>
	<line fill="none" stroke="#B3B3B3" stroke-miterlimit="10" x1="6.376" y1="6.794" x2="3.642" y2="5.452"/>
	<path fill="none" stroke="#B3B3B3" stroke-miterlimit="10" d="M7.567,1.156c0,0-1.774-0.124-3.457,1.539"/>
	<line fill="none" stroke="#B3B3B3" stroke-miterlimit="10" x1="10.268" y1="2.283" x2="9.694" y2="5.32"/>
	<path fill="none" stroke="#B3B3B3" stroke-miterlimit="10" d="M5.814,15.658c0,0,1.755,0.897,3.725,0.707"/>
	<line fill="none" stroke="#B3B3B3" stroke-miterlimit="10" x1="11.813" y1="14.075" x2="10.612" y2="10.983"/>
	<path fill="none" stroke="#B3B3B3" stroke-miterlimit="10" d="M16.462,10.541c0,0-0.375,1.991-1.698,3.324"/>
	<line fill="none" stroke="#B3B3B3" stroke-miterlimit="10" x1="12.246" y1="7.904" x2="15.214" y2="7.655"/>
	<path fill="none" stroke="#B3B3B3" stroke-miterlimit="10" d="M13.19,2.219c0,0,1.563,0.524,2.658,2.692"/>
	<path fill="#4D4D4D" d="M3.702,5.482c0,0-0.215-1.336,0.408-2.787c0,0-0.973,0.099-1.407,0.436c0,0-1.268,1.047-1.877,3.397
		c0,0-0.094,0.498,0.663,1.187C1.489,7.714,2.413,6.067,3.702,5.482z"/>
	
		<radialGradient id="SVGID_3_" cx="-5.0308" cy="19.3535" r="3.5114" gradientTransform="matrix(0.9827 0.1853 -0.1853 0.9827 10.8568 -15.6073)" gradientUnits="userSpaceOnUse">
		<stop  offset="0" style="stop-color:#FFFFFF"/>
		<stop  offset="1" style="stop-color:#000000"/>
	</radialGradient>
	<path fill="url(#SVGID_3_)" d="M3.702,5.482c0,0-0.215-1.336,0.408-2.787c0,0-0.973,0.099-1.407,0.436c0,0-1.268,1.047-1.877,3.397
		c0,0-0.094,0.498,0.663,1.187C1.489,7.714,2.413,6.067,3.702,5.482z"/>
	<path fill="#4D4D4D" d="M4.533,12.702c0,0-1.438-0.166-2.638-1.254L1.84,11.403c0,0-0.533,0.967-0.216,2.079
		c0,0,0.912,1.748,2.462,2.596c0,0,0.992,0.158,1.729-0.42C5.814,15.658,4.535,14.235,4.533,12.702z"/>
	
		<radialGradient id="SVGID_4_" cx="-3.2544" cy="27.5352" r="3.4265" gradientTransform="matrix(0.9827 0.1853 -0.1853 0.9827 10.8568 -15.6073)" gradientUnits="userSpaceOnUse">
		<stop  offset="0" style="stop-color:#FFFFFF"/>
		<stop  offset="1" style="stop-color:#000000"/>
	</radialGradient>
	<path fill="url(#SVGID_4_)" d="M4.533,12.702c0,0-1.438-0.166-2.638-1.254L1.84,11.403c0,0-0.533,0.967-0.216,2.079
		c0,0,0.912,1.748,2.462,2.596c0,0,0.992,0.158,1.729-0.42C5.814,15.658,4.535,14.235,4.533,12.702z"/>
	<path fill="#4D4D4D" d="M10.612,10.983c1.135-1.36,1.634-3.079,1.634-3.079c-0.758-1.253-2.521-2.755-2.521-2.755V5.147
		c0,0-2.188,0.757-3.35,1.647c0,0-0.16,1.782,0.399,3.466c0,0,0.799,0.414,1.872,0.614l-0.002,0.004
		C9.719,11.08,10.612,10.983,10.612,10.983z"/>
	
		<radialGradient id="SVGID_5_" cx="1.2373" cy="20.8848" r="5.3163" gradientTransform="matrix(0.9827 0.1853 -0.1853 0.9827 10.8568 -15.6073)" gradientUnits="userSpaceOnUse">
		<stop  offset="0" style="stop-color:#FFFFFF"/>
		<stop  offset="1" style="stop-color:#000000"/>
	</radialGradient>
	<path fill="url(#SVGID_5_)" d="M10.612,10.983c1.135-1.36,1.634-3.079,1.634-3.079c-0.758-1.253-2.521-2.755-2.521-2.755V5.147
		c0,0-2.188,0.757-3.35,1.647c0,0-0.16,1.782,0.399,3.466c0,0,0.799,0.414,1.872,0.614l-0.002,0.004
		C9.719,11.08,10.612,10.983,10.612,10.983z"/>
	<path fill="#4D4D4D" d="M10.241,2.422c0,0,1.514-0.493,2.949-0.203c0,0,0.004-0.544-0.481-0.958c0,0-0.538-0.345-2.128-0.646V0.614
		c-1.59-0.3-2.216-0.175-2.216-0.175C7.76,0.647,7.567,1.156,7.567,1.156C9.01,1.409,10.241,2.42,10.241,2.42V2.422z"/>
	
		<radialGradient id="SVGID_6_" cx="0.7158" cy="16.0322" r="3.5606" gradientTransform="matrix(0.9827 0.1853 -0.1853 0.9827 10.8568 -15.6073)" gradientUnits="userSpaceOnUse">
		<stop  offset="0" style="stop-color:#FFFFFF"/>
		<stop  offset="1" style="stop-color:#000000"/>
	</radialGradient>
	<path fill="url(#SVGID_6_)" d="M10.241,2.422c0,0,1.514-0.493,2.949-0.203c0,0,0.004-0.544-0.481-0.958
		c0,0-0.538-0.345-2.128-0.646V0.614c-1.59-0.3-2.216-0.175-2.216-0.175C7.76,0.647,7.567,1.156,7.567,1.156
		C9.01,1.409,10.241,2.42,10.241,2.42V2.422z"/>
	<path fill="#4D4D4D" d="M17,5.83c-0.28-0.472-1.151-0.919-1.151-0.919c0.054,1.578-0.635,2.744-0.635,2.744
		c0.987,1.014,1.248,2.886,1.248,2.886c0.956-0.366,1.051-0.865,1.051-0.865C17.801,7.266,17,5.83,17,5.83z"/>
	
		<radialGradient id="SVGID_7_" cx="7.7847" cy="19.5957" r="3.5268" gradientTransform="matrix(0.9827 0.1853 -0.1853 0.9827 10.8568 -15.6073)" gradientUnits="userSpaceOnUse">
		<stop  offset="0" style="stop-color:#FFFFFF"/>
		<stop  offset="1" style="stop-color:#000000"/>
	</radialGradient>
	<path fill="url(#SVGID_7_)" d="M17,5.83c-0.28-0.472-1.151-0.919-1.151-0.919c0.054,1.578-0.635,2.744-0.635,2.744
		c0.987,1.014,1.248,2.886,1.248,2.886c0.956-0.366,1.051-0.865,1.051-0.865C17.801,7.266,17,5.83,17,5.83z"/>
	<path fill="#4D4D4D" d="M14.764,13.865c-1.514,0.577-2.951,0.21-2.951,0.21c-0.562,1.428-2.273,2.29-2.273,2.29
		c0.477,0.805,1.458,1.019,1.458,1.019c1.753-0.224,3.238-1.522,3.238-1.522c0.7-0.92,0.557-2.015,0.557-2.015L14.764,13.865z"/>
	
		<radialGradient id="SVGID_8_" cx="5.6255" cy="28.6846" r="3.3582" gradientTransform="matrix(0.9827 0.1853 -0.1853 0.9827 10.8568 -15.6073)" gradientUnits="userSpaceOnUse">
		<stop  offset="0" style="stop-color:#FFFFFF"/>
		<stop  offset="1" style="stop-color:#000000"/>
	</radialGradient>
	<path fill="url(#SVGID_8_)" d="M14.764,13.865c-1.514,0.577-2.951,0.21-2.951,0.21c-0.562,1.428-2.273,2.29-2.273,2.29
		c0.477,0.805,1.458,1.019,1.458,1.019c1.753-0.224,3.238-1.522,3.238-1.522c0.7-0.92,0.557-2.015,0.557-2.015L14.764,13.865z"/>
	<path fill="#FFFFFF" d="M9.694,5.32c0,0-2.077,0.719-3.179,1.598c0,0-0.095,1.671,0.411,3.183c0,0-0.306-1.699-0.15-3.087
		C6.775,7.014,8.459,5.795,9.694,5.32z"/>
	<path fill="#FFFFFF" d="M16.757,5.6c0,0-0.506-0.373-0.787-0.533c0,0,0.172,1.159-0.622,2.505c0,0,0.782-1.004,0.778-2.209
		L16.757,5.6z"/>
	<path fill="#FFFFFF" d="M3.558,4.818c0,0,0.054-1.324,0.391-1.958c0,0-0.69,0.034-1.144,0.28c0,0,0.578-0.151,0.913-0.141
		C3.717,3,3.476,3.964,3.558,4.818z"/>
	<path fill="#FFFFFF" d="M12.437,1.201c0,0-2.376-0.767-3.979-0.662c0,0-0.468,0.136-0.725,0.524c0,0,0.356-0.199,0.997-0.279
		C9.371,0.706,11.325,0.896,12.437,1.201z"/>
	<path fill="#FFFFFF" d="M4.377,12.811c0,0-1.79-0.502-2.482-1.182c0,0-0.342,0.442-0.224,1.534c0,0,0.012-0.657,0.255-1.192
		C1.925,11.971,3.098,12.61,4.377,12.811z"/>
	<path fill="#FFFFFF" d="M14.27,14.133c0,0-1.102,0.414-2.404,0.121c0,0-0.581,1.495-2.079,2.101c0,0,1.346-0.391,2.165-1.927
		C11.951,14.428,13.459,14.583,14.27,14.133z"/>
	<path d="M11.255,6.908c0,0-0.956,2.813-3.95,3.451c0,0,1.856,0.665,3.276,0.479c0,0,1.188-1.503,1.502-2.923
		C12.083,7.915,11.671,7.236,11.255,6.908z"/>
	<path d="M3.396,5.406c0,0-1.403,0.654-1.95-0.215c0,0-0.305,0.474-0.513,1.392c0,0-0.085,0.215,0.542,0.926
		C1.476,7.509,2.179,5.945,3.396,5.406z"/>
	<path d="M14.563,14.448c0,0-1.874,2.552-4.303,2.402c0,0,0.317,0.28,0.784,0.358c0,0,1.98-0.297,3.109-1.456
		C14.153,15.753,14.605,14.946,14.563,14.448z"/>
	<path d="M4.419,13.796c0,0-0.38,1.259-1.361,1.345c0,0,0.453,0.514,1.108,0.842c0,0,0.811,0.065,1.398-0.369
		C5.564,15.613,4.787,14.885,4.419,13.796z"/>
	<path d="M16.218,8.996c0,0,0.911-0.662,0.963-2.264c0,0,0.448,1.139,0.215,2.901c0,0-0.217,0.52-0.78,0.695L16.218,8.996z"/>
	<path d="M10.271,2.257c0,0,1.635-0.465,2.753-0.195c0,0-0.006-0.498-0.448-0.752c0,0-1.594,0.651-3.019,0.471L10.271,2.257z"/>
	<path d="M16.001,9.603c0,0-0.983,3.755-4.291,3.54c0,0,0.194,0.561,0.286,0.822c0,0,1.623,0.305,2.714-0.273
		c0,0,1.207-1.434,1.579-3.316C16.289,10.375,16.244,9.772,16.001,9.603z"/>
	<path d="M7.785,15.438c0,0-1.116,0.078-2.339-0.56c0,0,0.33,0.513,0.513,0.664c0,0,1.764,0.795,3.457,0.651
		c0,0,1.462-0.612,2.247-2.146l-0.318-0.636C11.345,13.411,10.243,15.518,7.785,15.438z"/>
	<path d="M9.543,16.649c0,0-0.905,0.896-4.747-0.438L4.352,16.22c0,0,1.525,0.911,2.753,1.185c1.229,0.272,2.276,0.287,3.583-0.026
		C10.688,17.378,9.883,17.095,9.543,16.649z"/>
	<path d="M16.021,12.315c0,0-0.562,1.141-1.088,1.584c0,0,0.103,0.896-0.344,1.63c0,0,1.88-1.413,2.546-3.854
		C17.136,11.676,16.427,13.021,16.021,12.315z"/>
	<path d="M6.399,9.449c0,0,0.093,0.485,0.159,0.655l-2.12,2.385c0,0-1.477-0.127-2.423-1.12c0,0-0.371-0.718-0.5-1.585
		c0,0,0.672,1.048,2.327,1.193C5.499,11.121,6.399,9.449,6.399,9.449z"/>
	<path d="M1.327,10.431c0,0,0.217,0.725,0.388,1.03c0,0-0.372,0.756-0.298,1.583c0,0-0.567-1.232-0.76-2.083
		C0.657,10.961,1.204,11.338,1.327,10.431z"/>
	<path d="M14.941,3.865c0,0,0.612,0.565,0.813,1.264c0,0,0.015,1.054-0.608,2.407l-2.865,0.174c0,0-0.926-1.315-1.487-1.709
		c0,0,1.264,1.195,3.038,0.491C15.216,5.94,14.941,3.865,14.941,3.865z"/>
	<path d="M15.438,3.958c0,0,0.377,0.537,0.516,0.9c0,0,0.563,0.306,0.81,0.525c0,0-0.301-1.126-1.217-2.001
		C15.546,3.382,16.063,4.164,15.438,3.958z"/>
	<path d="M9.797,3.771c0,0-1.941,1.888-3.89,1.639c-1.948-0.25-2.05-1.369-2.05-1.369S3.691,4.833,3.797,5.393l2.524,1.193
		c0,0,2.262-1.333,3.24-1.563L9.797,3.771z"/>
	<path d="M4.295,2.341c0,0-0.505,0.112-0.624-0.071c0,0-0.345,0.231-0.642,0.588c0,0,0.653-0.243,0.989-0.239"/>
	<path opacity="0.52" d="M16.115,9.976c0,0-0.049-0.156-0.106-0.188c0,0-0.319,1.561-1.503,2.517
		C14.506,12.305,15.693,11.56,16.115,9.976z"/>
	<path opacity="0.52" d="M11.311,13.66c0,0-1.28,2.187-3.955,1.894c0,0,2.219,0.683,4.102-1.731L11.311,13.66z"/>
	<path fill="#FFFFFF" d="M10.48,11.17c0,0-1.836,0.092-3.607-0.731L4.67,12.794l2.325-1.992C6.995,10.802,8.555,11.481,10.48,11.17z
		"/>
	<path fill="#FFFFFF" d="M15.184,7.825l-2.867,0.213c0,0-0.5,1.987-1.51,2.915c0,0,1.053-0.582,1.745-2.561L15.184,7.825z"/>
	<path fill="#FFFFFF" d="M17.446,10.031c0,0-0.372,0.461-0.887,0.584c0,0-0.235,1.073-0.401,1.413c0,0,0.408-0.774,0.489-1.155
		C16.647,10.873,17.211,10.447,17.446,10.031z"/>
	<path fill="#FFFFFF" d="M6.199,6.894L3.702,5.661c0,0-0.883,0.221-2.076,2.079c0,0,0.824-1.199,1.986-1.777L6.199,6.894z"/>
	<path fill="#FFFFFF" d="M0.753,6.913c0,0,0.215,0.548,0.604,0.829c0,0-0.285,1.074-0.131,2.124c0,0-0.267-0.953-0.029-1.989
		C1.197,7.876,0.811,7.525,0.753,6.913z"/>
	<path fill="#FFFFFF" d="M8.803,16.593c0,0-1.691-0.084-2.894-0.754c0,0-0.5,0.274-0.861,0.308c0,0,0.618,0.008,0.892-0.123
		C5.939,16.023,7.244,16.677,8.803,16.593z"/>
	<path fill="#FFFFFF" d="M8.663,1.625c0,0-0.386-0.196-1.083-0.354c0,0-1.879,0.018-3.368,1.517c0,0-0.205,0.511-0.28,0.86
		c0,0,0.245-0.547,0.427-0.761c0,0,1.337-1.21,3.184-1.42C7.542,1.467,8.207,1.549,8.663,1.625z"/>
	<path fill="#FFFFFF" d="M13.088,2.31c0,0-1.204-0.244-2.697,0.209L9.934,4.94l0.621-2.257C10.555,2.683,11.368,2.224,13.088,2.31z"
		/>
	<path fill="#FFFFFF" d="M14.086,2.564c0,0-0.467-0.34-0.813-0.433c0,0-0.03-0.514-0.348-0.783c0,0,0.454,0.166,0.982,0.553
		c0,0-0.391-0.197-0.553-0.212l0.051,0.269C13.405,1.958,13.801,2.24,14.086,2.564z"/>
	<path fill="#FFFFFF" d="M5.327,1.227c0,0,1.248-0.594,2.55-0.697c0,0-0.299,0.255-0.375,0.44c0,0-0.025-0.107,0.053-0.235
		C7.556,0.735,6.275,0.825,5.327,1.227z"/>
	<path opacity="0.25" fill="#FFFFFF" d="M11.89,8.286c0,0-0.592,1.546-1.37,2.425c0,0-0.817,0.111-1.826-0.088
		c0,0,1.171,0.086,1.736-0.142C10.43,10.481,11.46,9.393,11.89,8.286z"/>
	<path opacity="0.25" fill="#FFFFFF" d="M17.394,8.624c0,0,0.043,0.49-0.076,0.993c0,0-0.2,0.405-0.643,0.593
		c0,0,0.342-0.247,0.481-0.64C17.156,9.569,17.34,9.104,17.394,8.624z"/>
	<path opacity="0.46" fill="#FFFFFF" d="M14.041,15.761c0,0-0.938,1.028-2.96,1.366C11.081,17.127,12.738,16.568,14.041,15.761z"/>
	<path opacity="0.25" fill="#FFFFFF" d="M3.572,15.452c0,0,0.211,0.249,0.578,0.448c0,0,0.751,0.055,1.281-0.313
		c0,0-0.323-0.346-0.444-0.567c0,0,0.109,0.278,0.15,0.433c0.042,0.155-0.824,0.364-0.958,0.327
		C4.043,15.742,3.572,15.452,3.572,15.452z"/>
	<path opacity="0.25" fill="#FFFFFF" d="M2.089,6.392c0,0-0.397,0.484-0.614,0.922c0,0-0.33-0.326-0.449-0.604
		c0,0,0.215,0.251,0.371,0.353C1.397,7.063,1.747,6.595,2.089,6.392z"/>
	<path opacity="0.52" d="M6.345,9.76c0,0-1.054,1.886-3.036,1.277c0,0,1.526,0.939,3.113-1.028L6.345,9.76z"/>
	<path d="M9.754,17.035c0,0,0.321,0.218,0.594,0.322c0,0-1.458,0.399-3.265-0.071c-1.807-0.477-2.46-0.954-2.46-0.954h0.23
		C4.853,16.332,7.642,17.939,9.754,17.035z"/>
	<path d="M16.668,12.712c0,0-0.663,1.4-1.824,2.483c0,0,0.17-0.354,0.151-0.564C14.995,14.631,15.943,13.885,16.668,12.712z"/>
</g>
</svg>
