<?xml version="1.0" encoding="utf-8"?>
<!-- Generator: Adobe Illustrator 16.0.0, SVG Export Plug-In . SVG Version: 6.00 Build 0)  -->
<!DOCTYPE svg PUBLIC "-//W3C//DTD SVG 1.1//EN" "http://www.w3.org/Graphics/SVG/1.1/DTD/svg11.dtd">
<svg version="1.1" id="Layer_1" xmlns="http://www.w3.org/2000/svg" xmlns:xlink="http://www.w3.org/1999/xlink" x="0px" y="0px"
	 width="23px" height="22.918px" viewBox="0 0 23 22.918" enable-background="new 0 0 23 22.918" xml:space="preserve">
<path fill="#B2D6F2" d="M-13.208,15.752c-6.166,0-11.163,4.997-11.163,11.163c0,6.164,4.998,11.162,11.163,11.162
	c6.164,0,11.162-4.998,11.162-11.162C-2.045,20.749-7.043,15.752-13.208,15.752z M-13.227,34.603c-4.26,0-7.714-3.453-7.714-7.715
	c0-4.26,3.454-7.713,7.714-7.713c4.26,0,7.713,3.453,7.713,7.713C-5.514,31.149-8.967,34.603-13.227,34.603z"/>
<path fill="#0078D7" d="M-13.208,17.54c-5.178,0-9.375,4.197-9.375,9.375s4.197,9.373,9.375,9.373c5.178,0,9.373-4.195,9.373-9.373
	S-8.03,17.54-13.208,17.54z M-13.208,34.526c-4.205,0-7.612-3.408-7.612-7.611c0-4.205,3.408-7.612,7.612-7.612
	c4.203,0,7.611,3.407,7.611,7.612C-5.596,31.118-9.004,34.526-13.208,34.526z"/>
<g>
	<path fill="#3489C9" d="M43.932,27.782H38.93c-0.408,0-0.74,0.333-0.74,0.742c0,0.408,0.332,0.739,0.74,0.739h5.002
		c0.406,0,0.556,0.149,0.556,0.556v5.002c0,0.408,0.333,0.741,0.741,0.741c0.409,0,0.742-0.333,0.742-0.741v-5.002
		C45.971,28.595,45.158,27.782,43.932,27.782L43.932,27.782z M43.932,27.782"/>
	<path fill="#3489C9" d="M23.742,35.563c0.408,0,0.74-0.333,0.74-0.741v-5.002c0-0.406,0.186-0.556,0.592-0.556h4.594
		c0.409,0,0.742-0.331,0.742-0.739c0-0.409-0.333-0.742-0.742-0.742h-4.594c-1.225,0-2.074,0.813-2.074,2.037v5.002
		C23,35.229,23.333,35.563,23.742,35.563L23.742,35.563z M23.742,35.563"/>
	<path fill="#3489C9" d="M45.229,42.601c-0.408,0-0.741,0.334-0.741,0.742v4.592c0,0.408-0.149,0.595-0.556,0.595H38.93
		c-0.408,0-0.74,0.331-0.74,0.739c0,0.41,0.332,0.742,0.74,0.742h5.002c1.227,0,2.039-0.848,2.039-2.076v-4.592
		C45.971,42.935,45.638,42.601,45.229,42.601L45.229,42.601z M45.229,42.601"/>
	<path fill="#3489C9" d="M29.668,48.529h-4.594c-0.406,0-0.592-0.187-0.592-0.595v-4.592c0-0.408-0.332-0.742-0.74-0.742
		c-0.409,0-0.742,0.334-0.742,0.742v4.592c0,1.229,0.85,2.076,2.074,2.076h4.594c0.409,0,0.742-0.332,0.742-0.742
		C30.41,48.86,30.077,48.529,29.668,48.529L29.668,48.529z M29.668,48.529"/>
	<path fill="#ABD037" d="M40.042,42.009v-5.52c0-1.227-0.812-2.039-2.038-2.039h-7.001c-1.226,0-2.075,0.813-2.075,2.039v5.52
		c0,1.226,0.85,2.073,2.075,2.073h7.001C39.23,44.082,40.042,43.234,40.042,42.009L40.042,42.009z M38.561,42.009
		c0,0.408-0.147,0.592-0.557,0.592h-7.001c-0.408,0-0.593-0.184-0.593-0.592v-5.52c0-0.407,0.185-0.556,0.593-0.556h7.001
		c0.409,0,0.557,0.148,0.557,0.556V42.009z M38.561,42.009"/>
</g>
<path fill="#EBF0F3" d="M72.084,19.45v-4.867h-4.867v2.03H54.701v-2.03h-4.867v4.867h2.002v12.516h-2.002v4.867h4.867v-2.03h12.516
	v2.03h4.867v-4.867h-2.058V19.45H72.084z M68.023,15.39h3.254v3.254h-3.254V15.39z M50.641,15.39h3.254v3.254h-3.254V15.39z
	 M53.895,36.026h-3.254v-3.254h3.254V36.026L53.895,36.026z M71.277,36.026h-3.254v-3.254h3.254V36.026z M69.22,31.966h-2.003v2.03
	H54.701v-2.03h-2.059V19.45h2.059v-2.03h12.516v2.03h2.003V31.966z"/>
<path fill="#E56353" d="M59.734,22.397h-2.863v-2.029h8.177v2.029h-2.893v8.623h-2.392v-8.623H59.734z"/>
<path fill="#2394BC" d="M16.32,33.333L2.145,47.317c0,0-7.253,2.162-7.584,1.828c-0.332-0.328,1.656-7.758,1.656-7.758
	l14.175-13.982c0.681-0.697,1.779-0.697,2.459,0l3.47,3.486C17.001,31.555,17.001,32.653,16.32,33.333z"/>
<path fill="#44A4C6" d="M-2.545,43.134l15.571-15.572l-0.174-0.174c-0.681-0.68-1.779-0.68-2.459,0.018L-3.766,41.406
	c0,0-0.035,0.139-0.105,0.385L-2.545,43.134L-2.545,43.134z"/>
<path fill="#1F85A9" d="M16.722,32.758c0.243-0.628,0.122-1.378-0.385-1.883l-0.348-0.349l-15.57,15.57l1.36,1.34
	c0.192-0.049,0.314-0.086,0.366-0.103L16.722,32.758z"/>
<path fill="#FFCABA" d="M-5.457,49.097l0.104,0.104c0.82,0.122,7.114-1.742,7.498-1.866l0.018-0.017c0,0-0.401-1.883-0.75-2.216
	c-0.349-0.348-1.866-0.399-2.214-0.732c-0.349-0.348-0.384-1.864-0.75-2.212c-0.349-0.35-2.127-0.716-2.214-0.732
	C-3.766,41.406-5.596,48.224-5.457,49.097L-5.457,49.097z"/>
<path fill="#FFDCD2" d="M-5.475,49.008c0.122-0.209,0.733-1.291,3.906-6.851c-0.349-0.35-2.127-0.716-2.214-0.732
	C-3.766,41.406-5.492,47.857-5.475,49.008z"/>
<path fill="#E5B5A7" d="M-5.475,49.026v0.052l0.105,0.105c0.819,0.12,7.114-1.747,7.498-1.866l0.017-0.017
	c0,0-0.384-1.866-0.732-2.216C-4.358,48.397-5.317,48.939-5.475,49.026z"/>
<path fill="#2394BC" d="M-4.271,47.824c-0.227-0.228-0.593-0.403-0.959-0.437c-0.192,0.977-0.313,1.69-0.209,1.796
	c0.087,0.087,0.75-0.017,1.622-0.211C-3.818,48.538-4.01,48.085-4.271,47.824z"/>
<path fill="#CFD8DC" d="M-32.573,40.926l-2.489,2.521c-0.484,0.489-1.143,0.763-1.828,0.76h-2.417
	c-0.686,0.003-1.343-0.271-1.828-0.76l-3.098-3.125c-1.002-1.021-1.002-2.664,0-3.686l3.708-3.729L-32.573,40.926z"/>
<path fill="#2196F3" d="M-24.313,32.595l-8.261,8.331l-7.952-8.019l8.262-8.332c0.189-0.202,0.505-0.21,0.705-0.02
	c0.007,0.006,0.013,0.014,0.017,0.02l7.229,7.29c0.2,0.191,0.209,0.509,0.02,0.711C-24.3,32.583-24.306,32.589-24.313,32.595z"/>
<path fill="#455A64" d="M-29,46.707h-17.25c-0.265,0-0.479-0.217-0.479-0.482c0-0.268,0.214-0.484,0.479-0.484H-29
	c0.264,0,0.479,0.217,0.479,0.484C-28.521,46.49-28.736,46.707-29,46.707z"/>
<path fill="#FFC61B" d="M52.757-0.844l-12.832-9.599c-0.389-0.292-0.612-0.737-0.612-1.223c0-0.486,0.224-0.932,0.612-1.224
	l12.832-9.598c0.466-0.349,1.078-0.403,1.599-0.143c0.521,0.261,0.844,0.784,0.844,1.366v2.484c0,0.333-0.269,0.602-0.602,0.602
	c-0.332,0-0.601-0.269-0.601-0.602v-2.484c0-0.181-0.126-0.263-0.18-0.29c-0.055-0.028-0.195-0.079-0.341,0.03l-12.831,9.599
	c-0.113,0.084-0.131,0.199-0.131,0.26s0.018,0.176,0.131,0.26l12.831,9.599c0.146,0.108,0.286,0.058,0.341,0.03
	c0.054-0.028,0.18-0.108,0.18-0.29v-12.068c0-0.332,0.27-0.602,0.601-0.602c0.333,0,0.602,0.27,0.602,0.602v12.068
	c0,0.581-0.322,1.104-0.843,1.366c-0.219,0.108-0.453,0.162-0.687,0.162C53.348-0.538,53.027-0.641,52.757-0.844z"/>
<polygon fill="#FEE187" points="43.931,-11.666 51.82,-5.765 51.82,-17.567 "/>
<path fill="#FFC61B" d="M51.46-5.283l-7.89-5.9c-0.15-0.114-0.241-0.292-0.241-0.482s0.091-0.368,0.241-0.482l7.891-5.901
	c0.182-0.136,0.425-0.158,0.629-0.057c0.203,0.103,0.332,0.311,0.332,0.538v11.805c0,0.226-0.129,0.435-0.332,0.535
	c-0.085,0.043-0.178,0.064-0.27,0.064C51.692-5.163,51.566-5.202,51.46-5.283z M44.935-11.666l6.284,4.7v-9.401L44.935-11.666z"/>
<g>
	<polygon fill="#96AFFF" points="0.367,6.517 1.957,9.867 2.602,8.53 4.932,7.147 9.524,16.823 8.39,18.929 14.381,15.373 
		12.187,15.244 7.594,5.567 9.924,4.184 11.275,4.336 9.686,0.986 	"/>
	<polygon fill="#55D3FA" points="9.968,4.189 11.275,4.336 10.973,3.697 10.824,3.681 	"/>
</g>
<polygon fill="#96AFFF" points="10.175,17.869 10.669,16.952 5.353,5.896 1.988,7.887 1.499,8.901 1.957,9.867 2.602,8.53 
	4.932,7.147 9.524,16.823 8.39,18.929 "/>
<path fill="#FFFFFF" d="M22.99,18.987c-0.008-0.036-0.195-0.884-0.768-1.733c-0.536-0.797-1.52-1.745-3.161-1.745
	c-2.968,0-5.292,1.635-7.54,3.217c-2.252,1.585-4.581,3.226-7.583,3.226c-0.949,0-1.79-0.366-2.499-1.09
	c-0.54-0.551-0.798-1.114-0.801-1.118c-0.083-0.186-0.286-0.263-0.453-0.168c-0.167,0.092-0.234,0.319-0.151,0.507
	c0.048,0.106,1.205,2.624,3.903,2.624c3.197,0,5.61-1.698,7.943-3.34c2.266-1.597,4.405-3.103,7.18-3.103
	c1.086,0,1.964,0.478,2.607,1.423c0.495,0.727,0.664,1.471,0.665,1.479c0.045,0.203,0.227,0.327,0.408,0.277
	C22.924,19.394,23.034,19.189,22.99,18.987z"/>
<path d="M1.659,10.044c0.124,0.261,0.47,0.263,0.595,0.002L2.851,8.81l1.941-1.153l4.345,9.155l-1.036,1.92
	c-0.074,0.137-0.062,0.316,0.03,0.438c0.101,0.136,0.278,0.172,0.417,0.09l5.991-3.556c0.137-0.081,0.207-0.261,0.168-0.429
	c-0.037-0.157-0.164-0.272-0.309-0.282l-2.004-0.116L9.8,9.41C9.712,9.225,9.508,9.155,9.344,9.253
	c-0.165,0.098-0.228,0.326-0.14,0.511l2.685,5.656c0.055,0.118,0.162,0.193,0.28,0.2l0.978,0.059l-3.838,2.277l0.505-0.937
	c0.061-0.114,0.064-0.256,0.009-0.372L5.23,6.97C5.143,6.786,4.938,6.716,4.773,6.813l-2.33,1.383
	C2.385,8.231,2.336,8.285,2.305,8.351L1.959,9.067L0.824,6.674l8.722-5.177l1.136,2.393L9.958,3.809
	C9.891,3.801,9.824,3.816,9.766,3.851l-2.33,1.383C7.273,5.33,7.209,5.563,7.296,5.744l1.083,2.282
	C8.466,8.211,8.671,8.28,8.835,8.183s0.228-0.326,0.14-0.51L8.05,5.724l1.941-1.153l1.25,0.141c0.263,0.029,0.455-0.291,0.332-0.552
	l-1.59-3.35C9.896,0.625,9.692,0.555,9.527,0.652L0.209,6.184c-0.165,0.099-0.228,0.327-0.14,0.51L1.659,10.044z"/>
</svg>
