<?xml version="1.0" encoding="utf-8"?>
<!-- Generator: Adobe Illustrator 16.0.0, SVG Export Plug-In . SVG Version: 6.00 Build 0)  -->
<!DOCTYPE svg PUBLIC "-//W3C//DTD SVG 1.1//EN" "http://www.w3.org/Graphics/SVG/1.1/DTD/svg11.dtd">
<svg version="1.1" id="Layer_1" xmlns="http://www.w3.org/2000/svg" xmlns:xlink="http://www.w3.org/1999/xlink" x="0px" y="0px"
	 width="53px" height="46px" viewBox="0 0 53 46" enable-background="new 0 0 53 46" xml:space="preserve">
<path fill="#FFC70B" d="M55.098-28.425c0,3.937-3.189,7.128-7.127,7.128H9.363c-3.936,0-7.127-3.191-7.127-7.128v-18.651
	c0-3.935,3.192-7.127,7.127-7.127h38.608c3.938,0,7.127,3.192,7.127,7.127V-28.425z"/>
<path opacity="0.5" fill="#FFFFFF" enable-background="new    " d="M156.848-33.675c0,3.937-3.189,7.128-7.127,7.128h-38.605
	c-3.938,0-7.127-3.191-7.127-7.128v-18.651c0-3.936,3.189-7.127,7.127-7.127h38.605c3.938,0,7.127,3.192,7.127,7.127V-33.675z"/>
<path fill="#FFC70B" d="M53,30c0,6.627-5.355,12-11.962,12H11.962C5.355,42,0,36.627,0,30V16C0,9.373,5.355,4,11.962,4h29.075
	c6.605,0,11.962,5.373,11.962,12L53,30L53,30z"/>
<text transform="matrix(1 0 0 1 8.6426 23)" fill="#FFFFFF" font-family="'OpenSans-Semibold'" font-size="7.1272">Make your</text>
<text transform="matrix(1 0 0 1 17.3564 31.5537)" fill="#FFFFFF" font-family="'OpenSans-Semibold'" font-size="7.1272">Team</text>
<path opacity="0.6" fill="#FFFFFF" d="M53,30c0,6.627-5.355,12-11.962,12H11.962C5.355,42,0,36.627,0,30V16
	C0,9.373,5.355,4,11.962,4h29.075c6.605,0,11.962,5.373,11.962,12L53,30L53,30z"/>
</svg>
