<?xml version="1.0" encoding="utf-8"?>
<!-- Generator: Adobe Illustrator 16.0.0, SVG Export Plug-In . SVG Version: 6.00 Build 0)  -->
<!DOCTYPE svg PUBLIC "-//W3C//DTD SVG 1.1//EN" "http://www.w3.org/Graphics/SVG/1.1/DTD/svg11.dtd">
<svg version="1.1" id="Layer_1" xmlns="http://www.w3.org/2000/svg" xmlns:xlink="http://www.w3.org/1999/xlink" x="0px" y="0px"
	 width="53px" height="46px" viewBox="0 0 53 46" enable-background="new 0 0 53 46" xml:space="preserve">
<image overflow="visible" enable-background="new    " width="53" height="46" xlink:href="264E8032.png"  transform="matrix(1 0 0 1 266.833 25.832)">
</image>
<image overflow="visible" enable-background="new    " width="74" height="46" xlink:href="264E8036.png"  transform="matrix(1 0 0 1 247.833 -30.168)">
</image>
<path fill="#FFC70B" d="M53,30.833c0,6.627-5.355,12-11.962,12H11.962C5.356,42.833,0,37.46,0,30.833v-14
	c0-6.627,5.356-12,11.962-12h29.075c6.605,0,11.962,5.373,11.962,12L53,30.833L53,30.833z"/>
<text transform="matrix(1 0 0 1 93.2568 -47.4453)" fill="#FFFFFF" font-family="'OpenSans-Semibold'" font-size="13.6422">GO</text>
<text transform="matrix(1 0 0 1 5.7832 23)" enable-background="new    "><tspan x="0" y="0" fill="#FFFFFF" font-family="'OpenSans-Semibold'" font-size="8">Make Your</tspan><tspan x="10.004" y="9.6" fill="#FFFFFF" font-family="'OpenSans-Semibold'" font-size="8">Team</tspan></text>
</svg>
