<?xml version="1.0" encoding="utf-8"?>
<!-- Generator: Adobe Illustrator 16.0.0, SVG Export Plug-In . SVG Version: 6.00 Build 0)  -->
<!DOCTYPE svg PUBLIC "-//W3C//DTD SVG 1.1//EN" "http://www.w3.org/Graphics/SVG/1.1/DTD/svg11.dtd">
<svg version="1.1" id="Layer_1" xmlns="http://www.w3.org/2000/svg" xmlns:xlink="http://www.w3.org/1999/xlink" x="0px" y="0px"
	 width="23px" height="21px" viewBox="0 0 23 21" enable-background="new 0 0 23 21" xml:space="preserve">
<g>
	<path fill="#FFFFFF" d="M11.5,5.076c-2.991,0-5.424,2.434-5.424,5.424c0,2.991,2.433,5.424,5.424,5.424
		c2.991,0,5.424-2.433,5.424-5.424C16.924,7.509,14.491,5.076,11.5,5.076z M11.5,15.149c-2.564,0-4.649-2.086-4.649-4.649
		S8.936,5.851,11.5,5.851c2.563,0,4.649,2.086,4.649,4.649S14.063,15.149,11.5,15.149z"/>
	<path fill="#FFFFFF" d="M20.883,8.175h-0.781c-0.2-0.741-0.493-1.449-0.876-2.114l0.553-0.552c0.203-0.204,0.315-0.474,0.315-0.762
		s-0.112-0.558-0.315-0.762l-1.764-1.765c-0.407-0.406-1.117-0.407-1.524,0l-0.552,0.553c-0.665-0.382-1.374-0.676-2.114-0.875
		V1.116c0-0.593-0.483-1.077-1.077-1.077h-2.495c-0.594,0-1.077,0.483-1.077,1.077v0.782C8.435,2.098,7.727,2.392,7.061,2.774
		L6.509,2.221c-0.407-0.407-1.117-0.407-1.523,0L3.221,3.985C3.018,4.189,2.906,4.459,2.906,4.747s0.112,0.558,0.315,0.762
		l0.553,0.553C3.392,6.726,3.097,7.435,2.898,8.175H2.116c-0.593,0-1.077,0.483-1.077,1.077v2.495c0,0.594,0.483,1.077,1.077,1.077
		h0.782c0.199,0.74,0.493,1.449,0.876,2.114l-0.553,0.553c-0.203,0.203-0.315,0.474-0.315,0.762c0,0.287,0.112,0.558,0.315,0.762
		l1.764,1.764c0.407,0.408,1.117,0.408,1.523,0l0.553-0.553c0.665,0.383,1.374,0.677,2.114,0.876v0.781
		c0,0.595,0.483,1.078,1.078,1.078h2.494c0.594,0,1.077-0.483,1.077-1.078v-0.781c0.74-0.199,1.449-0.492,2.114-0.876l0.553,0.553
		c0.407,0.408,1.116,0.407,1.523,0l1.764-1.764c0.203-0.203,0.316-0.475,0.316-0.762c0-0.288-0.113-0.558-0.316-0.762l-0.553-0.553
		c0.383-0.665,0.677-1.374,0.876-2.114h0.781c0.595,0,1.078-0.483,1.078-1.077V9.252C21.961,8.658,21.478,8.175,20.883,8.175z
		 M21.185,11.747c0,0.167-0.135,0.303-0.302,0.303h-1.392l-0.069,0.299c-0.202,0.867-0.542,1.69-1.012,2.445l-0.164,0.262
		l0.984,0.983c0.118,0.118,0.118,0.31,0,0.428l-1.764,1.764c-0.118,0.117-0.31,0.118-0.428,0l-0.983-0.984l-0.262,0.164
		c-0.755,0.47-1.577,0.81-2.445,1.012l-0.299,0.069v1.392c0,0.167-0.136,0.302-0.303,0.302h-2.495c-0.167,0-0.302-0.135-0.302-0.302
		v-1.392l-0.3-0.069C8.784,18.22,7.961,17.88,7.206,17.41l-0.261-0.164L5.961,18.23c-0.118,0.118-0.311,0.117-0.428,0l-1.764-1.764
		c-0.118-0.118-0.118-0.31,0-0.428l0.984-0.983L4.59,14.794c-0.471-0.755-0.811-1.577-1.012-2.445l-0.07-0.299H2.116
		c-0.167,0-0.302-0.136-0.302-0.303V9.252c0-0.167,0.135-0.302,0.302-0.302h1.392l0.07-0.3C3.78,7.784,4.12,6.961,4.59,6.206
		l0.163-0.261L3.769,4.961c-0.118-0.118-0.118-0.31,0-0.428l1.764-1.764c0.118-0.117,0.31-0.119,0.428,0l0.984,0.984L7.206,3.59
		C7.961,3.12,8.784,2.779,9.651,2.578l0.3-0.07V1.116c0-0.167,0.135-0.302,0.302-0.302h2.495c0.167,0,0.303,0.135,0.303,0.302v1.392
		l0.299,0.07c0.867,0.202,1.69,0.542,2.445,1.012l0.262,0.163l0.983-0.984c0.118-0.119,0.31-0.117,0.428,0l1.764,1.764
		c0.118,0.119,0.118,0.311,0,0.428l-0.984,0.984l0.164,0.261c0.47,0.755,0.81,1.578,1.012,2.444l0.069,0.3h1.392
		c0.167,0,0.302,0.135,0.302,0.302V11.747z"/>
	<path fill="#FFFFFF" d="M11.5,6.625c-2.136,0-3.875,1.738-3.875,3.875c0,2.136,1.738,3.873,3.875,3.873
		c2.136,0,3.873-1.737,3.873-3.873C15.373,8.364,13.636,6.625,11.5,6.625z M11.5,13.6c-1.709,0-3.1-1.391-3.1-3.1s1.391-3.1,3.1-3.1
		s3.1,1.391,3.1,3.1S13.209,13.6,11.5,13.6z"/>
</g>
</svg>
