<?xml version="1.0" encoding="utf-8"?>
<!-- Generator: Adobe Illustrator 16.0.0, SVG Export Plug-In . SVG Version: 6.00 Build 0)  -->
<!DOCTYPE svg PUBLIC "-//W3C//DTD SVG 1.1//EN" "http://www.w3.org/Graphics/SVG/1.1/DTD/svg11.dtd">
<svg version="1.1" id="Layer_1" xmlns="http://www.w3.org/2000/svg" xmlns:xlink="http://www.w3.org/1999/xlink" x="0px" y="0px"
	 width="23px" height="21px" viewBox="0 0 23 21" enable-background="new 0 0 23 21" xml:space="preserve">
<circle fill="#FFFFFF" cx="17.489" cy="3.243" r="3.188"/>
<path fill="#FFFFFF" d="M14.885,11.437c0,1.762-1.423,3.187-3.186,3.187c-1.762,0-3.189-1.425-3.189-3.187
	c0-1.762,1.427-3.189,3.189-3.189C13.462,8.247,14.885,9.674,14.885,11.437z"/>
<circle fill="#FFFFFF" cx="5.922" cy="3.243" r="3.188"/>
<path fill="#FFFFFF" d="M0.776,11.032V7.107c0-1.017,0.833-1.857,1.856-1.857H2.79c0.649,1.059,1.809,1.762,3.14,1.762
	c1.332,0,2.492-0.704,3.141-1.762h0.158c1.016,0,1.856,0.833,1.856,1.857v0.751c-1.72,0.293-3.032,1.789-3.032,3.579
	c0,0.516,0.109,1.011,0.308,1.453H2.625C1.608,12.89,0.776,12.058,0.776,11.032z"/>
<path fill="#FFFFFF" d="M16.853,19.088c0,1.019-0.833,1.857-1.856,1.857H8.409c-1.017,0-1.858-0.833-1.858-1.857v-3.927
	c0-1.014,0.834-1.856,1.858-1.856h0.156c0.648,1.06,1.809,1.763,3.14,1.763s2.492-0.703,3.142-1.763h0.156
	c1.017,0,1.855,0.832,1.855,1.856v3.927H16.853z"/>
<path fill="#FFFFFF" d="M22.636,11.032c0,1.019-0.833,1.857-1.856,1.857h-5.722c0.199-0.442,0.306-0.938,0.306-1.453
	c0-1.796-1.311-3.285-3.03-3.579V7.107c0-1.017,0.833-1.857,1.857-1.857h0.158c0.647,1.059,1.809,1.762,3.141,1.762
	c1.33,0,2.49-0.704,3.14-1.762h0.156c1.018,0,1.856,0.833,1.856,1.857v3.925H22.636z"/>
</svg>
